<svg width="69" height="57" viewBox="0 0 69 57" fill="none" xmlns="http://www.w3.org/2000/svg">
<path d="M33.8553 24.5743C24.7924 25.9037 22.2871 26.6192 16.6035 27.4811C16.1579 27.5483 15.8553 27.97 15.9358 28.4123C17.2224 35.4661 17.437 40.9381 18.4719 47.7171C18.5415 48.1702 18.9754 48.4639 19.4134 48.3812C24.8522 47.3532 31.673 46.6421 37.1649 45.6052C37.5473 45.5325 37.8222 45.1978 37.817 44.8102C37.7189 37.3814 36.3695 31.5198 34.7488 25.1677C34.6476 24.7717 34.2658 24.5161 33.8553 24.5743Z" fill="black"/>
<path d="M19.9352 46.6612C19.046 40.5369 18.773 35.3602 17.6562 28.9341C23.5966 27.9982 24.4972 27.5803 33.3735 26.259C34.8392 32.052 36.0425 37.4864 36.2022 44.1597C31.134 45.0743 25.0594 45.7441 19.9352 46.6612Z" fill="#D3B2FF"/>
<path d="M28.9923 33.5471L26.4048 30.0467C26.1806 29.7433 25.7032 29.8268 25.597 30.188L24.3716 34.3557L20.218 35.7164C19.8579 35.8343 19.7905 36.3108 20.1038 36.5226L23.7185 38.9672L23.7389 43.3087C23.7406 43.6849 24.1763 43.8959 24.4761 43.6656L27.9356 41.0087L32.1019 42.3311C32.4629 42.4458 32.7996 42.0998 32.6717 41.7455L31.1949 37.659L33.7495 34.1348C33.9709 33.8294 33.7433 33.4046 33.3644 33.4159L28.9923 33.5471Z" fill="black"/>
<path d="M57.4212 22.5911L38.4956 25.6977C38.0495 25.7703 37.7514 26.1666 37.8299 26.5809C37.9005 26.9515 38.2467 27.2118 38.6372 27.2118C38.7718 27.2118 37.5325 27.4007 57.7065 24.0933C58.1526 24.0207 58.4507 23.6244 58.3721 23.2101C58.2931 22.7948 57.8651 22.5216 57.4212 22.5911Z" fill="black"/>
<path d="M56.6777 31.8832C51.6884 33.4163 46.4998 34.2325 41.2567 34.3082C40.816 34.3151 40.4646 34.6583 40.4713 35.0752C40.4781 35.4883 40.8337 35.8187 41.2687 35.8187H41.2806C46.6836 35.741 52.0289 34.9002 57.1698 33.3209C57.5887 33.192 57.8181 32.7653 57.6821 32.3689C57.5456 31.9717 57.0982 31.7573 56.6777 31.8832Z" fill="black"/>
<path d="M51.3304 39.8363C48.2981 40.8651 45.1307 41.4438 41.9153 41.5573C41.4683 41.5724 41.119 41.9301 41.1353 42.3561C41.1517 42.773 41.5111 43.0995 41.9448 43.0995C42.8024 43.0068 46.7058 43.0433 51.875 41.2891C52.2966 41.1464 52.5167 40.7054 52.3663 40.3035C52.2159 39.9027 51.7531 39.6897 51.3304 39.8363Z" fill="black"/>
<path d="M66.2771 48.4984C66.5115 47.8252 67.2551 30.2458 59.6922 5.4745C59.5791 5.10342 59.2222 4.89306 58.8494 4.92273C58.6402 4.90042 59.4104 4.84734 54.0103 5.26913C53.9878 5.12534 53.9751 4.97972 53.9432 4.83791C53.3841 2.35983 51.33 0.418547 48.9485 0.11601C46.4032 -0.208588 43.8159 1.42701 43.0568 3.83785C42.8663 4.44424 42.7183 5.34056 42.7915 6.20773C41.0517 6.36373 39.3123 6.5213 37.5722 6.69174C37.5603 6.63055 37.5572 6.56778 37.5435 6.50712C36.9845 4.03009 34.9304 2.08881 32.5483 1.78627C29.9994 1.46482 27.4147 3.09937 26.6566 5.50811C26.4633 6.12435 26.3152 7.03984 26.3977 7.92159C24.1824 8.19156 21.982 8.48202 19.7933 8.79007C19.2117 6.34561 17.1786 4.43584 14.8195 4.13724C12.279 3.81789 9.68582 5.44929 8.92725 7.85803C8.71155 8.54531 8.56882 9.60051 8.72372 10.5696C3.67405 11.491 3.60986 11.4795 3.39021 11.8664C2.5786 12.8176 1.68283 16.6521 1.578 17.2708C-0.00103672 26.5926 -0.00838294 34.187 0.00123867 44.1893C0.00299707 46.0712 0.241428 47.7102 2.10745 48.1659C6.86996 49.3278 13.0287 54.6251 13.3308 55.4373C13.5128 55.9266 14.2487 56.4872 15.366 56.44C19.1474 58.191 12.165 55.6354 64.8552 51.557C65.8856 51.4773 67.3691 51.6364 68.2649 51.0411C68.8138 50.6764 69.286 50.0253 68.7926 49.4092C68.2631 48.7482 67.118 48.6023 66.2771 48.4984ZM44.5997 4.32107C45.1224 2.66027 46.987 1.49214 48.7442 1.71694C50.4367 1.93124 51.9596 3.3935 52.3649 5.19297C52.3798 5.25875 52.3836 5.32756 52.3956 5.39413C49.7426 5.60462 47.0778 5.82549 44.4058 6.05948C44.363 5.51927 44.429 4.86456 44.5997 4.32107ZM28.2001 5.99133C28.7212 4.33158 30.5832 3.15924 32.3441 3.3872C34.0359 3.60136 35.5575 5.06166 35.9642 6.8585C33.3026 7.12677 30.6502 7.41867 28.0062 7.73027C27.9633 7.1894 28.0293 6.53443 28.2001 5.99133ZM10.4702 8.34125C10.9924 6.68255 12.8486 5.50286 14.6158 5.73817C16.2434 5.94432 17.7041 7.30837 18.1744 9.01342C15.5229 9.40053 12.8953 9.81638 10.3038 10.2715C10.2229 9.69952 10.2781 8.95342 10.4702 8.34125ZM4.75029 13.3476C5.99545 17.3353 10.0103 25.9285 11.964 43.7408C8.92238 43.8282 5.94461 44.3187 3.04705 45.2201C2.73567 33.1982 3.24373 23.7452 4.75029 13.3476ZM3.34092 46.8142C6.1942 45.9063 9.14288 45.4179 12.128 45.3472C12.6349 50.4992 12.5513 51.0455 12.7018 52.4776C6.57199 47.498 6.06161 47.5212 3.34092 46.8142ZM16.2475 54.7225C15.1518 52.5818 16.5814 40.5396 10.0502 22.6105C25.6562 19.849 42.0979 18.3992 57.7808 16.6894C58.2245 16.6411 58.5451 16.2429 58.4967 15.8007C58.4478 15.3563 58.0487 15.0149 57.605 15.0864C41.6838 16.8183 25.1495 18.2796 9.47756 21.0709C8.56804 18.7059 11.4356 26.0407 6.22795 12.6817C10.1836 11.9087 14.2263 11.2203 18.3445 10.6184C18.2919 11.5682 17.9928 12.5345 17.4888 13.3967C16.8595 13.3709 16.2089 13.6733 15.9477 14.2498L16.0312 14.1168C15.5602 14.1407 15.1779 14.5817 15.1295 15.0499C15.0811 15.5179 15.3139 15.9824 15.6527 16.3096C16.3725 17.0045 17.6286 17.0896 18.3876 16.4377C18.9859 15.9239 19.1488 14.9966 18.834 14.2933C19.5596 13.0936 19.9541 11.7369 19.9655 10.3949C25.2596 9.64883 30.6411 9.01802 36.0514 8.4719C35.9635 9.42981 35.6321 10.3923 35.093 11.2421C34.5171 11.27 33.952 11.5611 33.7133 12.0882L33.7967 11.9552C33.3257 11.9791 32.9434 12.4201 32.895 12.8881C32.8467 13.3562 33.0794 13.8208 33.4183 14.1479C34.1381 14.8429 35.3941 14.928 36.1532 14.2759C36.7913 13.7278 36.9357 12.7083 36.5304 11.9938C37.2288 10.8582 37.638 9.57871 37.6955 8.30159C42.6161 7.81943 47.5443 7.39792 52.4288 7.01029C52.337 7.72633 52.1128 8.4396 51.767 9.10285C51.0754 8.98572 50.2976 9.28195 50.0056 9.92642L50.089 9.7934C49.618 9.8173 49.2357 10.2584 49.1873 10.7265C49.139 11.1945 49.3717 11.6591 49.7106 11.9863C50.4303 12.6812 51.6864 12.7664 52.4454 12.1143C52.9699 11.6639 53.1568 10.8955 52.9851 10.2381C53.6062 9.19949 53.9773 8.04462 54.0701 6.88319C55.4922 6.7721 56.9149 6.66075 58.3266 6.5536C62.8614 21.5706 64.8468 34.2663 64.7195 47.5062C46.8072 49.3499 29.8733 52.5862 16.2475 54.7225Z" fill="black"/>
</svg>
