<svg width="25" height="25" viewBox="0 0 25 25" fill="none" xmlns="http://www.w3.org/2000/svg">
<g clip-path="url(#clip0_1136_2916)">
<circle cx="12.5" cy="12.5" r="12" fill="#FFE300"/>
<path d="M16.1657 5.46906C14.6151 4.67358 12.8652 4.36608 11.1876 4.55308C8.53154 4.58595 5.94198 6.10531 4.59342 8.39996C1.17257 14.2208 6.10405 22.8542 14.8519 20.3816C16.2346 19.9909 18.2486 18.6382 19.3307 16.5341C19.2944 16.6114 19.2269 16.7039 19.1384 16.8056C21.7749 12.8045 20.4756 7.68069 16.1657 5.46906ZM17.4418 18.0923C15.4029 19.8299 12.44 20.3673 9.89356 19.4604C7.38269 18.567 5.39631 16.2902 4.83237 13.6602C4.18567 10.6473 5.80173 6.95937 9.00149 5.56781C13.3598 3.67233 18.8882 6.11479 19.911 10.8575C20.4705 13.4498 19.4783 16.3571 17.4418 18.0923Z" fill="black"/>
<path d="M17.3903 12.4825H13.2515C13.0879 11.7255 12.1501 11.4651 11.5868 11.9327L7.90286 8.24849C7.81894 8.16457 7.68299 8.16457 7.59907 8.24849C7.51515 8.33241 7.51515 8.46836 7.59907 8.55228L11.3292 12.2826C10.914 13.3188 12.2904 14.2362 13.0429 13.3231C13.1443 13.2 13.2113 13.0584 13.2477 12.9122H17.3903C17.5089 12.9122 17.6051 12.816 17.6051 12.6973C17.6051 12.5787 17.5089 12.4825 17.3903 12.4825ZM12.3176 13.2666C12.007 13.287 11.7068 13.0106 11.689 12.7094C11.6429 11.9404 12.7636 11.949 12.8471 12.6305C12.8832 12.9284 12.621 13.245 12.3176 13.2666Z" fill="black"/>
</g>
<defs>
<clipPath id="clip0_1136_2916">
<rect width="24" height="24" fill="white" transform="translate(0.5 0.5)"/>
</clipPath>
</defs>
</svg>
