<svg width="32" height="32" viewBox="0 0 32 32" fill="none" xmlns="http://www.w3.org/2000/svg">
<circle cx="16" cy="16" r="15.5" fill="#FFE300" stroke="black"/>
<path d="M25.3092 7.28583C25.2569 6.97418 25.1318 6.67927 24.9441 6.42505C24.7564 6.17083 24.5114 5.96446 24.2289 5.8227C21.6294 4.34495 19.2567 6.65669 19.0568 6.86152C18.534 7.33651 18.0367 7.83873 17.5668 8.36611C15.8599 10.2413 12.7288 14.1796 11.0364 19.4859V19.5054C10.7387 20.8554 10.5777 22.232 10.556 23.6143C10.556 23.7387 10.556 23.8582 10.5682 23.9679C10.5681 24.5997 10.7159 25.2227 10.9998 25.7871C9.78056 25.909 8.92951 25.7359 8.50765 25.2628C7.99799 24.6946 7.98092 23.6168 8.45887 21.9659C8.56619 21.6121 8.64769 21.2511 8.70273 20.8856C8.81246 20.0638 8.68078 19.5176 8.29549 19.203C8.07431 19.0319 7.80209 18.94 7.52247 18.9421C6.8031 18.9201 5.75209 19.3054 4.18898 20.137C3.79394 20.3394 3.58179 20.3394 3.50863 20.2906C3.04774 19.8516 3.80613 17.0132 4.82788 14.5234L4.9303 14.2796C4.95349 14.2347 4.96711 14.1854 4.97031 14.135C4.97351 14.0845 4.96622 14.034 4.94889 13.9865C4.93157 13.939 4.90459 13.8956 4.86966 13.8591C4.83473 13.8225 4.79261 13.7936 4.74594 13.7742C4.69928 13.7547 4.6491 13.7452 4.59856 13.7461C4.54801 13.747 4.49821 13.7584 4.4523 13.7795C4.40638 13.8007 4.36534 13.8311 4.33177 13.8689C4.2982 13.9067 4.27283 13.951 4.25726 13.9991C3.68908 15.3428 1.9187 19.8175 3.02092 20.8271C3.36476 21.1416 3.86953 21.127 4.52063 20.7807C6.79091 19.5615 7.56881 19.5615 7.82241 19.7687C7.94678 19.8687 8.18332 20.2564 7.7517 21.761C7.19083 23.7119 7.26399 24.9653 7.95653 25.748C8.44424 26.2894 9.20995 26.5576 10.2878 26.5576C10.8055 26.5522 11.3219 26.5032 11.8314 26.4113H11.8753C12.4142 26.4113 13.1409 25.8944 14.1456 24.8068C15.0842 23.765 15.9619 22.6699 16.7743 21.5269L16.7889 21.5025C16.8255 21.4416 20.3638 15.4476 22.6219 12.2093C22.6219 12.2093 22.6219 12.1922 22.6366 12.1849C23.049 11.5591 23.5105 10.9671 24.0168 10.4145C24.0924 10.3413 25.536 8.7392 25.3092 7.28583ZM17.9521 9.03914C18.6313 9.27344 19.2772 9.59475 19.8737 9.99505C17.4961 13.0603 15.2868 16.3084 13.8042 19.8955C13.6527 19.6906 13.4557 19.5237 13.2287 19.4078C13.336 19.164 13.5018 18.8153 13.7164 18.3836C14.3678 17.0259 15.1126 15.7149 15.9452 14.46C16.15 14.1552 16.3622 13.8626 16.5768 13.587C16.5884 13.5748 16.5973 13.5602 16.603 13.5443C16.6086 13.5284 16.6109 13.5115 16.6097 13.4946C16.6085 13.4778 16.6038 13.4614 16.596 13.4465C16.5881 13.4315 16.5772 13.4184 16.564 13.4079C16.5508 13.3974 16.5355 13.3897 16.5192 13.3854C16.5029 13.3811 16.4858 13.3803 16.4691 13.3829C16.4525 13.3855 16.4365 13.3916 16.4223 13.4007C16.4081 13.4098 16.3959 13.4218 16.3866 13.4358C14.8162 15.433 13.4457 18.3398 13.019 19.3079C12.7349 19.2029 12.4341 19.1509 12.1313 19.1542H11.9314C13.5506 14.421 16.3159 10.8632 17.9521 9.03914ZM11.8558 25.6822C11.6631 25.5603 11.351 25.1701 11.2876 23.946C11.4999 23.9394 11.7123 23.9542 11.9216 23.9899C12.4372 24.0702 12.9248 24.2771 13.3408 24.5922C12.2118 25.7627 11.868 25.6822 11.8655 25.6822H11.8558ZM13.8432 24.0533C13.1346 23.5023 12.2607 23.2067 11.3632 23.2144H11.2803C11.3274 22.1074 11.4619 21.0058 11.6826 19.9199C12.5166 19.7346 13.3603 20.1199 13.4408 21.088C13.4993 21.7586 13.9797 21.1855 14.7698 21.088C15.1868 21.0221 15.7257 20.949 16.033 21.2977C15.7013 21.7537 14.7918 22.9998 13.8529 24.0533H13.8432ZM16.4329 20.6588C16.1118 20.4056 15.7098 20.2773 15.3014 20.2979C14.9894 20.3016 14.6791 20.3434 14.3772 20.4223C14.8649 19.1323 16.4232 15.5866 20.3712 10.5388L20.4541 10.4291C21.0026 10.8713 21.4861 11.3884 21.8904 11.9654C20.0029 14.7112 17.3059 19.203 16.4329 20.6588ZM22.3439 11.3338C21.8486 10.6891 21.2678 10.1148 20.6175 9.62683C19.9642 9.14329 19.249 8.74961 18.491 8.45633C18.9178 8.0052 19.2446 7.69307 19.4153 7.53456C21.3661 7.97838 22.7561 9.46833 23.2852 10.1267C22.9506 10.5124 22.6364 10.9153 22.3439 11.3338ZM23.7705 9.56343C23.1906 8.86203 22.5082 8.25204 21.7465 7.75403L21.649 7.69063C21.5465 7.62723 21.4441 7.56626 21.3368 7.5053C20.9353 7.28153 20.5131 7.09698 20.0761 6.95419C20.3411 6.75485 20.6254 6.58248 20.9247 6.43966C21.9635 5.95195 22.9536 5.95195 23.8656 6.47623C24.0532 6.56087 24.2177 6.68951 24.3451 6.85125C24.4724 7.01299 24.5589 7.20305 24.5972 7.40532C24.6996 8.12225 24.1704 9.02695 23.7705 9.56343Z" fill="black"/>
<path d="M13.336 17.1499C13.352 17.1533 13.3687 17.1533 13.3847 17.1499C13.4085 17.15 13.4318 17.1431 13.4518 17.1301C13.4717 17.1171 13.4874 17.0985 13.4969 17.0767C13.5871 16.8621 13.6847 16.6475 13.7871 16.433C13.794 16.4184 13.7979 16.4026 13.7987 16.3865C13.7995 16.3704 13.7971 16.3543 13.7917 16.3391C13.7862 16.324 13.7779 16.31 13.767 16.2981C13.7562 16.2861 13.7431 16.2765 13.7286 16.2696C13.714 16.2627 13.6982 16.2587 13.6821 16.258C13.666 16.2572 13.6499 16.2596 13.6348 16.265C13.6196 16.2704 13.6056 16.2788 13.5937 16.2896C13.5818 16.3005 13.5721 16.3135 13.5652 16.3281C13.4628 16.5476 13.3652 16.7646 13.2726 16.9816C13.2645 16.9966 13.2598 17.0132 13.2587 17.0302C13.2576 17.0472 13.2601 17.0642 13.2661 17.0801C13.2721 17.0961 13.2814 17.1105 13.2935 17.1226C13.3055 17.1346 13.32 17.1439 13.336 17.1499Z" fill="black"/>
<path d="M13.9944 15.7269C14.0115 15.7366 14.0308 15.7416 14.0505 15.7415C14.073 15.7415 14.0951 15.7354 14.1145 15.7238C14.1338 15.7122 14.1496 15.6955 14.1602 15.6756C15.0101 14.0968 15.9759 12.5831 17.0499 11.1473C17.0595 11.1345 17.0665 11.1199 17.0705 11.1044C17.0744 11.0889 17.0753 11.0727 17.073 11.0569C17.0708 11.041 17.0654 11.0258 17.0573 11.012C17.0491 10.9982 17.0383 10.9862 17.0255 10.9766C16.9994 10.9578 16.9671 10.9498 16.9352 10.9544C16.9034 10.9589 16.8746 10.9756 16.8548 11.001C15.7775 12.449 14.8076 13.9739 13.9529 15.5635C13.9375 15.5908 13.9332 15.623 13.9409 15.6535C13.9486 15.6839 13.9678 15.7102 13.9944 15.7269Z" fill="black"/>
<path d="M23.2974 6.46044C23.1916 6.41884 23.0822 6.387 22.9706 6.36534C22.939 6.35951 22.9063 6.36617 22.8795 6.3839C22.8527 6.40163 22.8338 6.42906 22.8267 6.46044C22.8235 6.47613 22.8235 6.4923 22.8265 6.50803C22.8295 6.52375 22.8357 6.53872 22.8445 6.55208C22.8533 6.56544 22.8647 6.57693 22.878 6.58589C22.8912 6.59486 22.9062 6.60112 22.9219 6.60432C23.0204 6.62291 23.1174 6.649 23.212 6.68235C23.2258 6.68467 23.2398 6.68467 23.2535 6.68235C23.2858 6.68817 23.3192 6.68091 23.3461 6.66216C23.3731 6.64341 23.3915 6.61471 23.3974 6.58237C23.4032 6.55003 23.3959 6.51671 23.3772 6.48972C23.3584 6.46274 23.3297 6.44431 23.2974 6.43849V6.46044Z" fill="black"/>
<path d="M22.3293 6.33608C21.8282 6.39152 21.348 6.56721 20.9295 6.84817C20.9038 6.8676 20.8866 6.89626 20.8816 6.9281C20.8766 6.95994 20.8842 6.99249 20.9027 7.01887C20.9135 7.03475 20.9281 7.04774 20.9451 7.05667C20.9621 7.0656 20.981 7.0702 21.0003 7.07008C21.0255 7.07027 21.0502 7.0626 21.071 7.04813C21.4546 6.79279 21.8934 6.63231 22.3512 6.57993C22.3833 6.57683 22.413 6.56136 22.4339 6.53679C22.4549 6.51221 22.4654 6.48046 22.4634 6.44825C22.4591 6.41615 22.443 6.38681 22.4182 6.36604C22.3933 6.34527 22.3616 6.33458 22.3293 6.33608Z" fill="black"/>
</svg>