<svg width="24" height="24" viewBox="0 0 24 24" fill="none" xmlns="http://www.w3.org/2000/svg">
<g clip-path="url(#clip0_1136_1137)">
<circle cx="12" cy="12" r="12" fill="#FFE300"/>
<path d="M10.0208 11.0496L9.76969 10.8264L9.76964 10.8384C9.67185 10.7832 9.7514 10.8217 8.00138 10.8094C7.88794 10.8094 7.7959 10.9015 7.7959 11.0149V14.7951C7.7959 14.9086 7.88794 15.0006 8.00138 15.0006C9.73262 14.9945 9.67859 15.0151 9.75148 14.9839L10.0394 14.8538L10.0208 11.0496ZM9.46515 14.5896H8.20686V11.2204H9.46515V14.5896Z" fill="black"/>
<path d="M12.6529 9.09672L12.4204 8.9386L12.4203 8.94355C12.3473 8.91235 12.4099 8.93303 10.6706 8.92703C10.5571 8.92703 10.4651 9.01907 10.4651 9.13251V14.7955C10.4651 14.9089 10.5571 15.001 10.6706 15.001C12.365 14.9767 12.3767 15.0546 12.4886 14.9356L12.718 14.8356L12.6529 9.09672ZM12.1343 14.59H10.876V9.33799H12.1343V14.59Z" fill="black"/>
<path d="M15.341 7.35647C15.3142 7.32887 14.9886 6.99403 15.0154 7.02163L15.0154 7.02818C14.9096 6.96013 14.9742 7.0075 13.2372 6.99253C13.1238 6.99253 13.0317 7.08457 13.0317 7.19801V14.7946C13.0317 14.908 13.1238 15.0001 13.2372 15.0001C14.9363 14.9761 14.9429 15.0529 15.0546 14.9357L15.3626 14.7925L15.341 7.35647ZM14.701 14.5891H13.4427V7.40349H14.701V14.5891Z" fill="black"/>
<path d="M13.1492 20.4547C17.6262 19.7751 20.6845 16.0474 20.5218 11.7936C20.2258 4.05379 12.0783 0.666821 6.71873 4.73233C6.27734 4.88858 5.84834 5.37733 5.54314 5.68371C1.9769 9.26405 2.2796 14.8602 5.71107 18.1239C7.66046 19.978 10.4893 20.8584 13.1492 20.4547ZM8.04916 6.5566C8.05672 6.56415 8.0664 6.5675 8.07477 6.57362C5.30651 8.69295 4.86256 12.4953 6.76905 15.1668C6.71584 15.2098 5.97094 15.961 5.42601 16.504C2.80227 13.1108 3.23083 8.10228 6.73395 5.24115C7.32323 5.83053 8.0995 6.60694 8.04916 6.5566ZM19.9303 12.551L18.1063 11.8837C18.1956 10.2088 17.6502 8.72765 16.6985 7.57359L18.0262 6.2457C19.5107 7.96662 20.2165 10.2173 19.9303 12.551ZM18.0726 12.309C19.9793 13.0012 19.7974 12.9491 19.87 12.9577C18.6919 19.7187 10.1541 22.036 5.68684 16.8243L7.01399 15.4971C10.4918 19.7522 17.4093 17.7871 18.0726 12.309ZM15.9754 15.7039C13.6797 17.9728 9.97889 17.9537 7.70723 15.6555C6.60947 14.5449 6.00989 13.0731 6.01898 11.5114C6.0374 8.34996 8.57761 5.69909 11.8998 5.69909C13.4612 5.70819 14.926 6.3249 16.0238 7.43577C18.3471 9.7868 18.2076 13.4975 15.9754 15.7039ZM17.7498 5.94096L16.4238 7.26714C14.2333 4.93607 10.8189 4.71023 8.38685 6.34413C8.35591 6.25509 8.3996 6.33856 7.06085 4.98714C10.2557 2.6364 14.8541 2.90114 17.7498 5.94096Z" fill="black"/>
</g>
<defs>
<clipPath id="clip0_1136_1137">
<rect width="24" height="24" fill="white"/>
</clipPath>
</defs>
</svg>
