<svg width="144" height="144" viewBox="0 0 144 144" fill="none" xmlns="http://www.w3.org/2000/svg">
<path d="M73.6328 65.2046C82.5373 63.0997 88.0497 54.1757 85.945 45.2722C83.8404 36.3687 74.9158 30.8574 66.0112 32.9622C57.1067 35.0671 51.5943 43.9911 53.6989 52.8946C55.8036 61.7981 64.7282 67.3095 73.6328 65.2046Z" fill="black"/>
<path d="M49.0284 127.401C52.7076 128.817 57.0894 129.422 60.8767 130.081C68.3169 131.374 75.844 131.308 82.9128 128.65C84.8137 127.935 87.027 127.06 89.5983 125.988C89.5983 125.988 91.7621 124.746 93.9734 123.661C113.013 114.319 125.759 94.6532 126.849 74.7983C129.015 35.7246 92.6466 8.89005 57.6087 15.3297C8.94306 19.3793 -3.09751 76.8859 14.788 103.218C21.9653 113.785 35.2305 123.942 49.0284 127.401ZM102.412 114.953C80.1238 132.495 50.8735 128.055 32.834 112.517C31.0294 92.1075 47.2178 74.4119 67.7696 74.4119C89.5335 74.4119 105.826 94.0769 102.412 114.953ZM25.3945 38.5523C57.3492 -3.77052 126.91 21.6357 123.972 74.6398C123.911 74.8608 123.728 95.6314 105.604 112.234C107.193 89.9503 89.51 71.5308 67.7696 71.5308C46.8714 71.5308 29.7007 88.5618 29.8246 109.72C10.788 90.7028 10.0124 58.9277 25.3945 38.5523Z" fill="black"/>
<circle cx="120" cy="113" r="15.5" fill="#FFE300" stroke="black"/>
<path d="M129.309 104.286C129.257 103.974 129.132 103.679 128.944 103.425C128.756 103.171 128.511 102.964 128.229 102.823C125.629 101.345 123.257 103.657 123.057 103.862C122.534 104.337 122.037 104.839 121.567 105.366C119.86 107.241 116.729 111.18 115.036 116.486V116.505C114.739 117.855 114.578 119.232 114.556 120.614C114.556 120.739 114.556 120.858 114.568 120.968C114.568 121.6 114.716 122.223 115 122.787C113.78 122.909 112.929 122.736 112.507 122.263C111.998 121.695 111.981 120.617 112.459 118.966C112.566 118.612 112.648 118.251 112.703 117.886C112.812 117.064 112.681 116.518 112.295 116.203C112.074 116.032 111.802 115.94 111.522 115.942C110.803 115.92 109.752 116.305 108.189 117.137C107.794 117.339 107.582 117.339 107.508 117.291C107.048 116.852 107.806 114.013 108.828 111.523L108.93 111.28C108.953 111.235 108.967 111.185 108.97 111.135C108.973 111.085 108.966 111.034 108.949 110.986C108.931 110.939 108.904 110.896 108.869 110.859C108.835 110.823 108.792 110.794 108.746 110.774C108.699 110.755 108.649 110.745 108.598 110.746C108.548 110.747 108.498 110.758 108.452 110.78C108.406 110.801 108.365 110.831 108.332 110.869C108.298 110.907 108.273 110.951 108.257 110.999C107.689 112.343 105.919 116.818 107.021 117.827C107.365 118.142 107.869 118.127 108.52 117.781C110.791 116.561 111.569 116.561 111.822 116.769C111.947 116.869 112.183 117.256 111.752 118.761C111.191 120.712 111.264 121.965 111.956 122.748C112.444 123.289 113.21 123.558 114.288 123.558C114.805 123.552 115.322 123.503 115.831 123.411H115.875C116.414 123.411 117.141 122.894 118.145 121.807C119.084 120.765 119.962 119.67 120.774 118.527L120.789 118.503C120.825 118.442 124.364 112.448 126.622 109.209C126.622 109.209 126.622 109.192 126.636 109.185C127.049 108.559 127.51 107.967 128.017 107.414C128.092 107.341 129.536 105.739 129.309 104.286ZM121.952 106.039C122.631 106.273 123.277 106.595 123.874 106.995C121.496 110.06 119.287 113.308 117.804 116.896C117.652 116.691 117.455 116.524 117.228 116.408C117.336 116.164 117.502 115.815 117.716 115.384C118.368 114.026 119.112 112.715 119.945 111.46C120.15 111.155 120.362 110.863 120.577 110.587C120.588 110.575 120.597 110.56 120.603 110.544C120.608 110.528 120.611 110.511 120.61 110.495C120.608 110.478 120.604 110.461 120.596 110.446C120.588 110.432 120.577 110.418 120.564 110.408C120.551 110.397 120.535 110.39 120.519 110.385C120.503 110.381 120.486 110.38 120.469 110.383C120.452 110.386 120.436 110.392 120.422 110.401C120.408 110.41 120.396 110.422 120.386 110.436C118.816 112.433 117.446 115.34 117.019 116.308C116.735 116.203 116.434 116.151 116.131 116.154H115.931C117.55 111.421 120.316 107.863 121.952 106.039ZM115.856 122.682C115.663 122.56 115.351 122.17 115.287 120.946C115.5 120.939 115.712 120.954 115.921 120.99C116.437 121.07 116.925 121.277 117.341 121.592C116.212 122.763 115.868 122.682 115.865 122.682H115.856ZM117.843 121.053C117.134 120.502 116.261 120.207 115.363 120.214H115.28C115.327 119.107 115.462 118.006 115.682 116.92C116.516 116.735 117.36 117.12 117.441 118.088C117.499 118.759 117.98 118.186 118.77 118.088C119.187 118.022 119.726 117.949 120.033 118.298C119.701 118.754 118.792 120 117.853 121.053H117.843ZM120.433 117.659C120.112 117.406 119.71 117.277 119.301 117.298C118.989 117.302 118.679 117.343 118.377 117.422C118.865 116.132 120.423 112.587 124.371 107.539L124.454 107.429C125.002 107.871 125.486 108.388 125.89 108.965C124.003 111.711 121.306 116.203 120.433 117.659ZM126.344 108.334C125.848 107.689 125.268 107.115 124.617 106.627C123.964 106.143 123.249 105.75 122.491 105.456C122.918 105.005 123.244 104.693 123.415 104.535C125.366 104.978 126.756 106.468 127.285 107.127C126.95 107.512 126.636 107.915 126.344 108.334ZM127.77 106.563C127.19 105.862 126.508 105.252 125.746 104.754L125.649 104.691C125.546 104.627 125.444 104.566 125.337 104.505C124.935 104.282 124.513 104.097 124.076 103.954C124.341 103.755 124.625 103.582 124.925 103.44C125.963 102.952 126.953 102.952 127.865 103.476C128.053 103.561 128.218 103.69 128.345 103.851C128.472 104.013 128.559 104.203 128.597 104.405C128.699 105.122 128.17 106.027 127.77 106.563Z" fill="black"/>
<path d="M117.336 114.15C117.352 114.153 117.369 114.153 117.385 114.15C117.408 114.15 117.432 114.143 117.452 114.13C117.472 114.117 117.487 114.099 117.497 114.077C117.587 113.862 117.685 113.648 117.787 113.433C117.794 113.418 117.798 113.403 117.799 113.387C117.799 113.37 117.797 113.354 117.792 113.339C117.786 113.324 117.778 113.31 117.767 113.298C117.756 113.286 117.743 113.276 117.728 113.27C117.714 113.263 117.698 113.259 117.682 113.258C117.666 113.257 117.65 113.26 117.635 113.265C117.619 113.27 117.606 113.279 117.594 113.29C117.582 113.3 117.572 113.314 117.565 113.328C117.463 113.548 117.365 113.765 117.272 113.982C117.264 113.997 117.26 114.013 117.259 114.03C117.257 114.047 117.26 114.064 117.266 114.08C117.272 114.096 117.281 114.111 117.293 114.123C117.305 114.135 117.32 114.144 117.336 114.15Z" fill="black"/>
<path d="M117.994 112.727C118.011 112.737 118.031 112.742 118.05 112.741C118.073 112.741 118.095 112.735 118.114 112.724C118.134 112.712 118.149 112.696 118.16 112.676C119.01 111.097 119.976 109.583 121.05 108.147C121.059 108.134 121.066 108.12 121.07 108.104C121.074 108.089 121.075 108.073 121.073 108.057C121.071 108.041 121.065 108.026 121.057 108.012C121.049 107.998 121.038 107.986 121.025 107.977C120.999 107.958 120.967 107.95 120.935 107.954C120.903 107.959 120.874 107.976 120.855 108.001C119.777 109.449 118.807 110.974 117.953 112.563C117.937 112.591 117.933 112.623 117.941 112.653C117.948 112.684 117.968 112.71 117.994 112.727Z" fill="black"/>
<path d="M127.297 103.46C127.192 103.419 127.082 103.387 126.971 103.365C126.939 103.36 126.906 103.366 126.879 103.384C126.853 103.402 126.834 103.429 126.827 103.46C126.823 103.476 126.823 103.492 126.826 103.508C126.829 103.524 126.836 103.539 126.844 103.552C126.853 103.565 126.865 103.577 126.878 103.586C126.891 103.595 126.906 103.601 126.922 103.604C127.02 103.623 127.117 103.649 127.212 103.682C127.226 103.685 127.24 103.685 127.253 103.682C127.286 103.688 127.319 103.681 127.346 103.662C127.373 103.643 127.391 103.615 127.397 103.582C127.403 103.55 127.396 103.517 127.377 103.49C127.358 103.463 127.33 103.444 127.297 103.438V103.46Z" fill="black"/>
<path d="M126.329 103.336C125.828 103.392 125.348 103.567 124.929 103.848C124.904 103.868 124.886 103.896 124.881 103.928C124.876 103.96 124.884 103.992 124.902 104.019C124.913 104.035 124.928 104.048 124.945 104.057C124.962 104.066 124.981 104.07 125 104.07C125.025 104.07 125.05 104.063 125.071 104.048C125.454 103.793 125.893 103.632 126.351 103.58C126.383 103.577 126.413 103.561 126.434 103.537C126.455 103.512 126.465 103.48 126.463 103.448C126.459 103.416 126.443 103.387 126.418 103.366C126.393 103.345 126.361 103.335 126.329 103.336Z" fill="black"/>
</svg>
