<svg width="25" height="24" viewBox="0 0 25 24" fill="none" xmlns="http://www.w3.org/2000/svg">
<path d="M14.75 9.1875H12.5C12.1895 9.1875 11.9375 8.93587 11.9375 8.625C11.9375 8.31413 12.1895 8.0625 12.5 8.0625H14.75C15.0605 8.0625 15.3125 8.31413 15.3125 8.625C15.3125 8.93587 15.0605 9.1875 14.75 9.1875Z" fill="white"/>
<path d="M4.25 16.6875C3.9395 16.6875 3.6875 16.4359 3.6875 16.125V7.875C3.6875 7.56413 3.9395 7.3125 4.25 7.3125C4.5605 7.3125 4.8125 7.56413 4.8125 7.875V16.125C4.8125 16.4359 4.5605 16.6875 4.25 16.6875Z" fill="white"/>
<path d="M17 16.6875C16.6895 16.6875 16.4375 16.4359 16.4375 16.125V7.875C16.4375 7.56413 16.6895 7.3125 17 7.3125C17.3105 7.3125 17.5625 7.56413 17.5625 7.875V16.125C17.5625 16.4359 17.3105 16.6875 17 16.6875Z" fill="white"/>
<path d="M15.5 18.1875H5.75C5.4395 18.1875 5.1875 17.9359 5.1875 17.625C5.1875 17.3141 5.4395 17.0625 5.75 17.0625H15.5C15.8105 17.0625 16.0625 17.3141 16.0625 17.625C16.0625 17.9359 15.8105 18.1875 15.5 18.1875Z" fill="white"/>
<path d="M15.5 18.1875C15.1895 18.1875 14.9375 17.9359 14.9375 17.625C14.9375 17.3141 15.1895 17.0625 15.5 17.0625C16.0171 17.0625 16.4375 16.6417 16.4375 16.125C16.4375 15.8141 16.6895 15.5625 17 15.5625C17.3105 15.5625 17.5625 15.8141 17.5625 16.125C17.5625 17.2624 16.637 18.1875 15.5 18.1875Z" fill="white"/>
<path d="M5.75 18.1875C4.613 18.1875 3.6875 17.2624 3.6875 16.125C3.6875 15.8141 3.9395 15.5625 4.25 15.5625C4.5605 15.5625 4.8125 15.8141 4.8125 16.125C4.8125 16.6417 5.23287 17.0625 5.75 17.0625C6.0605 17.0625 6.3125 17.3141 6.3125 17.625C6.3125 17.9359 6.0605 18.1875 5.75 18.1875Z" fill="white"/>
<path d="M15.5 6.9375H5.75C5.4395 6.9375 5.1875 6.68587 5.1875 6.375C5.1875 6.06413 5.4395 5.8125 5.75 5.8125H15.5C15.8105 5.8125 16.0625 6.06413 16.0625 6.375C16.0625 6.68587 15.8105 6.9375 15.5 6.9375Z" fill="white"/>
<path d="M17 8.4375C16.6895 8.4375 16.4375 8.18587 16.4375 7.875C16.4375 7.35825 16.0171 6.9375 15.5 6.9375C15.1895 6.9375 14.9375 6.68587 14.9375 6.375C14.9375 6.06413 15.1895 5.8125 15.5 5.8125C16.637 5.8125 17.5625 6.73763 17.5625 7.875C17.5625 8.18587 17.3105 8.4375 17 8.4375Z" fill="white"/>
<path d="M4.25 8.4375C3.9395 8.4375 3.6875 8.18587 3.6875 7.875C3.6875 6.73763 4.613 5.8125 5.75 5.8125C6.0605 5.8125 6.3125 6.06413 6.3125 6.375C6.3125 6.68587 6.0605 6.9375 5.75 6.9375C5.23287 6.9375 4.8125 7.35825 4.8125 7.875C4.8125 8.18587 4.5605 8.4375 4.25 8.4375Z" fill="white"/>
<path d="M20.75 17.1611C20.4395 17.1611 20.1875 16.9095 20.1875 16.5986V7.40137C20.1875 7.09049 20.4395 6.83887 20.75 6.83887C21.0605 6.83887 21.3125 7.09049 21.3125 7.40137V16.5982C21.3125 16.9091 21.0605 17.1611 20.75 17.1611Z" fill="white"/>
<path d="M20.7495 17.1614C20.6385 17.1614 20.5267 17.1288 20.4292 17.0609L16.6792 14.4584C16.4239 14.281 16.3605 13.9308 16.5379 13.6754C16.7152 13.42 17.0659 13.357 17.3209 13.534L21.0709 16.1365C21.3262 16.3139 21.3896 16.6642 21.2122 16.9195C21.1027 17.077 20.9276 17.1614 20.7495 17.1614Z" fill="white"/>
<path d="M17.0002 10.5673C16.8221 10.5673 16.6474 10.4829 16.5379 10.3254C16.3605 10.07 16.4239 9.71978 16.6792 9.54241L20.4292 6.93991C20.6846 6.76328 21.0349 6.82666 21.2122 7.08128C21.3896 7.33666 21.3262 7.68691 21.0709 7.86428L17.3209 10.4668C17.223 10.5347 17.1109 10.5673 17.0002 10.5673Z" fill="white"/>
</svg>
