<svg width="24" height="24" viewBox="0 0 24 24" fill="none" xmlns="http://www.w3.org/2000/svg">
<path d="M23.5164 11.4342L14.2416 2.15975C14.0421 1.95981 13.6884 1.92568 13.4557 2.18394C12.9705 2.4169 12.4853 2.64994 12 2.88291C11.7522 4.28755 11.66 5.84507 11.6866 7.28311H1.56018C1.29743 7.28311 0.125923 8.317 0.0529016 8.37862C-0.0638894 10.0017 0.0275757 11.7059 0.182469 13.3258C0.468658 13.7069 0.790683 14.0154 1.22227 14.2175C1.22183 14.1978 1.22073 14.1788 1.22029 14.1591C1.5191 14.4034 1.09298 14.2313 11.7112 14.3988C11.5623 16.326 11.5607 18.2635 11.6578 20.1943C12.2197 20.4396 12.7368 20.787 13.1764 21.2143C13.1777 21.1991 13.1786 21.1848 13.1799 21.1695C13.4072 21.4233 13.7517 21.3977 13.9552 21.2061L23.5046 12.2163C23.7287 12.0056 23.7336 11.6514 23.5164 11.4342ZM14.1266 19.5475V13.8741C14.1266 13.5754 13.886 13.3323 13.5876 13.3291L2.10524 13.2042V8.37323H13.8562C14.1571 8.37323 14.4013 8.12913 14.4013 7.82822V3.86095L22.3482 11.8079L14.1266 19.5475Z" fill="white"/>
</svg>
