<svg width="24" height="25" viewBox="0 0 24 25" fill="none" xmlns="http://www.w3.org/2000/svg">
<circle cx="12" cy="12.5" r="12" fill="#FFE300"/>
<g clip-path="url(#clip0_357_3472)">
<path d="M5.02202 7.40522C5.0194 7.41694 5.01702 7.42871 5.01488 7.44052C4.96801 7.69887 5.04203 7.96166 5.09661 8.21272C5.15349 8.47365 5.21021 8.73443 5.26666 8.99536C5.5153 10.1438 5.76008 11.2931 5.99685 12.444C6.2352 13.6019 6.46555 14.7615 6.68361 15.9234C6.89988 17.071 7.10142 18.2213 7.2882 19.3741C7.32421 19.5975 7.52255 19.7042 7.72931 19.6125C7.74746 19.6043 7.76618 19.5958 7.78704 19.5872C7.82148 19.5729 7.80562 19.5182 7.80062 19.4812C7.31578 15.9711 6.68246 12.1774 5.93141 8.71814C5.86225 8.39949 5.70649 8.1327 5.60632 7.8229C5.55088 7.65143 5.5453 7.42937 5.48186 7.24961C5.45557 7.1749 5.42856 7.10045 5.40084 7.02626C5.39083 6.9994 5.30024 6.83678 5.30738 6.82578C5.18935 7.00726 5.06903 7.19488 5.02202 7.40522ZM19.0192 7.51982C18.9904 7.51977 18.9621 7.51262 18.9368 7.499C18.9114 7.48539 18.8899 7.46573 18.8739 7.44177C18.858 7.41781 18.8483 7.39029 18.8455 7.36165C18.8428 7.33302 18.8472 7.30415 18.8583 7.27762C18.8851 7.21417 18.8644 7.06342 18.7578 6.86908C18.6014 6.58343 18.2893 6.26806 17.9959 6.21776C17.9515 6.20868 17.9124 6.1827 17.8868 6.14531C17.8612 6.10792 17.8512 6.06205 17.8588 6.01738C17.8664 5.97271 17.891 5.93275 17.9276 5.90594C17.9641 5.87912 18.0096 5.86755 18.0545 5.87367C18.4782 5.94598 18.8667 6.34165 19.064 6.70146C19.2158 6.97797 19.257 7.23075 19.1801 7.41308C19.1519 7.47981 19.0872 7.51982 19.0192 7.51982ZM13.0029 10.3582C13.1858 10.5313 13.3181 10.7857 13.4766 10.9815L12.906 11.1329C12.7051 11.1861 12.7741 11.0233 12.8085 10.8937C12.8508 10.7351 12.9417 10.5103 13.0029 10.3582Z" fill="black"/>
<path d="M19.042 7.31556C19.2553 7.12801 19.4623 6.93332 19.6625 6.73183C19.767 6.62666 19.8753 6.5082 19.8918 6.36088C19.9125 6.1754 19.782 6.0095 19.6511 5.87646C19.5049 5.72756 19.3377 5.58424 19.1335 5.54123C18.9245 5.49736 18.7043 5.56881 18.5417 5.70241C18.4142 5.80716 18.2306 6.00893 18.2942 6.18997C18.3585 6.37302 18.5945 6.45476 18.7087 6.6138C18.8458 6.80485 18.9621 7.0945 19.042 7.31556ZM8.6799 18.1554C8.6046 18.2522 8.71934 18.3702 8.81194 18.4194C11.6563 17.7312 14.6849 17.0437 17.5778 16.6026C17.6579 16.5003 17.7313 16.3664 17.6556 16.1755C16.6027 16.3664 15.3743 16.5186 14.3214 16.7096C12.3942 17.0592 10.5171 17.4766 8.6799 18.1554Z" fill="black"/>
<path d="M7.72897 19.5934C7.68672 19.5933 7.64593 19.5779 7.61414 19.55C7.58236 19.5222 7.56173 19.4838 7.55607 19.4419C7.19711 16.7662 6.84059 14.4081 6.4965 12.4336C6.4945 12.4228 6.49121 12.4082 6.48993 12.3905C6.13497 10.3646 5.81675 8.84566 5.51795 7.74722C5.51695 7.74479 5.51624 7.74222 5.51567 7.73979L5.50766 7.7155L5.50852 7.71493C5.4926 7.68733 5.48435 7.65598 5.48463 7.62412C5.4849 7.59226 5.4937 7.56105 5.51009 7.53374C5.57868 7.42342 5.7633 7.43814 5.81603 7.5486C5.82128 7.5577 5.82568 7.56727 5.82918 7.57718C5.82918 7.57746 5.83747 7.60104 5.83775 7.60133L5.84904 7.63705C5.8509 7.64205 5.85247 7.64705 5.85376 7.65205C6.15627 8.76307 6.47764 10.2969 6.83545 12.3407C6.83745 12.3507 6.8383 12.3609 6.8383 12.3709C7.17739 14.3071 7.52606 16.6072 7.8773 19.212C10.7359 18.6507 13.6457 18.4034 16.4613 18.1641L16.4882 18.1619C16.4146 17.7223 16.3391 17.2742 16.262 16.8189C16.2581 16.7963 16.2588 16.7732 16.2639 16.7509C16.269 16.7285 16.2785 16.7074 16.2917 16.6887C16.305 16.67 16.3218 16.6542 16.3412 16.642C16.3606 16.6298 16.3823 16.6216 16.4049 16.6177C16.4975 16.5996 16.5899 16.6655 16.6061 16.7606C16.6928 17.2726 16.779 17.7846 16.8647 18.2968C16.8746 18.3548 16.8545 18.4136 16.8115 18.4536C16.7915 18.472 16.7676 18.4855 16.7415 18.4931C16.7155 18.5007 16.6881 18.5022 16.6614 18.4975L16.4909 18.5118C13.6451 18.7539 10.7022 19.0038 7.82371 19.5784L7.76784 19.5891C7.75498 19.592 7.74183 19.5934 7.72897 19.5934ZM15.285 10.3419C15.1887 10.3419 15.1105 10.2648 15.1105 10.1684V10.1662C15.1118 10.1207 15.1308 10.0776 15.1634 10.0459C15.196 10.0142 15.2396 9.99653 15.2851 9.99653C15.3305 9.99653 15.3742 10.0142 15.4068 10.0459C15.4393 10.0776 15.4583 10.1207 15.4596 10.1662C15.4596 10.2626 15.3814 10.3419 15.285 10.3419Z" fill="black"/>
<path d="M8.79656 18.3025C8.75451 18.3025 8.71387 18.2873 8.68212 18.2598C8.65038 18.2322 8.62966 18.1941 8.6238 18.1524L8.62323 18.149L7.35418 13.4756L6.27332 9.93596L5.83449 8.63133C5.79862 8.5283 5.76247 8.4257 5.72603 8.32353L5.60386 7.98415C5.58614 7.93528 5.56899 7.88841 5.54898 7.83926C5.53398 7.80168 5.52012 7.76495 5.50726 7.7278C5.50151 7.71118 5.49636 7.69435 5.49183 7.67736C5.48797 7.66421 5.48468 7.65049 5.47925 7.63849C5.45496 7.58505 5.43295 7.52646 5.4118 7.46945L5.25676 7.06877C5.2549 7.0638 5.25314 7.0588 5.25148 7.05376C5.23189 7.03069 5.21864 7.00292 5.21301 6.97319C5.20738 6.94345 5.20957 6.91276 5.21937 6.88412C5.22916 6.85549 5.24623 6.82989 5.26889 6.80983C5.29155 6.78977 5.31903 6.77594 5.34864 6.76969C6.23562 6.58235 7.12544 6.40876 8.01779 6.24898C9.04349 6.06506 10.0742 5.91005 11.1086 5.78414C11.9988 5.67325 12.9398 5.57923 13.9848 5.49649L14.4829 5.4592C14.5791 5.45462 14.6624 5.52493 14.6691 5.62124C14.6707 5.64411 14.6678 5.66706 14.6605 5.6888C14.6532 5.71053 14.6417 5.73062 14.6267 5.74791C14.6116 5.7652 14.5933 5.77936 14.5728 5.78957C14.5523 5.79978 14.53 5.80585 14.5071 5.80743L14.011 5.84458C12.9725 5.92675 12.0367 6.02034 11.1512 6.13052C10.123 6.25576 9.09858 6.40991 8.07909 6.59278C7.26092 6.73914 6.4449 6.8973 5.63129 7.0672L5.73889 7.3477C5.75747 7.39714 5.77619 7.44801 5.79719 7.49417C5.80962 7.52189 5.81891 7.5519 5.82763 7.58205L5.83692 7.61248C5.84806 7.64506 5.86007 7.67679 5.87278 7.70865C5.89422 7.76109 5.9128 7.81211 5.93209 7.86498L6.05498 8.2065C6.0917 8.30953 6.12828 8.41298 6.16415 8.51658L6.93693 10.8686L8.28114 15.4847L8.92131 17.9048C10.9276 17.2726 13.0338 16.8981 15.073 16.5356C15.4995 16.4597 15.9253 16.3841 16.349 16.3062C16.6822 16.2448 17.015 16.1815 17.3476 16.1165C16.8093 14.2374 16.2123 12.2117 15.6345 10.2509L15.5346 9.91267C15.5075 9.82022 15.5604 9.72319 15.653 9.6959C15.6974 9.68315 15.745 9.6884 15.7856 9.71051C15.8262 9.73263 15.8564 9.76983 15.8697 9.81407L15.9692 10.1522C16.5619 12.1637 17.1749 14.2437 17.7182 16.1456C17.7268 16.1702 17.7339 16.1915 17.7394 16.2152C17.7452 16.2408 17.7452 16.2673 17.7393 16.2929C17.7335 16.3184 17.722 16.3423 17.7056 16.3628C17.6893 16.3833 17.6685 16.3999 17.6449 16.4112C17.6213 16.4226 17.5954 16.4285 17.5692 16.4285C17.1967 16.5024 16.8047 16.5772 16.4122 16.6495C15.9878 16.7273 15.5614 16.8034 15.1341 16.8792C13.046 17.2506 10.8873 17.6344 8.85044 18.2942C8.83272 18.2999 8.81457 18.3025 8.79656 18.3025Z" fill="black"/>
<path d="M15.1802 8.25291C15.1045 8.25291 15.0349 8.20332 15.0126 8.12688C14.7779 7.31822 14.5441 6.50934 14.311 5.70023C14.2982 5.65574 14.3036 5.60799 14.3261 5.5675C14.3485 5.52701 14.3861 5.49709 14.4306 5.48431C14.4751 5.47154 14.5228 5.47697 14.5633 5.4994C14.6038 5.52183 14.6337 5.55943 14.6465 5.60392C14.8726 6.38898 15.108 7.20249 15.3481 8.02971C15.3556 8.05573 15.3569 8.08314 15.352 8.10976C15.3471 8.13639 15.3361 8.16151 15.3198 8.18315C15.3035 8.20479 15.2824 8.22235 15.2582 8.23446C15.234 8.24656 15.2073 8.25288 15.1802 8.25291Z" fill="black"/>
<path d="M12.5191 11.4038C12.4926 11.4037 12.4665 11.3977 12.4427 11.3861C12.4189 11.3745 12.3981 11.3576 12.3817 11.3368C12.3654 11.316 12.354 11.2917 12.3484 11.2658C12.3428 11.24 12.3432 11.2132 12.3495 11.1874C12.4455 10.799 12.5921 10.4545 12.7617 10.056C12.8356 9.88209 12.9142 9.69733 12.9948 9.4937C13.0069 9.46298 13.0276 9.43654 13.0542 9.41711L18.3781 5.52364C18.8203 5.1997 19.4516 5.38075 19.7633 5.7527C19.9431 5.96748 20.0282 6.2757 19.9916 6.5775C19.9602 6.83485 19.8423 7.05048 19.6598 7.1838L14.4525 10.992C14.4384 11.0023 14.4229 11.0105 14.4064 11.0163C14.0306 11.1459 13.5486 11.2259 13.1235 11.2966C12.9115 11.3318 12.7113 11.3652 12.5571 11.3995C12.5444 11.4024 12.5318 11.4038 12.5191 11.4038ZM13.3007 9.66903C13.2299 9.84428 13.1573 10.0188 13.0828 10.1925C12.9603 10.481 12.85 10.7397 12.7651 11.0034C12.8606 10.9862 12.9619 10.9695 13.0662 10.9522C13.4682 10.8855 13.9226 10.8098 14.2683 10.6946L19.4539 6.90201C19.5575 6.82599 19.6254 6.69581 19.645 6.5352C19.67 6.33057 19.6125 6.1168 19.4955 5.97676C19.29 5.73127 18.8568 5.60609 18.5838 5.80529L13.3007 9.66932V9.66903Z" fill="black"/>
<path d="M14.2853 11.0419C14.2521 11.0419 14.2196 11.0325 14.1916 11.0147C14.1636 10.9969 14.1413 10.9715 14.1272 10.9415C14.1131 10.9115 14.1079 10.878 14.1122 10.8451C14.1165 10.8122 14.13 10.7812 14.1513 10.7558C14.1764 10.7148 14.169 10.5334 14.1267 10.4205C14.1013 10.3525 13.9678 10.2498 13.8889 10.2371C13.8563 10.2319 13.8258 10.2176 13.801 10.1958C13.7762 10.174 13.7581 10.1456 13.7489 10.1139C13.7232 10.0283 13.6681 9.95446 13.5933 9.90555C13.4971 9.84296 13.2942 9.7758 13.2295 9.78709C13.1344 9.80167 13.046 9.73322 13.0331 9.63762C13.03 9.6149 13.0314 9.59179 13.0372 9.56961C13.043 9.54743 13.0532 9.52662 13.0671 9.50837C13.081 9.49012 13.0983 9.47478 13.1181 9.46325C13.138 9.45171 13.1599 9.4442 13.1826 9.44114C13.3811 9.41456 13.6707 9.53974 13.7833 9.61233C13.8997 9.68787 13.992 9.79525 14.0491 9.9217C14.2223 9.98872 14.3962 10.1453 14.4535 10.2978C14.4964 10.4123 14.5824 10.7832 14.4193 10.9788C14.385 11.0204 14.3353 11.0419 14.2853 11.0419Z" fill="black"/>
<path d="M14.0855 10.1162C14.0486 10.1163 14.0125 10.1047 13.9825 10.083C13.9525 10.0614 13.9302 10.0307 13.9189 9.99551C13.9075 9.96031 13.9076 9.92241 13.9191 9.88727C13.9307 9.85214 13.9532 9.8216 13.9832 9.80007C14.3045 9.569 14.6383 9.33208 14.9781 9.09102C16.1605 8.25237 17.383 7.38542 18.4181 6.51319C18.4538 6.48557 18.4987 6.47279 18.5435 6.47753C18.5883 6.48227 18.6296 6.50417 18.6586 6.53863C18.6877 6.57309 18.7023 6.61746 18.6994 6.66244C18.6965 6.70742 18.6763 6.74954 18.643 6.77998C17.5968 7.66164 16.3682 8.53316 15.18 9.37581C14.8407 9.61645 14.5078 9.85265 14.1873 10.0831C14.1564 10.1056 14.1207 10.1162 14.0855 10.1162ZM7.60539 8.71563C7.56203 8.71616 7.52002 8.7005 7.48759 8.67172C7.45515 8.64293 7.4346 8.60309 7.42996 8.55998C7.42532 8.51686 7.43691 8.47356 7.46248 8.43853C7.48805 8.4035 7.52576 8.37926 7.56824 8.37054L11.2791 7.56033C11.3243 7.55063 11.3714 7.55918 11.4103 7.58413C11.4492 7.60908 11.4767 7.6484 11.4867 7.6935C11.4916 7.71589 11.4921 7.73903 11.4881 7.7616C11.484 7.78416 11.4756 7.80571 11.4632 7.82501C11.4508 7.84431 11.4348 7.86098 11.416 7.87407C11.3971 7.88715 11.3759 7.8964 11.3535 7.90127L7.64283 8.71149C7.6304 8.71435 7.61782 8.71563 7.60539 8.71563ZM7.81287 11.344C7.7693 11.3444 7.72717 11.3285 7.69476 11.2994C7.66236 11.2702 7.64204 11.23 7.63781 11.1867C7.63358 11.1433 7.64574 11.0999 7.67191 11.0651C7.69807 11.0302 7.73633 11.0064 7.77915 10.9984L11.3627 10.2905C11.4071 10.2838 11.4524 10.2945 11.4892 10.3203C11.5259 10.3461 11.5513 10.3852 11.56 10.4292C11.5687 10.4733 11.5601 10.5191 11.536 10.557C11.5119 10.5949 11.474 10.622 11.4304 10.6327L7.84688 11.3408C7.83545 11.343 7.82402 11.344 7.81287 11.344ZM8.75641 14.1379C8.71345 14.1378 8.67206 14.1218 8.64015 14.093C8.60824 14.0642 8.58805 14.0247 8.58345 13.982C8.57886 13.9393 8.59017 13.8964 8.61522 13.8615C8.64028 13.8266 8.67732 13.8021 8.71926 13.7928L14.3143 12.5582C14.3367 12.5533 14.3598 12.5528 14.3824 12.5569C14.405 12.5609 14.4265 12.5693 14.4459 12.5816C14.4652 12.594 14.4819 12.61 14.495 12.6288C14.5081 12.6476 14.5174 12.6688 14.5223 12.6912C14.5272 12.7136 14.5277 12.7367 14.5237 12.7593C14.5197 12.7819 14.5112 12.8034 14.4989 12.8227C14.4866 12.842 14.4705 12.8587 14.4517 12.8718C14.4329 12.885 14.4117 12.8943 14.3893 12.8992L8.79414 14.1338C8.7817 14.1365 8.76899 14.1379 8.75641 14.1379ZM10.4634 15.5295C10.4193 15.53 10.3765 15.5139 10.3439 15.4842C10.3112 15.4545 10.291 15.4135 10.2873 15.3695C10.2837 15.3254 10.2969 15.2817 10.3243 15.247C10.3517 15.2124 10.3912 15.1894 10.4349 15.1828C11.0244 15.0838 11.605 14.9376 12.171 14.7455C12.1927 14.7381 12.2157 14.735 12.2386 14.7364C12.2615 14.7379 12.2839 14.7438 12.3045 14.754C12.3251 14.7641 12.3435 14.7783 12.3586 14.7955C12.3737 14.8128 12.3852 14.8329 12.3925 14.8547C12.3999 14.8764 12.403 14.8993 12.4015 14.9222C12.4 14.9451 12.394 14.9675 12.3838 14.988C12.3737 15.0086 12.3596 15.0269 12.3424 15.042C12.3251 15.0571 12.3051 15.0687 12.2834 15.076C11.6995 15.2743 11.1006 15.4251 10.4924 15.5269C10.4829 15.5286 10.4732 15.5295 10.4634 15.5295Z" fill="black"/>
<path d="M14.5054 10.5214C14.4771 10.3055 14.426 10.1834 14.2468 10.0408C14.6603 9.7436 18.4718 7.06045 18.676 6.73865C18.706 6.78223 18.7343 6.82582 18.7579 6.86897C18.8645 7.06331 18.8852 7.21406 18.8583 7.27737C18.8487 7.30023 18.8447 7.32409 18.8452 7.34753L14.5054 10.5214ZM18.0138 6.22266C18.1678 6.25452 18.3253 6.35698 18.4625 6.48887C18.2793 6.56775 18.4671 6.61662 14.9781 9.09099C14.8905 9.15315 14.0425 9.75403 13.9764 9.80747C13.8754 9.66372 13.7752 9.58155 13.5359 9.49739L18.0138 6.22266Z" fill="white"/>
<path d="M7.64295 8.71073L11.3537 7.90051C11.3761 7.89564 11.3973 7.88639 11.4161 7.8733C11.4349 7.86022 11.451 7.84355 11.4633 7.82425C11.4757 7.80495 11.4842 7.7834 11.4882 7.76084C11.4922 7.73827 11.4918 7.71513 11.4868 7.69274C11.4768 7.64763 11.4494 7.60832 11.4105 7.58337C11.3716 7.55842 11.3244 7.54986 11.2792 7.55957L7.56836 8.36978C7.52315 8.37967 7.48372 8.40712 7.45874 8.44608C7.44638 8.46538 7.43793 8.48692 7.43389 8.50947C7.42985 8.53203 7.43029 8.55516 7.43518 8.57755C7.44008 8.59994 7.44934 8.62114 7.46243 8.63995C7.47553 8.65876 7.49219 8.6748 7.51149 8.68717C7.55045 8.71215 7.59774 8.72062 7.64295 8.71073ZM7.77942 10.9976C7.75693 11.0021 7.73553 11.0109 7.71645 11.0236C7.69737 11.0363 7.68098 11.0526 7.66823 11.0717C7.65547 11.0907 7.6466 11.1121 7.64212 11.1346C7.63763 11.1571 7.63763 11.1802 7.6421 11.2027C7.64654 11.2251 7.65537 11.2465 7.66807 11.2656C7.68077 11.2846 7.69711 11.301 7.71613 11.3137C7.73516 11.3265 7.75651 11.3353 7.77897 11.3398C7.80143 11.3443 7.82455 11.3443 7.84701 11.3399L11.4305 10.632C11.4742 10.6212 11.512 10.5941 11.5361 10.5562C11.5603 10.5183 11.5689 10.4726 11.5601 10.4285C11.5514 10.3844 11.526 10.3454 11.4893 10.3195C11.4525 10.2937 11.4072 10.283 11.3628 10.2897L7.77942 10.9976ZM8.75654 14.1372C8.76911 14.1372 8.78183 14.1357 8.79426 14.1329L14.3895 12.8983C14.4347 12.8883 14.4741 12.8608 14.499 12.8218C14.5239 12.7828 14.5323 12.7356 14.5224 12.6904C14.5124 12.6452 14.4849 12.6058 14.4459 12.5809C14.4069 12.5559 14.3596 12.5475 14.3144 12.5575L8.71924 13.7921C8.51633 13.8367 8.54934 14.1372 8.75654 14.1372ZM12.1712 14.7448C11.6051 14.9368 11.0245 15.0831 10.435 15.182C10.4124 15.1858 10.3908 15.194 10.3713 15.2061C10.3519 15.2183 10.3351 15.2341 10.3218 15.2528C10.3085 15.2714 10.299 15.2925 10.2938 15.3148C10.2887 15.3372 10.288 15.3603 10.2917 15.3829C10.2955 15.4055 10.3037 15.4271 10.3158 15.4465C10.328 15.4659 10.3438 15.4828 10.3625 15.4961C10.3811 15.5094 10.4022 15.5189 10.4245 15.524C10.4469 15.5292 10.47 15.5299 10.4926 15.5261C11.1007 15.4243 11.6996 15.2736 12.2835 15.0753C12.3749 15.0444 12.4237 14.9452 12.3925 14.8538C12.3852 14.8321 12.3737 14.812 12.3586 14.7947C12.3435 14.7775 12.3251 14.7634 12.3045 14.7532C12.2839 14.7431 12.2616 14.7371 12.2387 14.7357C12.2158 14.7342 12.1929 14.7373 12.1712 14.7448Z" fill="black"/>
</g>
<defs>
<clipPath id="clip0_357_3472">
<rect width="15" height="14.2895" fill="white" transform="translate(5 5.35547)"/>
</clipPath>
</defs>
</svg>
