<svg width="24" height="24" viewBox="0 0 24 24" fill="none" xmlns="http://www.w3.org/2000/svg">
<g clip-path="url(#clip0_1693_11179)">
<path d="M1.33787 6.60564C3.51663 2.52611 7.40313 -0.200726 12.001 0.0115773C19.6266 0.359242 24 4.73092 24 12.006C24 18.6194 18.6244 24 12.0168 24C2.91253 24 -2.71924 14.203 1.33787 6.60564Z" fill="#FFE300"/>
<path d="M9.71269 17.368C9.8431 17.4837 10.0395 17.4861 10.1727 17.3707C13.0793 14.8466 15.7288 12.1993 18.8901 9.52783C19.1628 9.29726 19.3254 8.97502 19.3481 8.61964C19.4178 7.51518 18.1039 6.79194 17.2109 7.53125C14.5062 9.76702 12.2575 11.7949 10.16 13.8909C9.74784 13.4788 9.19643 12.8892 8.51601 12.1326C7.98997 11.5479 7.0406 11.4467 6.40197 12.0781C5.84104 12.6323 5.81429 13.5219 6.34053 14.1038C7.61069 15.5069 8.40811 16.2071 9.71269 17.368Z" fill="black"/>
</g>
<defs>
<clipPath id="clip0_1693_11179">
<rect width="24" height="24" fill="white"/>
</clipPath>
</defs>
</svg>
