<svg width="24" height="24" viewBox="0 0 24 24" fill="none" xmlns="http://www.w3.org/2000/svg">
<g clip-path="url(#clip0_162_3121)">
<mask id="mask0_162_3121" style="mask-type:luminance" maskUnits="userSpaceOnUse" x="1" y="0" width="22" height="24">
<path d="M1 0.445709H23V23.0906H1V0.445709Z" fill="white"/>
</mask>
<g mask="url(#mask0_162_3121)">
<path fill-rule="evenodd" clip-rule="evenodd" d="M2.96902 4.88498C3.65644 4.46003 4.14071 4.39161 6.01105 3.55314C7.9981 2.65918 10.44 1.74445 12.2285 1.13139C13.0007 0.870825 13.3619 0.884383 13.7782 1.74594C13.3678 1.79996 12.9583 1.85991 12.5599 1.92113C10.4478 2.24376 10.0252 2.17237 9.18123 2.41493C8.92723 2.4503 8.6171 2.49585 8.3218 2.61024C7.71381 2.76658 7.16981 3.09853 6.99081 3.74062C6.82896 4.32106 6.94251 4.93794 7.05245 5.53046C7.91286 10.1605 8.5145 14.835 8.85457 19.532C8.93147 20.5967 9.08272 21.5947 10.0932 21.9788C9.51488 22.1669 8.88317 22.3686 8.40992 21.9788C8.12118 21.7409 7.98709 21.3382 7.85702 20.9488C7.16007 19.135 6.04176 15.2609 2.0704 7.1845C1.91639 6.87289 1.60011 6.08844 1.97825 5.53893C2.24771 5.14745 2.85018 4.95764 2.96902 4.88498ZM19.2371 1.77432C20.1209 1.72242 20.4356 1.85842 20.6123 3.04494C21.162 6.94703 21.8543 11.4601 22.3424 16.8198C22.4693 18.1337 22.5716 18.8126 22.2534 19.2835C22.0774 19.6079 21.6228 19.6903 21.2599 19.76C19.2974 20.1324 16.0162 20.8276 12.1362 21.238C11.3507 21.3259 10.4423 21.4689 10.0097 20.8577C9.77142 20.5162 9.76824 20.0163 9.74494 19.5621C9.67037 18.4489 9.59453 17.3602 9.4795 16.2489C9.41531 15.5117 9.33778 14.7936 9.27084 14.1871C9.11398 12.7892 8.92894 11.3945 8.71582 10.0041C8.60799 9.29697 8.49127 8.59006 8.37094 7.88273C8.20078 6.8909 8.02269 5.90044 7.83668 4.91146C7.77038 4.56997 7.67187 3.73003 8.18346 3.29851C8.54974 2.98922 9.19436 2.97016 9.31257 2.93393C10.0824 2.70854 10.5508 2.76934 12.641 2.44988C13.1522 2.37108 13.6811 2.28994 14.2209 2.22702L14.2203 2.22173C14.2334 2.2194 14.2463 2.21792 14.2592 2.21326L14.2618 2.22173C16.1578 2.0065 17.7387 1.86414 19.2371 1.77432ZM6.90988 20.8984C7.22722 21.7074 7.61256 22.5973 8.41034 22.9422C9.13738 23.2562 9.9716 23.0113 10.7241 22.7643L14.1215 21.6483C22.8121 20.0612 19.5091 20.6374 21.3612 20.2851C21.8923 20.1832 22.4536 20.0394 22.7095 19.5617C23.0591 19.048 23.0152 18.4016 22.969 17.818C22.4437 11.7594 21.7302 7.1773 21.1417 2.96656C21.0563 2.39544 20.921 1.75907 20.3873 1.43114C20.03 1.2121 19.6247 1.21634 19.2057 1.24006C17.7398 1.3284 16.194 1.46673 14.3361 1.67603C14.1614 1.27925 13.8531 0.664493 13.2469 0.492691C12.8158 0.368977 12.3777 0.516629 12.0565 0.624667C7.90786 2.04717 5.57932 3.16463 4.99803 3.41841C4.26104 3.73999 3.41177 3.98678 2.7038 4.41999C2.17018 4.6545 1.67744 4.90299 1.42386 5.43598C1.05675 5.83275 0.951885 6.4348 1.01904 6.96716C1.18576 8.28649 3.06541 11.1012 6.90988 20.8984Z" fill="black"/>
</g>
<path fill-rule="evenodd" clip-rule="evenodd" d="M2.06535 2.24358C1.97425 2.36009 1.99459 2.52829 2.11089 2.61939C2.99808 3.29155 3.04638 3.40997 3.21182 3.40997C3.46561 3.40997 3.57619 3.08819 3.37706 2.93227L2.44094 2.19804C2.38509 2.15428 2.31415 2.13449 2.24371 2.14303C2.17328 2.15157 2.10912 2.18774 2.06535 2.24358ZM4.26488 2.71429C4.32977 2.68557 4.38062 2.63228 4.40627 2.56612C4.43193 2.49996 4.43029 2.42632 4.40173 2.36137L3.66516 0.692066C3.63644 0.627229 3.58319 0.576419 3.51708 0.550769C3.45097 0.525118 3.37738 0.526718 3.31245 0.555218C3.24756 0.583938 3.19671 0.637223 3.17105 0.703385C3.1454 0.769548 3.14703 0.843185 3.1756 0.908143L3.91217 2.57744C3.97148 2.71132 4.12803 2.77382 4.26488 2.71429Z" fill="black"/>
<mask id="mask1_162_3121" style="mask-type:luminance" maskUnits="userSpaceOnUse" x="5" y="0" width="2" height="3">
<path d="M5.07367 0H6.01191V2.20356H5.07367V0Z" fill="white"/>
</mask>
<g mask="url(#mask1_162_3121)">
<path fill-rule="evenodd" clip-rule="evenodd" d="M5.4842 0.204172L5.08128 1.87347C5.06749 1.94142 5.08059 2.01207 5.11783 2.07056C5.15507 2.12905 5.21354 2.17081 5.28095 2.18706C5.34835 2.20331 5.41944 2.19277 5.47923 2.15768C5.53903 2.12258 5.58288 2.06565 5.60156 1.99888L6.00448 0.329581C6.021 0.260595 6.0095 0.187871 5.97249 0.127353C5.93548 0.0668345 5.87598 0.0234598 5.80705 0.00673726C5.73808 -0.00938133 5.66555 0.00229651 5.60513 0.0392447C5.54472 0.0761928 5.50127 0.135441 5.4842 0.204172Z" fill="black"/>
</g>
<path fill-rule="evenodd" clip-rule="evenodd" d="M18.6128 7.99059C17.3551 8.11409 16.0993 8.27806 14.8435 8.42169C13.5894 8.56531 12.3262 8.72123 11.0897 8.97904C10.9107 9.01653 10.9425 9.26502 11.1245 9.25972C12.387 9.2235 13.6523 9.08178 14.9062 8.93031C16.161 8.77864 17.4203 8.64645 18.6723 8.47465C18.9837 8.43207 18.9253 7.95966 18.6128 7.99059ZM18.8308 9.76051C17.5731 9.88402 16.3173 10.048 15.0615 10.1916C13.8074 10.3352 12.5442 10.4909 11.3079 10.7487C11.1289 10.7862 11.1605 11.0347 11.3424 11.0294C12.6052 10.9934 13.8705 10.8517 15.1242 10.7002C16.3789 10.5486 17.6385 10.4164 18.8905 10.2446C19.2015 10.2018 19.1432 9.7298 18.8308 9.76051ZM19.0488 11.5304C17.7913 11.6537 16.5353 11.8177 15.2797 11.9613C14.0256 12.1049 12.7622 12.2609 11.5259 12.5187C11.3469 12.5562 11.3787 12.8047 11.5606 12.7994C12.8232 12.7631 14.0885 12.6214 15.3422 12.4699C16.5969 12.3183 17.8567 12.1861 19.1085 12.0145C19.4197 11.9717 19.3612 11.4997 19.0488 11.5304ZM19.267 13.3001C18.0093 13.4237 16.7533 13.5876 15.4977 13.7312C14.2436 13.8749 12.9802 14.0306 11.7439 14.2884C11.5649 14.3259 11.5967 14.5744 11.7786 14.5691C13.0412 14.5331 14.3065 14.3913 15.5604 14.2399C16.8151 14.0882 18.0745 13.956 19.3265 13.7842C19.6379 13.7414 19.5794 13.2694 19.267 13.3001Z" fill="black"/>
<path fill-rule="evenodd" clip-rule="evenodd" d="M2.96905 4.88503C3.65647 4.46008 4.14074 4.39165 6.01107 3.55319C7.99813 2.65923 10.44 1.7445 12.2286 1.13144C13.0007 0.870873 13.3619 0.884431 13.7782 1.74598C13.3678 1.79979 12.9584 1.85995 12.5599 1.92118C10.4478 2.24381 10.0252 2.17221 9.18126 2.41497C8.92726 2.45035 8.61713 2.4959 8.32182 2.61029C7.71384 2.76663 7.16984 3.09858 6.99083 3.74067C6.82899 4.32111 6.94253 4.93799 7.05248 5.53029C7.91289 10.1604 8.51453 14.8349 8.8546 19.5321C8.9315 20.5968 9.08275 21.5948 10.0932 21.9788C9.5149 22.1669 8.8832 22.3686 8.40995 21.9788C8.12121 21.7409 7.98711 21.3382 7.85704 20.9489C7.16009 19.1351 6.04179 15.2609 2.07043 7.18455C1.91642 6.87293 1.60014 6.08849 1.97827 5.53898C2.24774 5.1475 2.85021 4.95769 2.96905 4.88503Z" fill="#FFE300"/>
</g>
<defs>
<clipPath id="clip0_162_3121">
<rect width="22" height="23.0906" fill="white" transform="translate(1)"/>
</clipPath>
</defs>
</svg>
