<svg width="212" height="212" viewBox="0 0 212 212" fill="none" xmlns="http://www.w3.org/2000/svg">
<path d="M98.3426 6.93164C73.6692 12.3201 23.4716 23.2671 20.0684 23.9478L94.0885 45.2179L172.363 29.0526V23.9478L98.3426 6.93164Z" fill="#FFE300"/>
<path d="M51.5 68V40L92.5 46L144.5 40L147.5 64L144.5 73L117.5 88H92.5L60.5 80L51.5 68Z" fill="#FFE300"/>
<path d="M51.3462 184.958C77.3443 211.489 121.374 212.962 148.374 189.736C164.899 175.521 174.846 154.319 174.192 132.531C173.543 110.927 163.003 89.8833 146.299 76.1693C153.571 65.4818 151.303 52.5725 148.479 39.9416C173.342 34.8176 172.377 35.6083 173.317 34.241C175.039 31.7372 175.956 29.5456 176.31 28.037C176.539 27.5457 176.703 27.0184 176.73 26.4435C176.818 24.4678 175.56 22.7314 173.672 22.2224C94.4348 0.789011 102.887 -1.43737 18.0676 22.2921C15.2931 23.0666 14.4606 26.3929 16.1053 28.4737C16.5735 29.8661 17.1532 31.3873 17.5596 32.7221C17.8301 33.6099 18.5422 34.2766 19.4423 34.5023C24.6136 35.7992 29.7847 37.1038 34.9559 38.3799C34.0082 42.7694 34.5882 44.7546 36.1811 80.2586C35.8387 80.4101 35.4853 80.5449 35.1853 80.7631C31.3907 81.6335 29.3855 86.8835 33.3298 90.3174C31.3367 93.419 30.1929 105.098 29.0419 111.397C28.7407 113.046 28.5237 114.67 29.7924 115.766C26.6164 130.859 27.6831 145.344 32.449 158.567C36.0714 168.667 42.7193 177.716 51.3462 184.958ZM52.285 42.5063C65.4585 45.5823 78.671 48.3996 92.0763 50.6954C94.7404 51.145 118.818 46.066 142.368 41.2021C143.343 49.2255 143.24 52.6741 143.725 62.4061C143.979 68.1716 140.657 73.9615 134.422 76.8238C122.619 82.077 109.297 84.7927 96.8835 84.8751C79.4982 85.0145 62.0099 78.47 57.5604 75.3572C53.0151 72.3815 50.4303 67.5514 50.6454 62.4485C51.029 54.2826 51.4742 50.3264 52.285 42.5063ZM56.421 80.1359C58.4005 81.26 62.5774 82.8829 64.7056 83.6702C69.0557 86.0251 73.7357 87.7962 78.5763 89.0106C76.453 95.5511 75.9864 97.9024 75.1408 101.643C64.2257 100.064 53.7325 97.2403 43.9653 93.2362C47.2191 88.6346 50.9101 84.463 56.421 80.1359ZM83.1551 89.9894C90.8395 91.3617 99.7392 91.7302 111.797 89.9856C114.428 97.2062 114.908 99.8543 115.486 102.058C103.462 103.462 91.4337 103.513 79.7891 102.206C80.5812 98.761 80.9217 96.7979 83.1551 89.9894ZM116.472 89.228C120.17 88.5644 123.849 87.7796 127.492 86.894C132.255 85.7365 137.08 84.3107 141.065 81.4957C145.071 85.0363 148.088 88.3327 151.641 93.5817C141.377 97.271 130.786 99.8929 120.134 101.449C119.315 98.2795 118.986 96.2824 116.472 89.228ZM154.167 97.6293C160.216 108.089 163.354 119.805 163.8 130.892C163.64 130.89 163.483 130.859 163.321 130.892C150.763 133.478 137.985 135.187 125.115 136.076C124.786 125.866 123.531 115.783 121.309 105.971C132.429 104.315 143.48 101.544 154.167 97.6293ZM163.816 135.535C163.419 149.583 158.468 163.076 150.296 173.632C141.168 170.897 131.887 168.839 122.528 167.431C124.267 158.153 125.137 149.164 125.172 140.744C138.189 139.856 151.111 138.129 163.816 135.535ZM147.009 177.535C138.413 186.883 127.1 192.78 114.794 195.906C117.604 187.929 119.873 179.9 121.568 171.994C130.136 173.271 138.633 175.12 147.009 177.535ZM47.7163 41.4385C46.5931 51.5092 46.2403 57.0541 45.9971 62.2394C45.7518 68.0082 48.1815 73.4656 52.5361 77.3367C49.4144 79.8843 46.5465 82.61 44.0333 85.5296C44.0002 83.3158 43.0144 81.3061 40.8415 80.2885C39.1749 43.7975 38.762 42.8754 39.4664 39.4794C42.2157 40.14 44.9674 40.7923 47.7163 41.4385ZM35.5873 111.504C35.7637 111.412 35.932 111.306 36.136 111.268C35.9419 113.011 35.7673 114.872 36.5489 116.433C37.3305 117.995 39.4696 118.961 40.8164 117.877C41.7855 117.098 42.2614 115.433 43.4932 115.46C44.7195 115.486 45.1795 117.198 46.2677 117.778C47.4586 118.412 48.971 117.364 49.3682 116.051C49.9684 114.066 49.0316 112.058 45.2581 98.7558C54.4044 102.226 64.1174 104.717 74.1734 106.19C72.1967 116.459 71.4409 125.743 71.5939 134.948C58.5473 133.491 45.5787 131.164 32.8075 127.99C33.1743 122.449 34.0864 116.897 35.5873 111.504ZM78.7965 106.761C91.4335 108.216 103.323 108.205 116.665 106.596C118.888 116.288 120.156 126.259 120.471 136.367C105.774 137.149 90.9765 136.822 76.2511 135.411C76.0334 125.746 76.9585 116.189 78.7965 106.761ZM120.516 141.036C120.461 149.153 119.608 157.822 117.919 166.778C105.622 165.218 93.2118 164.82 80.8444 165.545C78.5196 156.857 77.0426 148.239 76.5025 140.139C91.3275 141.526 105.875 141.806 120.516 141.036ZM116.953 171.339C115.117 179.829 112.625 188.478 109.471 197.037C104.002 197.97 98.5675 198.205 93.3094 197.688C88.7593 189.017 85.0077 179.607 82.1599 170.128C93.7684 169.508 105.412 169.899 116.953 171.339ZM87.7389 196.909C73.6332 194.287 58.4376 186.998 47.7374 175.056C57.5231 172.757 67.4326 171.196 77.3875 170.421C80.0457 179.493 83.5507 188.483 87.7389 196.909ZM170.403 26.1586C141.408 31.2627 118.436 36.7351 93.8533 40.44C88.5815 41.2234 93.7446 40.8764 53.2495 32.516L90.4636 26.9809C95.6373 30.2443 102.371 28.082 102.344 23.9223C102.33 18.7808 94.5243 18.7615 89.6231 21.6921C89.2799 21.8985 89.0381 22.1921 88.8476 22.5133C44.7257 29.0858 44.8175 28.8048 41.6703 30.1176C35.2908 28.7964 28.829 27.4412 22.2372 25.9586C101.906 3.68342 95.3162 5.78547 170.403 26.1586ZM32.6338 132.729C45.5352 135.891 58.6316 138.187 71.8039 139.626C72.3007 147.979 73.783 156.88 76.1309 165.861C65.4872 166.736 54.8942 168.466 44.4519 171.044C36.2111 160 32.6329 146.121 32.6338 132.729Z" fill="black"/>
<path d="M181.106 5.29555C179.885 4.88041 178.563 5.53191 178.154 6.75006C177.26 9.38028 176.066 11.9257 174.609 14.3104C173.939 15.4074 174.282 16.8407 175.379 17.5104C176.457 18.1746 177.898 17.8483 178.578 16.7407C180.218 14.0589 181.557 11.2014 182.56 8.24698C182.975 7.02884 182.324 5.70766 181.106 5.29555Z" fill="black"/>
<path d="M183.59 23.0528C184.377 23.0528 183.807 23.0792 195.236 18.6408C196.432 18.1681 197.02 16.8196 196.551 15.6227C196.078 14.4227 194.72 13.844 193.533 14.3076L182.736 18.562C180.368 19.4936 181.026 23.0528 183.59 23.0528Z" fill="black"/>
<path d="M195.169 32.8915C191.524 31.6279 187.736 30.7462 183.903 30.2734C182.639 30.1098 181.466 31.0189 181.309 32.2976C181.151 33.5733 182.057 34.7339 183.333 34.8915C186.839 35.3278 190.309 36.1339 193.642 37.2914C194.921 37.7177 196.196 37.023 196.605 35.8551C197.027 34.64 196.381 33.3127 195.169 32.8915Z" fill="black"/>
</svg>
