<svg width="32" height="32" viewBox="0 0 32 32" fill="none" xmlns="http://www.w3.org/2000/svg">
<path d="M2.91678 16.6333C3.17105 20.993 5.98274 25.3261 10.1993 27.3765C9.16872 27.2182 8.17807 27.1791 7.04665 27.2301C6.52767 27.2535 6.39039 27.9754 6.85741 28.203C7.8206 28.6723 10.5662 29.0296 11.6505 29.0972C13.6032 29.2188 15.5704 29.1075 17.4969 28.7658C18.3309 28.6179 19.2959 28.4811 20.1056 28.1663C23.1291 27.3975 26.0509 25.1579 27.6331 22.8111C30.3611 18.765 29.6404 12.0764 26.6535 8.07157C24.9558 5.79529 22.122 3.79537 18.1346 3.47602C10.5585 2.10739 2.40133 7.87685 2.91678 16.6333ZM25.2468 8.56864C28.287 12.5671 28.4532 18.4922 25.6424 22.6572C22.8087 26.8523 17.1718 28.8488 12.4235 27.5448C7.46377 26.178 3.83475 21.4662 3.55046 16.5961C2.86385 4.92604 18.1682 -0.740453 25.2468 8.56864Z" fill="black"/>
<path d="M13.1066 11.8085C13.6367 11.5052 13.9374 10.9971 14.2952 10.6139C15.479 9.34984 17.7794 9.29708 18.4175 10.9644C18.577 11.3815 18.5625 11.8027 18.3769 12.1499C17.4539 13.8748 13.9264 13.1407 13.3565 16.9371C13.2139 17.8866 13.3217 18.8323 13.4259 19.7471C13.466 20.0993 13.5266 20.6313 13.9064 20.9942C14.3666 21.4347 15.3708 21.3924 15.4977 20.7441C15.7648 19.3808 14.9925 17.9311 15.5514 16.854C16.213 15.5776 18.2664 15.3994 19.5623 14.5656C21.3286 13.4276 21.8975 10.9504 20.805 9.15596C19.77 7.45663 17.3919 6.53938 15.2747 7.0197C13.2434 7.48143 11.573 9.12785 11.1183 11.1169C10.9214 11.9774 12.4157 12.2044 13.1066 11.8085ZM15.4152 7.63892C17.2799 7.2144 19.363 8.00888 20.2627 9.48582C21.1808 10.9938 20.7025 13.0755 19.2183 14.0316C17.909 14.8751 15.8122 14.9709 14.9876 16.5613C14.3015 17.8846 15.1163 19.364 14.8764 20.6135C14.8034 20.671 14.4806 20.6648 14.3452 20.5354C14.1474 20.3465 14.0976 20.034 14.0567 19.6752C13.9571 18.8013 13.8541 17.8977 13.9844 17.0313C14.4979 13.6097 17.8339 14.5109 18.9366 12.4492C19.2107 11.9371 19.2367 11.3294 19.0104 10.7375C18.2111 8.64904 15.3672 8.54014 13.8316 10.1799C13.4586 10.579 13.2003 11.0232 12.7906 11.2579C12.4927 11.4294 11.8278 11.3612 11.7371 11.2583C12.1389 9.50235 13.6169 8.04773 15.4152 7.63892Z" fill="black"/>
<path d="M15.1004 22.233C14.7523 21.8742 13.461 22.5892 13.5053 23.7054C13.5363 24.4772 14.2174 25.1434 14.9932 25.1434C16.1808 25.1434 16.9916 23.6971 16.0669 22.7021C15.8066 22.4223 15.4557 22.2524 15.1004 22.233ZM14.9805 24.5085C14.5575 24.5011 14.1567 24.1063 14.1398 23.6801C14.1236 23.2738 14.4465 22.8704 14.845 22.7807C14.8993 22.8319 14.9719 22.8642 15.0523 22.8666C15.4674 22.8797 15.8497 23.2934 15.8321 23.7124C15.8151 24.1295 15.3883 24.5184 14.9805 24.5085Z" fill="black"/>
</svg>
