<svg width="25" height="24" viewBox="0 0 25 24" fill="none" xmlns="http://www.w3.org/2000/svg">
<path d="M8.15774 20.5083C7.38439 20.3879 6.64056 20.3581 5.79118 20.3967C5.40189 20.4145 5.29869 20.9637 5.64905 21.1369C5.99549 21.308 6.4663 21.4047 6.84435 21.4823C8.99562 21.9225 11.1986 22.0033 13.6355 21.5651C14.2615 21.4528 14.986 21.3485 15.5937 21.1092C17.863 20.524 20.0561 18.8205 21.2441 17.035C24.1938 12.6003 22.1742 2.97649 14.1112 2.32462C12.454 2.02182 10.6868 2.16943 8.95643 2.81842C4.9034 4.33847 2.44409 8.07407 2.69151 12.3346C2.88223 15.6448 4.98674 18.9446 8.158 20.508L8.15774 20.5083ZM9.12182 3.27119C13.021 1.80862 17.0604 3.01071 19.4531 6.19922C22.1081 9.73834 21.8999 15.3778 18.3359 18.5394C15.2295 21.3015 10.3587 21.9641 6.68707 18.9992C1.09491 14.4715 2.29882 5.83083 9.12182 3.27119Z" fill="black"/>
<path d="M11.9253 8.30937C13.7472 8.30937 14.5592 5.85084 12.8262 5.14412C12.2287 4.90061 11.4514 4.97089 10.9359 5.31551C9.66695 6.16358 10.3201 8.30937 11.9253 8.30937Z" fill="black"/>
<path d="M12.0819 5.66435C10.8354 5.66435 10.2796 7.34664 11.4655 7.83025C11.8742 7.99668 12.4061 7.9486 12.7588 7.71268C13.627 7.13267 13.1802 5.66435 12.0819 5.66435Z" fill="black"/>
<path d="M13.4002 16.5033C13.4542 17.3133 12.8118 18 12 18C11.1882 18 10.5458 17.3133 10.5998 16.5033L11.0401 9.89801C11.0738 9.39267 11.4935 9 12 9C12.5065 9 12.9262 9.39267 12.9599 9.89801L13.4002 16.5033Z" fill="black"/>
</svg>
