<svg width="25" height="24" viewBox="0 0 25 24" fill="none" xmlns="http://www.w3.org/2000/svg">
<path d="M8.15774 20.5088C7.38439 20.3883 6.64056 20.3586 5.79118 20.3972C5.40189 20.415 5.29869 20.9642 5.64905 21.1374C5.99549 21.3085 6.4663 21.4052 6.84435 21.4828C8.99562 21.923 11.1986 22.0038 13.6355 21.5656C14.2615 21.4533 14.986 21.349 15.5937 21.1097C17.863 20.5245 20.0561 18.821 21.2441 17.0355C24.1938 12.6007 22.1742 2.97697 14.1112 2.32511C12.454 2.0223 10.6868 2.16992 8.95643 2.81891C4.9034 4.33896 2.44409 8.07456 2.69151 12.335C2.88223 15.6453 4.98674 18.9451 8.158 20.5085L8.15774 20.5088ZM9.12182 3.27168C13.021 1.80911 17.0604 3.0112 19.4531 6.1997C22.1081 9.73883 21.8999 15.3783 18.3359 18.5399C15.2295 21.302 10.3587 21.9646 6.68707 18.9997C1.09491 14.4719 2.29882 5.83132 9.12182 3.27168Z" fill="black"/>
<path d="M10.0577 18.3729C11.3439 18.3729 12.6181 18.2046 13.8732 18.1134C13.9327 18.1091 13.9884 18.083 14.0298 18.0401C14.0712 17.9972 14.0952 17.9405 14.0974 17.8809C14.1034 17.7064 14.1624 17.4726 14.1698 17.2594C14.1708 17.2261 14.165 17.1929 14.1527 17.1619C14.1403 17.131 14.1217 17.1029 14.098 17.0795C14.0743 17.0561 14.0461 17.0378 14.015 17.0258C13.9839 17.0138 13.9507 17.0084 13.9174 17.0099L12.6069 17.0671C12.7566 14.2509 12.9149 11.6583 13.0521 9.04695C13.0539 9.01167 13.0479 8.97642 13.0346 8.94369C13.0213 8.91095 13.001 8.88152 12.9752 8.85747C12.9493 8.83341 12.9185 8.81532 12.8849 8.80445C12.8512 8.79358 12.8157 8.79021 12.7806 8.79457C11.56 8.94375 12.2361 8.86668 11.0393 9.01246C10.9805 9.01963 10.9263 9.0481 10.8872 9.0925C10.848 9.1369 10.8264 9.19413 10.8266 9.25335C10.853 9.97236 10.7701 10.1192 10.9152 10.2417C11.0557 10.3611 11.1759 10.2634 11.6984 10.2031L11.2457 17.1266L10.047 17.1789C9.98472 17.1816 9.92591 17.2082 9.88279 17.2532C9.83967 17.2981 9.81556 17.358 9.81548 17.4203V18.1312C9.81548 18.2645 9.92391 18.3729 10.0577 18.3729ZM12.2408 8.27046C14.0626 8.27046 14.8747 5.81194 13.1417 5.10521C12.5442 4.86171 11.7669 4.93199 11.2514 5.2766C9.98243 6.12468 10.6356 8.27046 12.2408 8.27046ZM2.5243 5.11201C2.46786 5.2476 2.51306 5.4122 2.62541 5.48013C3.76584 6.15681 3.74363 6.18033 3.84004 6.18033C4.07962 6.18033 4.15591 5.79052 3.94246 5.66145L2.82998 4.98999C2.71764 4.92259 2.58073 4.97693 2.5243 5.11201ZM5.0066 4.50534C5.05153 4.57406 5.13357 4.61273 5.2177 4.61273C5.4032 4.61273 5.52155 4.43585 5.42854 4.29267C5.13148 3.83702 4.74977 3.43415 4.2936 3.09581C4.19092 3.01952 4.0373 3.03049 3.95082 3.12089C3.86408 3.21129 3.87714 3.3461 3.97956 3.42213C4.38345 3.71933 4.73141 4.08614 5.0066 4.50534ZM6.37564 3.73905C6.57289 3.71893 6.70745 3.60058 6.67557 3.47491L6.35421 2.19418C6.32234 2.06851 6.13475 1.98281 5.93984 2.00293C5.74232 2.02331 5.60803 2.1414 5.63991 2.26707L5.96127 3.5478C5.99262 3.67242 6.17655 3.7589 6.37564 3.73905Z" fill="black"/>
<path d="M12.2724 7.74776C13.5189 7.74776 14.0746 6.06546 12.8887 5.58186C12.4801 5.41543 11.9482 5.46351 11.5954 5.69943C10.7272 6.27944 11.174 7.74776 12.2724 7.74776Z" fill="#FFE300"/>
</svg>
