<svg width="24" height="24" viewBox="0 0 24 24" fill="none" xmlns="http://www.w3.org/2000/svg">
<path d="M19.2428 18.6536C19.098 18.4947 19.1095 18.2486 19.2684 18.1038C20.2034 17.2516 20.9494 16.2128 21.4581 15.0544C21.9667 13.8961 22.2267 12.6439 22.2214 11.3788C22.216 10.1137 21.9453 8.86377 21.4268 7.70976C20.9084 6.55577 20.1536 5.52334 19.2113 4.67917C19.0512 4.53574 19.0377 4.28963 19.1811 4.12952C19.3246 3.9694 19.5706 3.95588 19.7308 4.09934C20.7542 5.01614 21.5739 6.1374 22.137 7.39072C22.7 8.64402 22.994 10.0015 22.9998 11.3755C23.0057 12.7495 22.7233 14.1094 22.1709 15.3674C21.6184 16.6255 20.8083 17.7537 19.7928 18.6792C19.6339 18.824 19.3876 18.8125 19.2428 18.6536Z" fill="black"/>
<path d="M4.75711 4.18079C4.90191 4.33968 4.89047 4.58587 4.73157 4.73067C3.79651 5.58283 3.05054 6.62162 2.54188 7.78C2.03326 8.93834 1.77321 10.1905 1.77858 11.4556C1.78398 12.7207 2.05464 13.9707 2.5731 15.1247C3.09159 16.2787 3.84636 17.3111 4.78864 18.1553C4.94878 18.2987 4.96227 18.5448 4.81884 18.7049C4.67539 18.865 4.4293 18.8785 4.26917 18.7351C3.24579 17.8183 2.42607 16.697 1.863 15.4437C1.29989 14.1904 1.00593 12.8329 1.00009 11.4589C0.99425 10.085 1.27666 8.72503 1.82908 7.46698C2.38151 6.20894 3.19165 5.08074 4.2072 4.15525C4.36609 4.01045 4.61231 4.02189 4.75711 4.18079Z" fill="black"/>
<path d="M7.43749 6.7795C7.59641 6.6347 7.60783 6.38851 7.46303 6.22961C7.31822 6.07072 7.07203 6.05928 6.91311 6.20408C6.18412 6.86843 5.60254 7.67832 5.206 8.58139C4.80945 9.48449 4.60673 10.4607 4.6109 11.447C4.61511 12.4333 4.82614 13.4078 5.23034 14.3074C5.63457 15.2071 6.22299 16.012 6.95762 16.6702C7.11773 16.8136 7.36382 16.8001 7.50727 16.64C7.65073 16.4798 7.63721 16.2338 7.47707 16.0903C6.82353 15.5048 6.30006 14.7888 5.94047 13.9884C5.58087 13.188 5.39315 12.3211 5.38941 11.4437C5.38568 10.5663 5.56603 9.6978 5.91883 8.8944C6.2716 8.09101 6.78897 7.37052 7.43749 6.7795Z" fill="black"/>
<path d="M13.5 11L11.5 10H11V13L13.5 11.5V11Z" fill="#FFE300"/>
<path fill-rule="evenodd" clip-rule="evenodd" d="M11.9025 9.53905C11.297 9.17834 10.5293 9.61459 10.5293 10.3193V12.4891C10.5293 13.2038 11.3166 13.6385 11.9214 13.2577L13.6923 12.1431C14.2664 11.7817 14.2561 10.9414 13.6733 10.5941L11.9025 9.53905ZM11.3078 10.3193C11.3078 10.2186 11.4175 10.1563 11.504 10.2078L13.2748 11.263C13.3581 11.3126 13.3595 11.4326 13.2775 11.4842L11.5067 12.5989C11.4203 12.6533 11.3078 12.5912 11.3078 12.4891V10.3193Z" fill="black"/>
<path fill-rule="evenodd" clip-rule="evenodd" d="M16.3248 11.4172C16.3248 13.8057 14.3885 15.7421 11.9999 15.7421C9.61136 15.7421 7.67505 13.8057 7.67505 11.4172C7.67505 9.02862 9.61136 7.09229 11.9999 7.09229C14.3885 7.09229 16.3248 9.02862 16.3248 11.4172ZM15.5463 11.4172C15.5463 13.3758 13.9585 14.9636 11.9999 14.9636C10.0413 14.9636 8.45356 13.3758 8.45356 11.4172C8.45356 9.45857 10.0413 7.8708 11.9999 7.8708C13.9585 7.8708 15.5463 9.45857 15.5463 11.4172Z" fill="black"/>
<path d="M16.5627 16.0549C16.4037 16.1997 16.3923 16.4459 16.5371 16.6048C16.6819 16.7637 16.9281 16.7751 17.087 16.6303C17.816 15.966 18.3976 15.1561 18.7942 14.253C19.1907 13.35 19.3934 12.3737 19.3893 11.3874C19.3851 10.4011 19.1741 9.42665 18.7698 8.52698C18.3656 7.62728 17.7772 6.82238 17.0425 6.16426C16.8824 6.02083 16.6363 6.03435 16.4929 6.19446C16.3494 6.35458 16.363 6.60066 16.5231 6.74412C17.1766 7.32961 17.7001 8.04566 18.0597 8.84602C18.4193 9.6464 18.607 10.5133 18.6107 11.3907C18.6145 12.2682 18.4341 13.1366 18.0813 13.94C17.7286 14.7434 17.2112 15.4639 16.5627 16.0549Z" fill="black"/>
</svg>
