<svg width="32" height="32" viewBox="0 0 32 32" fill="none" xmlns="http://www.w3.org/2000/svg">
<path d="M3.63388 26.0971L27.4961 25.8788C27.7791 25.8762 28.1047 25.8531 28.2732 25.6257C28.4752 25.3532 28.3048 24.9361 28.0153 24.7595C27.7385 24.5906 27.3985 24.5807 27.0728 24.5817C27.1529 23.8929 26.7098 11.9551 26.6574 7.0346C26.6553 6.85437 26.5093 6.70968 26.3291 6.70925C25.0335 6.70678 5.05893 6.66862 3.69724 6.66602C3.54427 6.66602 3.40306 6.76596 3.37799 6.95203C3.03914 7.43416 2.74542 8.2024 2.77731 8.72953C3.11039 14.2348 3.02167 19.5278 2.66874 25.0725C2.63327 25.6296 3.07561 26.1022 3.63388 26.0971ZM25.6962 7.36577C22.2508 10.3854 19.0518 14.0607 15.7088 16.955C11.635 14.1468 7.80367 10.5599 4.52881 7.32537L25.6962 7.36577ZM4.10137 8.55557C6.68769 11.619 9.61542 14.3661 12.8061 16.7232C13.5064 17.2405 14.4846 17.8183 15.3389 17.8895C16.0662 17.9502 18.8906 15.1735 20.0891 13.7156C21.992 11.8136 23.9614 9.77409 26.0135 7.96364C26.0963 13.6617 26.3515 18.6465 26.419 24.2247C18.9481 24.4143 11.5835 24.2903 4.09236 24.4789C4.24136 19.5269 4.332 14.1821 4.09078 8.45604L4.10137 8.55557Z" fill="black"/>
</svg>
