<svg width="24" height="24" viewBox="0 0 24 24" fill="none" xmlns="http://www.w3.org/2000/svg">
<path d="M2.20643 23.3042C2.20643 23.442 2.34418 23.5452 2.44739 23.5452H2.48193C7.12857 23.1667 12.6359 23.5108 17.6614 23.3731C17.7301 23.3731 17.799 23.3388 17.8335 23.3042V23.2699C18.1431 23.1665 18.3841 23.0289 18.6596 22.9257V4.09758C18.3841 3.7534 18.0399 3.4781 17.6614 3.27147V3.13392C17.6614 3.0305 17.558 2.92729 17.4205 2.89295C15.3552 2.61744 13.2555 2.7552 11.2591 2.89295C9.22839 3.0305 7.3352 3.13392 5.47655 2.89295H5.442C4.85686 2.89295 4.30625 3.16825 3.92753 3.61565C3.37672 4.33855 2.89499 4.99257 2.37872 5.68093C2.13775 6.02511 2 6.40383 2 6.85122C2.34418 12.9093 1.75903 18.7951 2.20643 23.3042ZM11.328 3.37468C13.2555 3.23713 15.2517 3.13392 17.2138 3.34034C17.9367 10.1211 17.1449 17.1429 17.3859 22.8225C12.3262 22.9944 7.36953 22.6502 2.68836 22.9944C2.30984 18.5198 2.86045 13.1503 2.55081 6.98898L5.02895 7.09219C5.47655 7.12653 5.82073 6.74801 5.75185 6.30041L5.37333 3.37468H5.442C7.36974 3.65019 9.29706 3.51243 11.328 3.37468ZM4.37492 3.92549C4.51477 3.75166 4.69108 3.61066 4.8914 3.51243L5.23558 6.36929C5.23558 6.47271 5.1667 6.57592 5.02895 6.57592L2.55081 6.4725C2.58515 6.30041 2.65402 6.12832 2.79157 5.99057C3.34238 5.26787 3.82432 4.64819 4.37492 3.92549Z" fill="black"/>
<path d="M5.3411 9.44775C4.70983 9.49284 4.12386 10.1241 4.16895 10.7552C4.21404 11.3865 4.80001 11.9726 5.43128 11.9275C6.06235 11.9275 6.64853 11.2963 6.64853 10.6652C6.64853 10.0339 6.06235 9.44775 5.38619 9.44775H5.3411Z" fill="black"/>
<path d="M5.36317 9.86182C4.94267 9.89201 4.55195 10.3127 4.58194 10.7334C4.61194 11.1544 5.00265 11.5451 5.42357 11.5151C5.84428 11.5151 6.235 11.0942 6.235 10.6732C6.235 10.2525 5.84407 9.86182 5.39337 9.86182H5.36317Z" fill="#FFE300"/>
<path d="M5.3411 13.585C4.70983 13.6301 4.12386 14.2613 4.16895 14.8924C4.21404 15.5237 4.80001 16.1098 5.43128 16.0648C6.06235 16.0648 6.64853 15.4335 6.64853 14.8024C6.64853 14.1711 6.06235 13.585 5.38619 13.585H5.3411Z" fill="black"/>
<path d="M5.36317 13.9985C4.94267 14.0287 4.55195 14.4494 4.58194 14.8702C4.61194 15.2911 5.00265 15.6818 5.42357 15.6518C5.84428 15.6518 6.235 15.2309 6.235 14.81C6.235 14.3893 5.84407 13.9985 5.39337 13.9985H5.36317Z" fill="#FFE300"/>
<path d="M5.3411 17.7217C4.70983 17.7668 4.12386 18.398 4.16895 19.0291C4.21404 19.6604 4.80001 20.2466 5.43128 20.2015C6.06235 20.2015 6.64853 19.5702 6.64853 18.9391C6.64853 18.3079 6.06235 17.7217 5.38619 17.7217H5.3411Z" fill="black"/>
<path d="M5.36317 18.1353C4.94267 18.1655 4.55195 18.5862 4.58194 19.0069C4.61194 19.4278 5.00265 19.8185 5.42357 19.7885C5.84428 19.7885 6.235 19.3676 6.235 18.9467C6.235 18.526 5.84407 18.1353 5.39337 18.1353H5.36317Z" fill="#FFE300"/>
<path d="M7.64384 11.0499H13.6331C13.7706 11.0499 13.9084 10.9465 13.9084 10.7744C13.9084 10.6023 13.8049 10.4993 13.6331 10.4993H7.64384C7.50609 10.4993 7.36854 10.6023 7.36854 10.7744C7.36854 10.9467 7.50609 11.0499 7.64384 11.0499ZM7.57538 15.0079H11.7403C11.8778 15.0079 12.0154 14.9045 12.0154 14.7324C12.0154 14.5603 11.9124 14.4573 11.7403 14.4573H7.57538C7.43763 14.4573 7.29987 14.5603 7.29987 14.7324C7.29987 14.9045 7.43763 15.0079 7.57538 15.0079ZM7.5065 19.2421H12.119C12.2566 19.2421 12.3941 19.1389 12.3941 18.967C12.3941 18.7947 12.2909 18.7259 12.119 18.7259H7.5065C7.36875 18.7259 7.2312 18.8293 7.2312 19.0014C7.2312 19.1735 7.36896 19.2421 7.5065 19.2421ZM18.3839 2.4458L18.5217 1.2753C18.5217 1.13775 18.4183 1 18.2807 1C18.143 1 18.0054 1.10342 18.0054 1.24097L17.8677 2.41126C17.8677 2.54902 17.9711 2.68656 18.1086 2.68656C18.2464 2.68656 18.3839 2.58356 18.3839 2.4458ZM20.0362 1.51627L19.038 2.72111C18.9346 2.82432 18.9691 2.9962 19.0723 3.09962C19.1757 3.20304 19.3478 3.1685 19.451 3.06528L20.4492 1.86045C20.5526 1.75724 20.5181 1.58515 20.4149 1.48193C20.3115 1.37851 20.1394 1.41306 20.0362 1.51627ZM19.4854 3.75364C19.4854 3.8914 19.5888 4.02895 19.7609 4.02895H20.7247C20.8623 4.02895 20.9998 3.92573 20.9998 3.75364C20.9998 3.58155 20.8966 3.47834 20.7247 3.47834H19.7609C19.5888 3.51268 19.4854 3.61589 19.4854 3.75364Z" fill="black"/>
</svg>
