<svg width="24" height="24" viewBox="0 0 24 24" fill="none" xmlns="http://www.w3.org/2000/svg">
<path d="M10.3068 14.3529C10.8974 14.6997 11.5287 14.8748 12.1537 14.8748C12.5819 14.8748 13.0069 14.7935 13.4163 14.6279C14.4726 14.2029 15.2695 13.2934 15.6007 12.1278C16.007 10.6996 15.9289 9.19643 15.8507 7.74325C15.8289 7.30574 15.8039 6.87135 15.7945 6.44008C15.7664 5.24941 15.6195 3.75561 14.7163 2.79308C14.5913 2.66182 14.4476 2.54307 14.2851 2.44307C13.1506 1.73367 11.2881 1.94617 10.2599 2.58682C8.79112 3.50248 8.57548 5.38692 8.54111 6.72447C8.53486 7.00573 8.51923 7.31824 8.50048 7.64637C8.38798 9.9652 8.23172 13.1341 10.3068 14.3529ZM8.95987 7.67137C8.9755 7.33699 8.99112 7.02135 9.0005 6.73697C9.03175 5.50567 9.22551 3.77436 10.5037 2.97434C11.0131 2.65557 11.7787 2.45557 12.5225 2.45557C13.0819 2.45557 13.6288 2.56807 14.0444 2.83058C14.1726 2.91183 14.2851 3.00246 14.3819 3.10559C15.1788 3.95562 15.3101 5.34004 15.3351 6.45258C15.3445 6.88697 15.3695 7.32761 15.3913 7.77138C15.4663 9.18705 15.5445 10.6496 15.1601 12.0059C14.8663 13.0341 14.1694 13.8341 13.2444 14.206C12.3694 14.556 11.4068 14.4716 10.5349 13.9591C8.70361 12.8809 8.85049 9.87145 8.95987 7.67137Z" fill="black" stroke="black" stroke-width="0.187507"/>
<path d="M13.9415 17.5187C14.0978 17.4999 14.2572 17.4843 14.4166 17.4437C15.026 17.2968 15.5791 17.0936 16.0635 16.8343C16.9979 16.3342 17.776 15.5655 18.3136 14.6061C19.0167 13.3498 19.4199 11.9341 19.3855 10.8247C19.3542 9.79339 18.9417 9.18399 18.2542 9.15899C17.1041 9.12149 17.0198 10.4872 16.9823 11.0747C16.9166 12.081 16.6791 12.9591 16.2729 13.681C15.551 14.9717 14.3697 15.5655 12.329 15.6686C10.8227 15.7436 9.257 14.9373 8.34447 13.6123C7.91945 12.9966 7.66632 12.2841 7.56944 11.4372C7.55382 11.2966 7.55069 11.1184 7.54757 10.9278C7.53507 10.2872 7.51944 9.49025 7.00692 9.12462C6.51316 8.7746 5.82251 8.86211 5.43187 9.32775C4.85997 10.0059 4.95998 11.2653 5.14436 12.2028C5.37249 13.356 5.94126 14.4561 6.79442 15.3811C7.46006 16.1061 8.28197 16.6968 9.1695 17.0936C9.62889 17.2999 10.1133 17.4562 10.6039 17.5593C11.2008 17.6874 11.3915 17.7499 11.3977 18.2656C11.404 18.6062 11.4008 18.95 11.3977 19.2937C11.3946 19.4937 11.3946 19.6937 11.3946 19.8937C11.3946 20.1406 11.1914 20.3438 10.9446 20.3438H7.71632C7.21318 20.3438 6.80379 20.7156 6.80379 21.1719C6.80379 21.6282 7.21318 22.0001 7.71632 22.0001H16.7885C17.2917 22.0001 17.701 21.6282 17.701 21.1719C17.701 20.7156 17.2917 20.3438 16.7885 20.3438H13.679C13.4321 20.3438 13.229 20.1406 13.229 19.8937V19.275C13.229 18.8625 13.2259 18.4499 13.229 18.0374C13.2321 17.6187 13.4134 17.578 13.9415 17.5187ZM12.7727 19.8937C12.7727 20.3938 13.179 20.8 13.679 20.8H16.7885C17.0385 20.8 17.2448 20.9657 17.2448 21.1688C17.2448 21.3719 17.0416 21.5375 16.7885 21.5375H7.71632C7.46631 21.5375 7.26006 21.3719 7.26006 21.1688C7.26006 20.9657 7.46319 20.8 7.71632 20.8H10.9539C11.454 20.8 11.8602 20.3938 11.8602 19.8937C11.8602 19.6969 11.8602 19.4969 11.8633 19.2968C11.8665 18.95 11.8696 18.6031 11.8633 18.2593C11.8508 17.3562 11.2696 17.2343 10.7071 17.1124C10.2445 17.0155 9.79452 16.8686 9.36326 16.6749C8.52885 16.303 7.76007 15.7467 7.13818 15.0686C6.3444 14.2029 5.81313 13.181 5.60062 12.1091C5.36624 10.9247 5.43499 10.0371 5.78813 9.61526C6.02564 9.33087 6.44753 9.27775 6.74754 9.49025C7.07255 9.72151 7.08505 10.3903 7.09443 10.9309C7.09755 11.1309 7.10068 11.3216 7.11943 11.4841C7.22568 12.4091 7.50382 13.1904 7.97258 13.8685C8.97262 15.3217 10.6946 16.203 12.3571 16.1217C14.5759 16.0092 15.8666 15.3467 16.676 13.8998C17.1135 13.1185 17.3729 12.1747 17.4417 11.0997C17.501 10.1903 17.6573 9.58713 18.2386 9.61213C18.7792 9.63401 18.9136 10.2872 18.9292 10.8341C18.9605 11.8653 18.5792 13.1873 17.9167 14.3779C17.4229 15.2592 16.7073 15.9686 15.851 16.4249C15.401 16.6655 14.8822 16.8561 14.3134 16.9936C14.179 17.0249 14.0322 17.0436 13.8915 17.0593C13.4228 17.1124 12.779 17.1843 12.7727 18.0312C12.7696 18.4437 12.7696 18.8593 12.7727 19.2718V19.8937Z" fill="black" stroke="black" stroke-width="0.187507"/>
<path d="M14.3104 5.0588C14.5386 5.64944 14.6198 6.22446 14.6323 6.6401C14.6448 7.05574 14.6105 7.31825 14.648 7.3245C14.673 7.33075 14.7605 7.07449 14.7886 6.64323C14.8167 6.21196 14.7542 5.60257 14.5136 4.98067C14.2698 4.3619 13.9042 3.87126 13.5917 3.57125C13.2792 3.27124 13.0417 3.14311 13.026 3.16498C13.0042 3.19311 13.2073 3.36186 13.4792 3.6775C13.7511 3.99314 14.0792 4.47128 14.3104 5.0588Z" fill="black" stroke="black" stroke-width="0.187507"/>
</svg>
