<svg width="24" height="24" viewBox="0 0 24 24" fill="none" xmlns="http://www.w3.org/2000/svg">
<g clip-path="url(#clip0_1038_737)">
<path d="M2.02936 5.6771C2.02587 5.6924 2.02269 5.70778 2.01984 5.72321C1.95734 6.0607 2.05604 6.40398 2.12882 6.73195C2.20465 7.07281 2.28029 7.41347 2.35554 7.75433C2.68706 9.25457 3.01343 10.7559 3.32914 12.2593C3.64694 13.7719 3.95407 15.2867 4.24481 16.8045C4.53317 18.3037 4.8019 19.8064 5.05093 21.3123C5.09894 21.6041 5.36339 21.7435 5.63909 21.6237C5.66328 21.613 5.68824 21.6018 5.71606 21.5906C5.76198 21.572 5.74083 21.5005 5.73416 21.4521C5.0877 16.8668 4.24329 11.911 3.24188 7.39219C3.14966 6.97593 2.94199 6.62742 2.80843 6.22273C2.7345 5.99873 2.72707 5.70865 2.64248 5.47382C2.60742 5.37623 2.57141 5.27897 2.53445 5.18206C2.52111 5.14697 2.40032 4.93454 2.40984 4.92017C2.25247 5.15723 2.09205 5.40233 2.02936 5.6771ZM20.6922 5.82681C20.6539 5.82674 20.6161 5.8174 20.5824 5.79961C20.5486 5.78182 20.5198 5.75614 20.4986 5.72484C20.4774 5.69354 20.4643 5.65759 20.4607 5.62019C20.4571 5.58278 20.4629 5.54507 20.4777 5.51041C20.5135 5.42753 20.4859 5.23059 20.3438 4.97673C20.1351 4.60358 19.719 4.19161 19.3279 4.1259C19.2687 4.11404 19.2165 4.0801 19.1824 4.03125C19.1483 3.98241 19.1349 3.92248 19.145 3.86414C19.1552 3.80579 19.1881 3.75359 19.2368 3.71856C19.2855 3.68353 19.3461 3.66841 19.406 3.67641C19.9709 3.77086 20.4889 4.28774 20.7521 4.75777C20.9544 5.11897 21.0093 5.44918 20.9068 5.68737C20.8692 5.77454 20.7829 5.82681 20.6922 5.82681ZM12.6705 9.53457C12.9144 9.76081 13.0908 10.0931 13.3021 10.3488L12.5413 10.5467C12.2734 10.6161 12.3655 10.4035 12.4114 10.2342C12.4678 10.027 12.5889 9.73337 12.6705 9.53457Z" fill="black"/>
<path d="M20.7227 5.56078C21.0072 5.31578 21.2832 5.06146 21.5502 4.79824C21.6895 4.66086 21.8339 4.50611 21.8558 4.31366C21.8834 4.07136 21.7095 3.85464 21.5349 3.68086C21.34 3.48635 21.1171 3.29912 20.8449 3.24294C20.5661 3.18563 20.2725 3.27896 20.0557 3.4535C19.8857 3.59032 19.6409 3.8539 19.7257 4.0904C19.8114 4.32952 20.1262 4.4363 20.2784 4.64406C20.4611 4.89363 20.6162 5.272 20.7227 5.56078ZM6.90666 19.7211C6.80625 19.8475 6.95925 20.0017 7.08271 20.0659C10.8751 19.1669 14.9134 18.2689 18.7706 17.6926C18.8773 17.559 18.9752 17.3841 18.8742 17.1347C17.4704 17.3841 15.8325 17.5829 14.4287 17.8324C11.859 18.289 9.35627 18.8343 6.90666 19.7211Z" fill="black"/>
<path d="M5.63871 21.5992C5.58237 21.5991 5.52798 21.579 5.4856 21.5426C5.44323 21.5063 5.41572 21.4561 5.40817 21.4014C4.92957 17.906 4.4542 14.8257 3.99541 12.2463C3.99275 12.2321 3.98836 12.2131 3.98665 12.1899C3.51338 9.54356 3.08908 7.5593 2.69068 6.12439C2.68935 6.12122 2.6884 6.11786 2.68764 6.11468L2.67697 6.08295L2.67811 6.0822C2.65688 6.04615 2.64588 6.00519 2.64625 5.96358C2.64662 5.92196 2.65834 5.88119 2.68021 5.84551C2.77166 5.7014 3.01782 5.72063 3.08812 5.86492C3.09512 5.87681 3.10099 5.88931 3.10565 5.90226C3.10565 5.90263 3.1167 5.93343 3.11708 5.9338L3.13214 5.98047C3.13461 5.987 3.13671 5.99354 3.13842 6.00007C3.54177 7.4514 3.97026 9.45508 4.44734 12.125C4.45001 12.138 4.45115 12.1513 4.45115 12.1644C4.90327 14.6937 5.36816 17.6983 5.83648 21.101C9.64797 20.3678 13.5277 20.0447 17.2818 19.7322L17.3176 19.7292C17.2195 19.155 17.1189 18.5696 17.016 17.9749C17.0109 17.9454 17.0118 17.9152 17.0186 17.886C17.0254 17.8568 17.038 17.8292 17.0557 17.8048C17.0734 17.7804 17.0958 17.7597 17.1217 17.7438C17.1476 17.7279 17.1764 17.7171 17.2066 17.7121C17.33 17.6884 17.4533 17.7744 17.4748 17.8988C17.5904 18.5675 17.7054 19.2364 17.8197 19.9054C17.8328 19.9812 17.8061 20.0581 17.7488 20.1104C17.7221 20.1343 17.6902 20.1519 17.6555 20.1619C17.6208 20.1718 17.5842 20.1738 17.5486 20.1677L17.3213 20.1864C13.5269 20.5026 9.603 20.8291 5.76503 21.5796L5.69053 21.5936C5.67338 21.5974 5.65586 21.5992 5.63871 21.5992ZM15.7134 9.51388C15.585 9.51388 15.4808 9.41308 15.4808 9.28727V9.28428C15.4825 9.22494 15.5078 9.1686 15.5512 9.12722C15.5947 9.08585 15.6529 9.0627 15.7135 9.0627C15.7741 9.0627 15.8323 9.08585 15.8758 9.12722C15.9192 9.1686 15.9445 9.22494 15.9462 9.28428C15.9462 9.41028 15.842 9.51388 15.7134 9.51388Z" fill="black"/>
<path d="M7.06192 19.9129C7.00586 19.913 6.95167 19.8932 6.90934 19.8572C6.867 19.8211 6.83939 19.7713 6.83158 19.7169L6.83081 19.7125L5.13874 13.6075L3.6976 8.98361L3.11249 7.27934C3.06467 7.14476 3.01646 7.01073 2.96788 6.87726L2.80498 6.43393C2.78135 6.37009 2.75849 6.30886 2.73182 6.24465C2.71181 6.19556 2.69333 6.14758 2.67618 6.09905C2.66852 6.07733 2.66165 6.05536 2.65561 6.03316C2.65046 6.01598 2.64608 5.99806 2.63884 5.98238C2.60645 5.91257 2.57711 5.83604 2.54891 5.76156L2.34219 5.23814C2.33971 5.23165 2.33736 5.22512 2.33514 5.21854C2.30903 5.1884 2.29136 5.15213 2.28385 5.11328C2.27635 5.07444 2.27927 5.03435 2.29233 4.99694C2.30539 4.95953 2.32814 4.92609 2.35835 4.89988C2.38857 4.87368 2.42521 4.85561 2.4647 4.84745C3.64733 4.60273 4.83375 4.37596 6.02355 4.16724C7.39116 3.92698 8.76541 3.72449 10.1447 3.56001C11.3316 3.41516 12.5863 3.29233 13.9796 3.18425L14.6438 3.13553C14.772 3.12956 14.8831 3.2214 14.892 3.34721C14.8941 3.37708 14.8902 3.40707 14.8805 3.43546C14.8708 3.46386 14.8555 3.4901 14.8354 3.51268C14.8154 3.53527 14.7909 3.55377 14.7636 3.56711C14.7362 3.58045 14.7064 3.58837 14.676 3.59044L14.0144 3.63897C12.6299 3.7463 11.3821 3.86857 10.2014 4.01249C8.83054 4.1761 7.46462 4.37747 6.10529 4.61636C5.01439 4.80755 3.92637 5.01415 2.84156 5.23609L2.98503 5.60252C3.00979 5.6671 3.03475 5.73356 3.06276 5.79385C3.07934 5.83006 3.09172 5.86926 3.10334 5.90865L3.11573 5.94841C3.13059 5.99097 3.14659 6.03241 3.16355 6.07404C3.19213 6.14254 3.2169 6.20918 3.24262 6.27825L3.40647 6.72438C3.45544 6.85897 3.50421 6.99412 3.55203 7.12945L4.5824 10.202L6.37469 16.2321L7.22825 19.3934C9.90325 18.5676 12.7116 18.0784 15.4304 17.6048C15.9992 17.5057 16.5669 17.4069 17.1318 17.3052C17.5761 17.2249 18.0199 17.1423 18.4632 17.0573C17.7455 14.6026 16.9495 11.9565 16.1792 9.39502L16.046 8.95318C16.0098 8.83241 16.0803 8.70566 16.2038 8.67001C16.263 8.65335 16.3265 8.66021 16.3806 8.6891C16.4347 8.718 16.475 8.76659 16.4928 8.82438L16.6254 9.26604C17.4157 11.8937 18.2331 14.6109 18.9575 17.0954C18.9689 17.1275 18.9784 17.1553 18.9857 17.1863C18.9934 17.2197 18.9934 17.2544 18.9856 17.2878C18.9778 17.3211 18.9625 17.3524 18.9407 17.3791C18.9189 17.4059 18.8912 17.4275 18.8597 17.4424C18.8282 17.4573 18.7937 17.465 18.7588 17.465C18.2621 17.5615 17.7394 17.6591 17.2161 17.7536C16.6502 17.8553 16.0817 17.9546 15.512 18.0537C12.7278 18.5389 9.84952 19.0403 7.13375 19.9021C7.11013 19.9096 7.08593 19.9129 7.06192 19.9129Z" fill="black"/>
<path d="M15.5734 6.7847C15.4724 6.7847 15.3796 6.71992 15.3499 6.62006C15.037 5.5637 14.7252 4.50704 14.4144 3.45008C14.3974 3.39196 14.4046 3.32959 14.4345 3.2767C14.4644 3.2238 14.5146 3.18471 14.5739 3.16803C14.6332 3.15135 14.6969 3.15843 14.7509 3.18774C14.8049 3.21704 14.8448 3.26615 14.8618 3.32427C15.1632 4.34982 15.4772 5.41251 15.7973 6.49312C15.8072 6.52712 15.809 6.56292 15.8025 6.5977C15.7959 6.63248 15.7812 6.6653 15.7595 6.69357C15.7378 6.72183 15.7097 6.74478 15.6774 6.76059C15.6451 6.7764 15.6095 6.78466 15.5734 6.7847Z" fill="black"/>
<path d="M12.0255 10.901C11.9902 10.901 11.9554 10.8931 11.9237 10.8779C11.892 10.8627 11.8642 10.8407 11.8424 10.8135C11.8206 10.7863 11.8054 10.7546 11.798 10.7208C11.7905 10.687 11.791 10.652 11.7994 10.6184C11.9274 10.111 12.1229 9.661 12.349 9.14038C12.4475 8.91321 12.5523 8.67185 12.6598 8.40585C12.676 8.36572 12.7036 8.33118 12.739 8.3058L19.8375 3.21969C20.4272 2.79652 21.2689 3.03302 21.6845 3.51892C21.9242 3.79948 22.0377 4.20212 21.9889 4.59636C21.947 4.93254 21.7898 5.21422 21.5465 5.38838L14.6034 10.363C14.5846 10.3766 14.564 10.3873 14.542 10.3948C14.0409 10.5641 13.3983 10.6686 12.8314 10.761C12.5487 10.8069 12.2818 10.8506 12.0762 10.8954C12.0592 10.8992 12.0425 10.901 12.0255 10.901ZM13.0677 8.63489C12.9733 8.86382 12.8765 9.09175 12.7771 9.31865C12.6139 9.69553 12.4668 10.0336 12.3536 10.378C12.4809 10.3556 12.616 10.3337 12.755 10.3112C13.291 10.224 13.8969 10.125 14.3578 9.9746L21.272 5.02028C21.4101 4.92097 21.5006 4.75092 21.5267 4.5411C21.5601 4.2738 21.4835 3.99454 21.3274 3.81161C21.0535 3.49092 20.4758 3.3274 20.1119 3.58761L13.0677 8.63526V8.63489Z" fill="black"/>
<path d="M14.3805 10.4283C14.3363 10.4284 14.2929 10.4161 14.2556 10.3928C14.2183 10.3696 14.1885 10.3364 14.1697 10.2972C14.1509 10.258 14.144 10.2143 14.1497 10.1713C14.1553 10.1284 14.1734 10.0879 14.2018 10.0546C14.2353 10.001 14.2254 9.76416 14.169 9.61669C14.1351 9.52784 13.9571 9.39362 13.852 9.37701C13.8085 9.37029 13.7678 9.35159 13.7348 9.3231C13.7017 9.29461 13.6776 9.25751 13.6652 9.2161C13.631 9.10424 13.5575 9.00784 13.4578 8.94394C13.3295 8.86218 13.059 8.77445 12.9727 8.7892C12.846 8.80824 12.728 8.71882 12.7109 8.59394C12.7067 8.56426 12.7086 8.53407 12.7164 8.5051C12.7241 8.47613 12.7377 8.44894 12.7562 8.4251C12.7747 8.40125 12.7978 8.38122 12.8243 8.36615C12.8507 8.35108 12.8799 8.34127 12.9102 8.33728C13.1748 8.30256 13.561 8.46608 13.7112 8.5609C13.8664 8.65959 13.9894 8.79986 14.0655 8.96504C14.2965 9.05258 14.5283 9.25717 14.6047 9.45634C14.6619 9.60586 14.7766 10.0905 14.5592 10.346C14.5135 10.4003 14.4472 10.4283 14.3805 10.4283Z" fill="black"/>
<path d="M14.1141 9.21833C14.0648 9.21856 14.0167 9.20341 13.9767 9.17508C13.9368 9.14675 13.907 9.1067 13.8918 9.06073C13.8767 9.01475 13.8768 8.96524 13.8922 8.91934C13.9076 8.87345 13.9376 8.83355 13.9777 8.80542C14.406 8.50358 14.8511 8.19409 15.3041 7.87918C16.8807 6.78363 18.5107 5.65113 19.8909 4.51171C19.9384 4.47563 19.9983 4.45894 20.058 4.46513C20.1178 4.47133 20.1728 4.49993 20.2116 4.54495C20.2503 4.58996 20.2698 4.64792 20.2659 4.70668C20.262 4.76544 20.2351 4.82046 20.1908 4.86022C18.7957 6.01195 17.1576 7.15043 15.5733 8.25121C15.121 8.56555 14.6771 8.87411 14.2498 9.17521C14.2086 9.20451 14.161 9.21833 14.1141 9.21833ZM5.4739 7.38881C5.41608 7.38949 5.36007 7.36904 5.31682 7.33144C5.27357 7.29384 5.24617 7.24179 5.23998 7.18547C5.23379 7.12914 5.24925 7.07258 5.28335 7.02682C5.31744 6.98106 5.36772 6.9494 5.42436 6.93801L10.3722 5.87961C10.4324 5.86694 10.4953 5.87811 10.5472 5.9107C10.599 5.9433 10.6356 5.99465 10.649 6.05358C10.6556 6.08283 10.6562 6.11305 10.6508 6.14253C10.6454 6.17201 10.6342 6.20016 10.6177 6.22537C10.6012 6.25058 10.5798 6.27236 10.5547 6.28945C10.5296 6.30655 10.5013 6.31862 10.4714 6.32499L5.52381 7.38339C5.50724 7.38713 5.49047 7.38881 5.4739 7.38881ZM5.75054 10.8224C5.69245 10.8229 5.63626 10.802 5.59306 10.764C5.54986 10.7259 5.52277 10.6734 5.51712 10.6167C5.51148 10.5601 5.5277 10.5034 5.56258 10.4579C5.59746 10.4124 5.64848 10.3813 5.70558 10.3708L10.4836 9.44606C10.5429 9.4373 10.6033 9.45126 10.6523 9.48502C10.7013 9.51878 10.7351 9.56975 10.7467 9.62733C10.7584 9.68491 10.7469 9.74466 10.7147 9.79417C10.6825 9.84367 10.6321 9.87912 10.5739 9.89313L5.79589 10.8181C5.78064 10.821 5.7654 10.8224 5.75054 10.8224ZM7.00859 14.4721C6.95131 14.4718 6.89612 14.451 6.85357 14.4134C6.81102 14.3758 6.78411 14.3242 6.77798 14.2684C6.77185 14.2126 6.78693 14.1565 6.82033 14.1109C6.85374 14.0653 6.90313 14.0334 6.95905 14.0213L14.4191 12.4085C14.449 12.402 14.4798 12.4014 14.5099 12.4067C14.54 12.4119 14.5688 12.4229 14.5945 12.439C14.6203 12.4552 14.6425 12.4761 14.66 12.5007C14.6775 12.5252 14.6899 12.5529 14.6964 12.5822C14.703 12.6114 14.7036 12.6416 14.6983 12.6711C14.6929 12.7006 14.6817 12.7287 14.6652 12.754C14.6488 12.7792 14.6274 12.801 14.6023 12.8181C14.5773 12.8353 14.549 12.8474 14.5192 12.8538L7.05889 14.4666C7.04231 14.4702 7.02536 14.4721 7.00859 14.4721ZM9.28463 16.2898C9.22575 16.2906 9.16877 16.2695 9.12518 16.2307C9.0816 16.1919 9.05468 16.1383 9.04984 16.0808C9.045 16.0233 9.06261 15.9662 9.09912 15.9209C9.13563 15.8756 9.18831 15.8456 9.24652 15.837C10.0325 15.7077 10.8067 15.5167 11.5614 15.2658C11.5904 15.256 11.621 15.252 11.6515 15.2539C11.6821 15.2557 11.7119 15.2635 11.7394 15.2768C11.7669 15.2901 11.7914 15.3085 11.8115 15.3311C11.8316 15.3537 11.847 15.3799 11.8567 15.4084C11.8666 15.4367 11.8706 15.4667 11.8687 15.4966C11.8667 15.5265 11.8587 15.5557 11.8452 15.5825C11.8317 15.6094 11.8129 15.6334 11.7899 15.6531C11.7669 15.6728 11.7401 15.6879 11.7112 15.6975C10.9327 15.9565 10.1342 16.1535 9.3233 16.2865C9.31054 16.2887 9.2976 16.2899 9.28463 16.2898Z" fill="black"/>
<path d="M14.6738 9.74782C14.6361 9.46576 14.5679 9.30635 14.329 9.12006C14.8804 8.73179 19.9623 5.22675 20.2346 4.80638C20.2746 4.86331 20.3123 4.92024 20.3437 4.97662C20.4859 5.23048 20.5135 5.42742 20.4777 5.51011C20.4649 5.53998 20.4596 5.57115 20.4601 5.60176L14.6738 9.74782ZM19.3516 4.13232C19.557 4.17395 19.767 4.30779 19.9499 4.48008C19.7056 4.58312 19.956 4.64696 15.3041 7.87928C15.1873 7.96048 14.0565 8.74542 13.9685 8.81523C13.8338 8.62744 13.7002 8.52011 13.3811 8.41016L19.3516 4.13232Z" fill="#FFE300"/>
<path d="M5.52374 7.38388L10.4713 6.32548C10.5012 6.31911 10.5295 6.30703 10.5546 6.28994C10.5797 6.27284 10.6011 6.25107 10.6176 6.22586C10.6341 6.20065 10.6453 6.1725 10.6507 6.14302C10.6561 6.11354 10.6555 6.08332 10.6489 6.05407C10.6355 5.99514 10.5989 5.94378 10.5471 5.91119C10.4952 5.8786 10.4323 5.86742 10.3721 5.8801L5.42428 6.9385C5.364 6.95142 5.31142 6.98727 5.27812 7.03817C5.26163 7.06337 5.25037 7.09151 5.24498 7.12098C5.23959 7.15045 5.24018 7.18067 5.24671 7.20991C5.25324 7.23915 5.26558 7.26685 5.28304 7.29142C5.3005 7.31599 5.32272 7.33695 5.34845 7.35311C5.4004 7.38573 5.46345 7.3968 5.52374 7.38388ZM5.70569 10.3713C5.6757 10.3771 5.64717 10.3886 5.62173 10.4052C5.59629 10.4218 5.57444 10.4431 5.55744 10.468C5.54043 10.4929 5.5286 10.5208 5.52262 10.5502C5.51664 10.5796 5.51663 10.6098 5.52259 10.6392C5.52852 10.6685 5.54028 10.6964 5.55722 10.7213C5.57416 10.7462 5.59594 10.7676 5.62131 10.7842C5.64668 10.8009 5.67515 10.8124 5.70509 10.8183C5.73503 10.8242 5.76586 10.8242 5.79581 10.8184L10.5738 9.89362C10.632 9.87961 10.6824 9.84416 10.7146 9.79466C10.7468 9.74515 10.7583 9.6854 10.7467 9.62782C10.735 9.57024 10.7012 9.51927 10.6522 9.48551C10.6032 9.45175 10.5428 9.43779 10.4835 9.44655L5.70569 10.3713ZM7.00851 14.4725C7.02528 14.4725 7.04224 14.4707 7.05881 14.4669L14.5191 12.8541C14.5793 12.8412 14.6319 12.8052 14.6651 12.7543C14.6983 12.7034 14.7095 12.6416 14.6963 12.5825C14.683 12.5235 14.6464 12.4721 14.5944 12.4395C14.5424 12.4069 14.4793 12.396 14.4191 12.4089L6.95878 14.0217C6.68824 14.08 6.73225 14.4725 7.00851 14.4725ZM11.5613 15.2663C10.8066 15.5172 10.0325 15.7082 9.24644 15.8375C9.21632 15.8424 9.18748 15.8531 9.16158 15.869C9.13568 15.8848 9.11322 15.9055 9.09548 15.9299C9.07774 15.9542 9.06508 15.9818 9.05821 16.0109C9.05134 16.0401 9.0504 16.0703 9.05544 16.0998C9.06048 16.1293 9.07141 16.1576 9.08759 16.183C9.10378 16.2083 9.12491 16.2303 9.14977 16.2477C9.17464 16.2651 9.20276 16.2775 9.23252 16.2842C9.26228 16.291 9.2931 16.2919 9.32323 16.2869C10.1341 16.154 10.9326 15.957 11.7111 15.698C11.833 15.6577 11.898 15.5281 11.8565 15.4087C11.8467 15.3803 11.8313 15.3541 11.8112 15.3315C11.7911 15.309 11.7666 15.2905 11.7392 15.2773C11.7117 15.2641 11.6819 15.2563 11.6514 15.2544C11.6209 15.2525 11.5903 15.2565 11.5613 15.2663Z" fill="black"/>
</g>
<defs>
<clipPath id="clip0_1038_737">
<rect width="20" height="18.6667" fill="white" transform="translate(2 3)"/>
</clipPath>
</defs>
</svg>
