<svg width="41" height="40" viewBox="0 0 41 40" fill="none" xmlns="http://www.w3.org/2000/svg">
<path d="M38.1393 15.0072C37.1064 11.2974 34.6927 7.95147 31.4696 5.85156C28.0542 3.6267 23.5892 2.9582 19.5956 2.86865C14.0171 2.74092 6.95172 4.88317 4.20761 10.202C3.97923 10.6442 4.65189 11.0239 4.88028 10.5817C6.82469 6.81231 11.4688 4.63535 15.4756 3.92173C19.7865 3.15535 24.4986 3.7579 28.5769 5.27886C32.8358 6.86646 35.7916 10.5109 37.2452 14.7274C38.8627 19.4187 37.9679 24.0906 35.3848 28.2112C30.0549 36.7164 16.9737 39.4771 9.01831 33.0309C5.37454 30.0779 2.99765 26.1273 2.95044 21.402C2.92337 18.6169 3.46622 15.507 4.85667 13.0634C5.28776 12.3068 5.86671 11.6591 6.51924 11.0732C6.52896 10.9212 6.54076 10.7705 6.55118 10.6206C6.47551 10.5241 6.41095 10.42 6.37763 10.2909C6.37416 10.2763 6.37485 10.2652 6.37138 10.2499C5.97431 10.5838 5.58973 10.9344 5.22598 11.3113C3.6363 12.9572 3.00876 15.2404 2.56587 17.4208C1.68564 21.7525 2.20836 25.8024 4.69285 29.4621C6.81913 32.5957 10.0978 35.512 13.8075 36.5303C18.2641 37.7535 22.9173 37.65 27.1344 35.7619C29.0427 34.908 31.1114 34.0694 32.7157 32.6908C34.6823 30.9984 36.1588 28.6083 37.3521 26.3348C39.1702 22.8688 39.1688 18.7023 38.1393 15.0072Z" fill="black" stroke="black" stroke-width="0.666667"/>
<path d="M18 13.333H13V27.4997H18V13.333Z" fill="black" stroke="black" stroke-width="1.66667"/>
<path d="M27.1666 13.333H22.1666V27.4997H27.1666V13.333Z" fill="black" stroke="black" stroke-width="1.66667"/>
</svg>
