<svg width="39" height="36" viewBox="0 0 39 36" fill="none" xmlns="http://www.w3.org/2000/svg">
<g id="Group">
<path id="Vector" d="M37.1393 13.0072C36.1064 9.29743 33.6927 5.95147 30.4696 3.85156C27.0542 1.6267 22.5892 0.958201 18.5956 0.868652C13.0171 0.740922 5.95172 2.88317 3.20761 8.20201C2.97923 8.64421 3.65189 9.02393 3.88028 8.58173C5.82469 4.81231 10.4688 2.63535 14.4756 1.92173C18.7865 1.15535 23.4986 1.7579 27.5769 3.27886C31.8358 4.86646 34.7916 8.51092 36.2452 12.7274C37.8627 17.4187 36.9679 22.0906 34.3848 26.2112C29.0549 34.7164 15.9737 37.4771 8.01831 31.0309C4.37454 28.0779 1.99765 24.1273 1.95044 19.402C1.92337 16.6169 2.46622 13.507 3.85667 11.0634C4.28776 10.3068 4.86671 9.6591 5.51924 9.07321C5.52896 8.92119 5.54076 8.77055 5.55118 8.6206C5.47551 8.52411 5.41095 8.41998 5.37763 8.29087C5.37416 8.27629 5.37485 8.26518 5.37138 8.24991C4.97431 8.58381 4.58973 8.93438 4.22598 9.31132C2.6363 10.9572 2.00876 13.2404 1.56587 15.4208C0.685641 19.7525 1.20836 23.8024 3.69285 27.4621C5.81913 30.5957 9.09776 33.512 12.8075 34.5303C17.2641 35.7535 21.9173 35.65 26.1344 33.7619C28.0427 32.908 30.1114 32.0694 31.7157 30.6908C33.6823 28.9984 35.1588 26.6083 36.3521 24.3348C38.1702 20.8688 38.1688 16.7023 37.1393 13.0072Z" fill="black" stroke="black" stroke-width="0.666667"/>
<path id="Vector 2" d="M26.1666 17.9998L13.6666 12.1665V24.6665L26.1666 17.9998Z" fill="black"/>
<path id="Vector_2" d="M13.1977 24.7216C13.199 24.9604 13.3295 25.1082 13.4968 25.1797C13.6412 25.3929 13.9189 25.5268 14.2119 25.3734C18.4866 23.1347 23.1092 21.6297 27.1445 18.9397C27.1813 18.9168 27.2125 18.8897 27.2396 18.8613C27.4708 18.8162 27.6513 18.6988 27.8033 18.4774C27.94 18.2782 27.8685 18.0081 27.7068 17.8415C27.6644 17.7506 27.5881 17.6694 27.4652 17.6124C24.6621 16.3324 15.3462 11.8084 13.122 11.7813C12.659 11.7757 12.5215 12.2506 12.6826 12.5692C12.6715 12.6192 12.6569 12.6671 12.661 12.7282C12.9269 16.7239 13.1775 20.7168 13.1977 24.7216ZM26.2358 18.2435C22.4747 20.6689 18.2395 22.1455 14.2598 24.1551C14.2209 20.3968 13.9939 16.6489 13.7461 12.8975C15.9494 13.1634 24.0915 17.35 26.2358 18.2435Z" fill="black" stroke="black" stroke-width="0.666667"/>
</g>
</svg>
