<svg width="24" height="24" viewBox="0 0 24 24" fill="none" xmlns="http://www.w3.org/2000/svg">
<path d="M11.158 11.2526C11.747 11.2806 12.3295 11.3868 12.918 11.4272C14.0064 11.5023 15.1001 11.3513 16.1638 11.111C16.3775 11.0626 16.5925 11.0098 16.7872 10.9108C17.1541 10.7246 17.4255 10.3866 17.7962 10.2076C18.0019 10.1086 18.2953 10.0847 18.4193 10.275C18.4603 10.3374 18.4743 10.413 18.482 10.487C18.5246 10.8934 18.3973 11.2971 18.3706 11.7052C18.344 12.1109 18.4166 12.5157 18.438 12.9218C18.4688 13.5059 18.3929 14.09 18.317 14.6703C18.2703 15.0292 18.2205 15.3971 18.0486 15.7169C17.8512 16.0849 17.5069 16.3604 17.313 16.7303C17.2478 16.8552 17.1978 16.9927 17.0952 17.0897C16.9962 17.1835 16.8609 17.2278 16.7303 17.269C16.2094 17.434 15.6726 17.6375 15.1314 17.7057C14.6029 17.7739 14.0704 17.8055 13.5375 17.8003C12.6245 17.7899 11.6835 17.8429 10.7776 17.78C10.0508 17.7305 9.3196 17.6804 8.61147 17.5105C8.15698 17.4015 7.71554 17.244 7.29478 17.0405C7.03848 16.9167 6.7819 16.7683 6.61773 16.5378C6.46565 16.3247 6.40708 16.0618 6.35565 15.806C6.03941 14.2336 5.82848 12.6061 5.83041 11.0007C5.83096 10.765 5.81116 10.3649 6.06416 10.2323C6.26545 10.127 6.53 10.259 6.70875 10.352C7.35363 10.6866 7.83735 11.0936 8.58755 11.2072C9.43867 11.3359 10.3024 11.2122 11.158 11.2526Z" fill="#FFE300"/>
<path d="M12.1823 13.1759C12.2335 13.1495 12.2923 13.1237 12.3473 13.1407C12.3979 13.1564 12.4306 13.204 12.4584 13.2485C12.5602 13.4122 12.6495 13.5827 12.7318 13.7562C12.7901 13.8797 12.8426 14.1483 12.9366 14.2402C13.1357 14.4346 13.4963 14.1648 13.6387 13.9987C13.8172 13.7908 13.9379 13.5348 14.1414 13.3511C14.3449 13.1671 14.6843 13.08 14.888 13.2637C15.0261 13.388 15.0539 13.589 15.0882 13.7708C15.1226 13.9528 15.1911 14.1552 15.3619 14.2292C15.5874 14.3271 15.8299 14.1448 16.0021 13.9707C16.186 13.7842 16.3642 13.5901 16.5034 13.369C16.5457 13.3013 16.5851 13.2307 16.6412 13.1737C16.8595 12.9535 17.2456 13.0269 17.4967 13.2095C17.748 13.3924 17.9268 13.6594 18.1768 13.8436C18.2972 13.9325 18.4435 14.015 18.4809 14.1591C18.4974 14.2212 18.49 14.2869 18.4826 14.3507C18.4229 14.8677 18.3519 15.4136 18.0299 15.8245C17.7723 15.539 17.5627 15.2137 17.4092 14.8611C17.3314 14.6818 17.2376 14.4693 17.0443 14.433C16.9734 14.4198 16.8997 14.4341 16.8312 14.4577C16.257 14.6543 16.0667 15.3847 15.5651 15.7252C15.407 15.8324 15.1694 15.8872 15.039 15.748C14.9807 15.6861 14.959 15.5998 14.9392 15.5178L14.844 15.1229C14.8017 14.9472 14.7274 14.7396 14.549 14.7036C14.406 14.6747 14.272 14.7759 14.1612 14.8708C13.837 15.1485 13.5111 15.4279 13.2369 15.7546C12.767 16.3148 12.5948 15.4807 12.4279 15.1639C12.3143 14.9486 12.0663 14.7599 11.8386 14.8488C11.7352 14.8889 11.6604 14.9772 11.5872 15.06C11.3659 15.3102 10.787 16.0244 10.397 15.8525C10.0131 15.6834 10.1666 15.1331 9.9056 14.8666C9.4821 14.4343 9.06686 15.0547 8.81578 15.3435C8.64501 15.5396 8.37303 15.7172 8.13708 15.6058C7.93496 15.5104 7.87638 15.2607 7.80268 15.0512C7.72898 14.8416 7.54886 14.612 7.33244 14.6678C7.21969 14.697 7.14186 14.7965 7.07311 14.89L6.62101 15.5044C6.46643 15.3049 6.35076 15.0781 6.28001 14.8358C6.25416 14.7467 6.23436 14.653 6.25251 14.5622C6.27011 14.4742 6.32154 14.3978 6.37186 14.3238C6.64411 13.9223 6.94166 13.4996 7.39156 13.3123C7.47846 13.2766 7.58323 13.2518 7.66216 13.3022C7.71358 13.3352 7.74191 13.3929 7.76941 13.4468C7.91543 13.7323 8.39943 14.6304 8.76161 14.2806C8.89086 14.156 8.91753 13.9803 9.02643 13.8414C9.16338 13.6671 9.40675 13.4564 9.62978 13.4086C9.71943 13.3893 9.8121 13.3943 9.90368 13.3995C9.9716 13.4034 10.0428 13.4083 10.1006 13.4441C10.1935 13.5018 10.2235 13.6192 10.2565 13.7232C10.3247 13.938 10.5002 14.3389 10.7169 14.4484C10.9668 14.5749 11.2146 14.2487 11.2911 14.032C11.4401 13.6099 11.788 13.3803 12.1823 13.1759Z" fill="black"/>
<path d="M19.4821 4.53741C19.3999 4.20576 18.986 3.30899 18.5135 3.49406C18.5227 3.43245 18.5261 3.37013 18.5237 3.30789C18.5072 2.82967 18.2341 2.24254 17.8857 1.91639C17.3921 1.45439 16.6609 1.42634 16.0333 1.37904C15.1938 1.31579 14.3671 1.0804 13.5171 1.03062C11.8258 0.931621 10.1082 1.08425 8.4505 1.33532C7.87712 1.42194 7.0887 1.49894 6.64265 1.91639C6.29423 2.24254 6.02115 2.82967 6.00465 3.30789C6.00245 3.37279 6.00603 3.43494 6.01483 3.49406C5.54238 3.30899 5.12851 4.20576 5.04628 4.53741C4.88403 5.19109 5.16481 5.60606 5.63203 5.90086C5.62776 5.91369 5.62608 5.92725 5.62708 5.94073C5.66256 6.31748 5.60233 6.70468 5.64221 7.08748C5.68758 7.52116 5.74368 7.96473 5.83965 8.39015C5.93893 8.83015 5.98898 9.36255 6.14545 9.8284C5.59188 10.1556 5.70271 11.367 5.73488 11.8703C5.8105 13.047 5.94388 14.2232 6.11355 15.39C6.23043 16.1946 6.52 16.8376 7.12198 17.2944C7.04525 17.9112 7.27543 18.6116 7.39973 19.1932C7.55373 19.9137 7.6827 20.7021 7.95055 21.3902C8.27587 22.2262 9.12067 22.7019 9.96519 22.8163C11.2932 22.9965 12.6492 23.0671 13.9763 22.923C15.0178 22.8097 16.1585 22.4679 16.5781 21.3902C16.846 20.7021 16.9749 19.9137 17.1289 19.193C17.2532 18.6113 17.4831 17.9109 17.4067 17.2944C18.0084 16.8376 18.2982 16.1946 18.4151 15.39C18.5845 14.2232 18.7179 13.047 18.7935 11.8703C18.8257 11.367 18.9365 10.1556 18.3829 9.8284C18.5397 9.36255 18.5894 8.83015 18.6887 8.39015C18.785 7.965 18.8408 7.52116 18.8862 7.08748C18.9263 6.70468 18.8661 6.31748 18.9013 5.94073C18.9023 5.92725 18.9006 5.91369 18.8963 5.90086C19.3636 5.60606 19.6443 5.19136 19.4821 4.53741ZM7.52183 2.01154C8.05147 1.83939 8.61357 1.74012 9.1644 1.66367C10.2075 1.51874 11.2481 1.50747 12.2961 1.43652C13.3042 1.36859 14.3594 1.52397 15.3645 1.66367C15.9154 1.74012 16.4775 1.83967 17.0074 2.01154C17.2117 2.07947 17.3989 2.19051 17.5566 2.33714C17.215 2.40864 16.8759 2.51864 16.5319 2.56979C16.0672 2.63854 15.5969 2.69162 15.1294 2.73617C14.1796 2.82609 13.2088 2.78017 12.2645 2.88742C11.3201 2.78017 10.3494 2.82609 9.39952 2.73617C8.93066 2.69289 8.463 2.63741 7.99702 2.56979C7.653 2.51892 7.31393 2.40864 6.97238 2.33714C7.13006 2.19046 7.31745 2.07942 7.52183 2.01154ZM6.82058 2.49939C7.09833 2.70124 7.37415 2.83847 7.74265 2.94352C8.22665 3.08184 8.75465 3.15087 9.25405 3.21302C11.2112 3.45611 13.3188 3.45501 15.2743 3.21302C15.7735 3.15087 16.3017 3.08184 16.7857 2.94352C17.1542 2.83847 17.4298 2.70124 17.7078 2.49939C17.8898 2.72599 18.0037 3.00649 17.9952 3.30789C17.9704 4.18706 15.9264 4.21126 15.3535 4.28441C14.8261 4.35179 14.2824 4.41476 13.7387 4.45491C13.0743 4.39001 12.3734 4.44281 11.7164 4.47279C11.536 4.48104 11.3564 4.47994 11.1768 4.47884C10.5053 4.44474 9.82797 4.36801 9.17485 4.28441C8.6023 4.21126 6.55823 4.18706 6.5332 3.30789C6.52495 3.00649 6.63853 2.72599 6.82058 2.49939ZM16.6254 18.8657C16.4843 19.4746 16.3163 20.0746 16.1513 20.6763C15.9863 21.2785 15.7814 21.7469 15.1778 22.0304C14.6264 22.2894 14.0069 22.2749 13.4283 22.4272C13.318 22.4421 13.2074 22.4547 13.0966 22.4619C12.5887 22.494 12.0709 22.469 11.5649 22.4206C11.2087 22.3862 10.8532 22.3491 10.4979 22.3117C10.1065 22.2529 9.71385 22.2009 9.35057 22.0304C8.74695 21.7469 8.54207 21.2785 8.37707 20.6763C8.21207 20.0746 8.04432 19.4746 7.90297 18.8657C7.80507 18.4433 7.72093 18.0074 7.60158 17.5859C7.6079 17.5886 7.61368 17.5922 7.62 17.5952C8.11582 17.8317 8.65785 17.8972 9.19657 17.972C9.33022 17.9907 9.46387 18.0041 9.5967 18.0105C10.3062 18.1139 11.0589 18.069 11.7447 18.0756C12.3167 18.0811 12.8835 18.0633 13.4541 18.0303C13.7319 18.014 14.0176 18.0072 14.2959 17.9681C14.633 18.0369 14.9817 18.0206 15.3321 17.972C15.8705 17.8972 16.4128 17.8317 16.9087 17.5952C16.915 17.5925 16.9208 17.5889 16.9271 17.5859C16.8075 18.0074 16.7236 18.4436 16.6254 18.8657ZM16.5979 17.0636C15.8832 17.389 15.0799 17.4698 14.3036 17.4467C13.4189 17.4206 12.537 17.5182 11.6526 17.5256C11.0107 17.5309 10.3928 17.4973 9.7529 17.4464C9.1347 17.3969 8.50082 17.3232 7.93075 17.0636C7.20393 16.7325 6.91463 16.2199 6.7466 15.5583C6.7884 15.4931 6.8247 15.4244 6.86045 15.3647C6.9347 15.2407 7.00785 15.1155 7.09393 14.9989C7.1866 14.873 7.3186 14.6673 7.53723 14.813C7.587 14.846 7.62963 15.0413 7.65575 15.1018C7.80067 15.4351 8.05312 16.034 8.52502 15.8377C8.76235 15.7387 8.92047 15.4923 9.06952 15.297C9.1699 15.1656 9.2931 14.9613 9.45975 14.9027C9.90524 14.7459 9.94154 15.1529 10.0062 15.4244C10.084 15.7505 10.3026 16.2232 10.7308 16.064C11.1865 15.8949 11.9595 14.2468 12.2925 15.2555C12.4014 15.5858 12.5615 16.2362 13.046 16.1443C13.2861 16.0989 13.4082 15.877 13.519 15.6867C13.5963 15.5531 13.6689 15.4191 13.7591 15.2929C13.8157 15.2132 14.0038 14.9511 14.132 14.9211C14.3949 14.8592 14.5923 14.9769 14.6561 15.2088C14.7546 15.5663 14.8717 16.1713 15.3926 15.9988C15.6346 15.9183 15.7957 15.6826 15.9159 15.4733C16.0075 15.3138 16.0831 15.1488 16.189 14.997C16.3804 14.7223 16.8922 14.3527 17.1751 14.7198C17.4171 15.0336 17.3126 15.6248 17.6941 15.8545C17.5137 16.3742 17.2123 16.784 16.5979 17.0636ZM17.8783 15.1015C17.8536 15.2409 17.826 15.3743 17.795 15.503C17.5104 15.1906 17.5648 14.5067 17.1028 14.315C16.577 14.0967 16.1139 14.549 15.8562 14.9547C15.6959 15.2071 15.3722 15.9895 15.0043 15.4774C14.8291 15.2332 14.9278 14.7699 14.6322 14.5985C14.1757 14.3356 13.6708 14.8653 13.4472 15.1989C13.376 15.3053 13.2745 15.6122 13.1733 15.6617C13.0727 15.7109 12.8065 15.6556 12.7443 15.6037C12.6563 15.5302 12.6434 15.3636 12.6057 15.2555C12.5395 15.0652 12.4878 14.7971 12.3032 14.6772C11.902 14.417 11.4144 14.824 11.1988 15.1301C11.091 15.2836 10.9887 15.4398 10.8455 15.5646C10.7828 15.6191 10.6274 15.778 10.5229 15.7544C10.458 15.7398 10.3414 15.4623 10.3202 15.4024C10.2322 15.1535 10.2251 14.8854 10.0315 14.6835C9.66242 14.298 9.16357 14.6665 8.90397 14.9871C8.80772 15.1065 8.68837 15.3982 8.5451 15.4312C8.4274 15.4579 8.13315 15.3421 8.0633 15.2668C7.99042 15.1881 7.94945 15.055 7.90187 14.9574C7.81607 14.7806 7.75227 14.5114 7.5353 14.4558C7.06505 14.3359 6.88465 14.9082 6.69023 15.3105C6.67648 15.2418 6.66273 15.1725 6.65008 15.1015C6.60993 14.8768 6.57308 14.6522 6.53843 14.4269C6.6949 14.1767 6.86458 13.9325 7.06395 13.7155C7.11483 13.6605 7.16845 13.581 7.23198 13.5423C7.28698 13.5084 7.57463 13.4072 7.64118 13.4504C7.71653 13.4991 7.8389 13.7865 7.8829 13.8709C8.03965 14.1717 8.21372 14.7195 8.66582 14.4745C8.83797 14.3813 8.98097 14.1822 9.09757 14.0268C9.22132 13.861 9.31372 13.6514 9.50595 13.5494C9.62612 13.4856 9.85189 13.4059 9.99682 13.4991C10.0722 13.5475 10.1189 13.8065 10.15 13.8962C10.2531 14.1932 10.4822 14.8106 10.909 14.5152C11.1029 14.3816 11.2483 14.1049 11.3941 13.9201C11.4997 13.7862 11.6053 13.6492 11.7288 13.531C11.8492 13.4155 12.3662 13.0236 12.4086 13.4053C12.6247 13.6814 12.4922 14.4806 13.0004 14.5284C13.494 14.5746 13.7962 13.7642 14.0778 13.4994C15.059 12.5762 14.6724 14.1376 15.2532 14.367C15.6951 14.5413 16.1172 13.7944 16.3419 13.539C16.4893 13.3712 16.7021 13.1718 16.9329 13.1358C17.2615 13.0844 17.424 13.3366 17.5887 13.5706C17.7304 13.7719 17.8351 13.999 17.9833 14.199C17.9933 14.2122 18.0051 14.2239 18.0185 14.2336C17.976 14.5236 17.9293 14.8129 17.8783 15.1015ZM18.2542 12.4799C18.1987 12.9158 18.1437 13.3517 18.0837 13.7865C17.8791 13.4411 17.6696 13.0423 17.2981 12.9034C16.8086 12.7203 16.3306 13.1174 16.0438 13.4699C15.8637 13.691 15.3893 14.4066 15.2097 13.8459C15.128 13.5915 15.1107 13.2659 14.8951 13.0742C14.4576 12.6856 13.8963 13.2549 13.6439 13.5766C13.4574 13.8148 13.0543 14.4883 12.8651 13.9399C12.7622 13.6415 12.7639 13.2656 12.501 13.0489C12.0995 12.7186 11.5761 13.2469 11.3212 13.537C11.1922 13.6831 11.0784 13.8406 10.956 13.9922C10.8015 14.1836 10.8295 14.2622 10.6233 14.0884C10.3538 13.861 10.3672 13.3404 10.0367 13.1619C9.56782 12.9089 9.09785 13.5692 8.8553 13.8676C8.80855 13.9253 8.7475 14.0194 8.67957 14.0601C8.46122 14.1904 8.30282 14.1101 8.1887 13.8783C8.13205 13.7628 8.0611 13.6611 7.99812 13.5497C7.88455 13.3487 7.77647 13.0946 7.50478 13.0803C7.09613 13.0588 6.72103 13.6206 6.48508 14.0631C6.4104 13.536 6.34009 13.0082 6.27415 12.4799C6.21888 12.0454 6.18395 11.6093 6.1867 11.1712C6.18808 10.9328 6.1856 10.6823 6.2472 10.4499C6.26865 10.3685 6.29808 10.3044 6.33328 10.2478C6.39268 10.3481 6.4606 10.4425 6.54173 10.5258C7.03398 11.0337 7.82707 11.3139 8.5022 11.4657C8.8421 11.5422 9.17595 11.5705 9.50787 11.5669C9.95502 11.6258 10.4027 11.6585 10.8578 11.6835C11.6853 11.7286 12.515 11.7853 13.3438 11.7424C14.858 11.664 16.8289 11.7204 17.9864 10.5258C18.0675 10.4422 18.1354 10.3481 18.1948 10.2478C18.23 10.3044 18.2597 10.3688 18.2812 10.4499C18.3425 10.682 18.34 10.9328 18.3417 11.1712C18.3444 11.6093 18.3095 12.0454 18.2542 12.4799ZM18.3571 7.09436C18.2017 7.85528 18.0408 8.6118 17.8533 9.36668C17.735 9.84352 17.6151 10.14 17.1641 10.393C16.8047 10.5948 16.4167 10.743 16.0221 10.8588C15.3057 11.0689 14.5472 11.1588 13.8036 11.1784C12.9454 11.2004 12.0876 11.21 11.2296 11.174C11.1315 11.1698 11.0336 11.1671 10.9354 11.1638C10.9326 11.1632 10.9299 11.1619 10.9269 11.1616C10.0955 11.1256 9.31427 11.0956 8.50632 10.8588C8.1117 10.7433 7.72368 10.5948 7.36398 10.393C6.91298 10.14 6.79335 9.84325 6.6751 9.36668C6.48783 8.6118 6.3264 7.85528 6.1713 7.09436C6.14765 6.97831 6.11273 6.44206 6.0041 6.09693C6.0316 6.10931 6.05883 6.12168 6.08688 6.13351C7.06038 6.54326 8.1491 6.64858 9.19245 6.74428C10.2476 6.84136 11.3088 6.85236 12.3679 6.82843C13.3579 6.80616 14.3501 6.83503 15.3359 6.74428C16.3793 6.64858 17.468 6.54353 18.4415 6.13378C18.4695 6.12168 18.4968 6.10931 18.5243 6.09693C18.4156 6.44233 18.3807 6.97831 18.3571 7.09436ZM18.703 5.47186C18.0922 5.85631 17.2516 5.93716 16.552 6.02901C15.7902 6.12911 15.0205 6.19703 14.2524 6.20776C12.9324 6.22701 11.5852 6.22646 10.2759 6.20776C9.50787 6.19703 8.73787 6.12911 7.9764 6.02901C7.2768 5.93716 6.4364 5.85631 5.82535 5.47159C5.44036 5.22931 5.39938 4.93314 5.51268 4.50771C5.57071 4.28991 5.79923 3.80371 6.07835 3.76961C6.08605 3.76879 6.09348 3.76631 6.1009 3.76384C6.4353 4.43099 7.5606 4.62239 8.19997 4.70874C9.61622 4.89959 11.049 4.92709 12.4757 4.87456C13.7723 4.82671 15.0381 4.88281 16.3284 4.70874C16.9678 4.62239 18.0931 4.43099 18.4275 3.76384C18.4349 3.76631 18.4423 3.76879 18.45 3.76961C18.7291 3.80399 18.9577 4.28991 19.0157 4.50771C19.129 4.93314 19.088 5.22959 18.703 5.47186Z" fill="black"/>
</svg>
