<svg width="60" height="60" viewBox="0 0 60 60" fill="none" xmlns="http://www.w3.org/2000/svg">
<path d="M1.1661 31.54C1.72566 41.1342 7.91328 50.67 17.1925 55.1823C14.9246 54.8338 12.7445 54.7479 10.2546 54.8602C9.11251 54.9116 8.81038 56.5003 9.83814 57.0011C11.9578 58.034 18.0001 58.8203 20.3863 58.9689C24.6835 59.2365 29.0127 58.9916 33.2521 58.2397C35.0876 57.9141 37.2113 57.6131 38.9932 56.9205C45.6468 55.2285 52.0767 50.2998 55.5587 45.1354C61.5621 36.2312 59.9761 21.5118 53.403 12.6984C49.6669 7.68904 43.4306 3.28786 34.6555 2.58508C17.983 -0.426841 0.0317681 12.2699 1.1661 31.54ZM50.3072 13.7923C56.9978 22.5916 57.3635 35.6308 51.1777 44.7967C44.9418 54.0288 32.5368 58.4224 22.0873 55.5527C11.1726 52.5448 3.18625 42.1757 2.56063 31.4582C1.04963 5.77609 34.7296 -6.69402 50.3072 13.7923Z" fill="black"/>
<path d="M1.08526 11.7374L4.49881 13.4494C4.84548 13.6219 5.26431 13.4812 5.43623 13.1374C5.60907 12.7926 5.46989 12.3732 5.12467 12.1995L1.71112 10.4875C1.36635 10.3165 0.946534 10.4538 0.773696 10.7995C0.600858 11.1443 0.740038 11.5645 1.08526 11.7374Z" fill="black"/>
<path d="M8.22388 7.79792C7.37015 6.30787 6.27308 4.99157 4.96315 3.88541C4.66887 3.63616 4.22768 3.67436 3.97843 3.9691C3.72963 4.26383 3.76693 4.70412 4.06166 4.95337C5.24651 5.9531 6.23897 7.14386 7.01128 8.49291C7.20226 8.8251 7.62753 8.94454 7.96508 8.75126C8.29984 8.56023 8.41537 8.13268 8.22388 7.79792Z" fill="black"/>
<path d="M11.92 6.19456C12.3007 6.13361 12.5604 5.77611 12.4994 5.39496L11.8786 1.51428C11.8176 1.13222 11.462 0.869323 11.0781 0.93482C10.6974 0.995768 10.4377 1.35327 10.4986 1.73442L11.1195 5.6151C11.1815 6.00258 11.5487 6.25718 11.92 6.19456Z" fill="black"/>
<path d="M22.52 20.4793L19.8 19.7993L21.5 15.7193L24.56 11.9793L27.96 11.2993L32.04 10.2793L36.12 12.3193L40.54 15.7193L41.56 21.4993L37.48 25.9193L30.34 29.6593L27.96 31.6993V36.7993V39.8593L26.6 40.8793L24.56 38.1593V33.7393L26.26 29.6593L27.96 26.9393L31.02 25.9193L35.1 23.8793L36.46 19.4593L33.4 15.7193H28.64L22.52 20.4793Z" fill="#FFE300"/>
<path d="M23.5906 20.9209C24.7572 20.2533 25.4188 19.1352 26.2063 18.2919C28.8116 15.5102 33.8738 15.3941 35.2781 19.0633C35.6292 19.9812 35.5974 20.9081 35.1889 21.6723C33.1576 25.4682 25.3948 23.8525 24.1405 32.2072C23.8266 34.2967 24.0641 36.3781 24.2933 38.3912C24.3815 39.1662 24.5148 40.337 25.3508 41.1357C26.3636 42.1051 28.5734 42.0119 28.8526 40.5853C29.4404 37.5851 27.7409 34.3947 28.9708 32.0244C30.4268 29.2154 34.9457 28.8232 37.7974 26.9884C41.6845 24.4841 42.9366 19.0324 40.5324 15.0835C38.2545 11.3438 33.0212 9.32526 28.3618 10.3823C23.8917 11.3984 20.2157 15.0216 19.215 19.399C18.7816 21.2926 22.0702 21.7921 23.5906 20.9209ZM28.6711 11.745C32.7746 10.8108 37.359 12.5592 39.3389 15.8094C41.3592 19.1279 40.3068 23.709 37.0406 25.8131C34.1592 27.6696 29.5448 27.8804 27.73 31.3803C26.2201 34.2924 28.0132 37.548 27.4853 40.2979C27.3248 40.4243 26.6143 40.4107 26.3164 40.1259C25.8811 39.7102 25.7715 39.0225 25.6815 38.2329C25.4622 36.3099 25.2357 34.3213 25.5223 32.4146C26.6524 24.8848 33.9938 26.8679 36.4206 22.3309C37.0237 21.2038 37.081 19.8666 36.583 18.5639C34.8239 13.9679 28.5655 13.7283 25.1861 17.3368C24.3653 18.2151 23.7968 19.1928 22.8951 19.7092C22.2397 20.0867 20.7765 19.9366 20.5768 19.7101C21.461 15.8458 24.7136 12.6447 28.6711 11.745Z" fill="black"/>
<ellipse cx="28.2999" cy="46.999" rx="2.38" ry="2.04" fill="#FFE300"/>
<path d="M27.9789 43.8626C27.2128 43.0731 24.3712 44.6466 24.4685 47.1028C24.5368 48.8015 26.0357 50.2676 27.7429 50.2676C30.3564 50.2676 32.1409 47.0848 30.1058 44.895C29.5331 44.2792 28.7608 43.9053 27.9789 43.8626ZM27.7151 48.8703C26.7841 48.854 25.9022 47.9852 25.8649 47.0473C25.8294 46.1531 26.5398 45.2653 27.4168 45.0679C27.5364 45.1807 27.696 45.2516 27.873 45.2571C28.7864 45.2859 29.628 46.1962 29.5891 47.1183C29.5518 48.0362 28.6125 48.8922 27.7151 48.8703Z" fill="black"/>
</svg>
