<svg width="24" height="24" viewBox="0 0 24 24" fill="none" xmlns="http://www.w3.org/2000/svg">
<g clip-path="url(#clip0_1396_31296)">
<path d="M12 6C8.68802 6 6 8.68802 6 12C6 15.312 8.68802 18 12 18C15.312 18 18 15.312 18 12C18 8.68796 15.312 6 12 6Z" fill="#FF3242"/>
<path d="M12 0C5.37001 0 0 5.37001 0 12C0 18.6299 5.37001 23.9999 12 23.9999C18.6299 23.9999 24 18.63 24 12C24 5.36996 18.63 0 12 0ZM12 21.6C6.69599 21.6 2.39996 17.304 2.39996 12C2.39996 6.69594 6.69599 2.40002 12 2.40002C17.3039 2.40002 21.6 6.69599 21.6 12C21.6 17.3039 17.304 21.6 12 21.6Z" fill="#FF3242"/>
</g>
<defs>
<clipPath id="clip0_1396_31296">
<rect width="24" height="24" fill="white"/>
</clipPath>
</defs>
</svg>
