<svg width="180" height="20" viewBox="0 0 180 20" fill="none" xmlns="http://www.w3.org/2000/svg">
<path d="M12.2453 0C11.6078 0 11.0898 0.310262 11.0898 0.692124V19.3079C11.0898 19.6897 11.6078 20 12.2453 20C12.8828 20 13.4008 19.6897 13.4008 19.3079V0.70008C13.4008 0.318218 12.8828 0 12.2453 0Z" fill="#667085"/>
<path d="M28.5549 0C27.9174 0 27.3994 0.310262 27.3994 0.692124V19.3079C27.3994 19.6897 27.9174 20 28.5549 20C29.1924 20 29.7104 19.6897 29.7104 19.3079V0.70008C29.7104 0.318218 29.1924 0 28.5549 0Z" fill="#667085"/>
<path d="M18.0891 4.34375C17.4516 4.34375 16.9336 4.65401 16.9336 5.03587V14.9722C16.9336 15.3541 17.4516 15.6644 18.0891 15.6644C18.7266 15.6644 19.2445 15.3541 19.2445 14.9722V5.04383C19.2445 4.65401 18.7266 4.34375 18.0891 4.34375Z" fill="#667085"/>
<path d="M23.3088 6.91357C22.6713 6.91357 22.1533 7.22384 22.1533 7.6057V12.4028C22.1533 12.7847 22.6713 13.095 23.3088 13.095C23.9463 13.095 24.4643 12.7847 24.4643 12.4028V7.6057C24.4775 7.22384 23.9596 6.91357 23.3088 6.91357Z" fill="#667085"/>
<path d="M6.40156 4.34375C5.76406 4.34375 5.24609 4.65401 5.24609 5.03587V14.9722C5.24609 15.3541 5.76406 15.6644 6.40156 15.6644C7.03906 15.6644 7.55703 15.3541 7.55703 14.9722V5.04383C7.55703 4.65401 7.03906 4.34375 6.40156 4.34375Z" fill="#667085"/>
<path d="M1.15547 6.91357C0.517969 6.91357 0 7.22384 0 7.6057V12.4028C0 12.7847 0.517969 13.095 1.15547 13.095C1.79297 13.095 2.31094 12.7847 2.31094 12.4028V7.6057C2.32422 7.22384 1.80625 6.91357 1.15547 6.91357Z" fill="#667085"/>
<path d="M44.8645 0C44.227 0 43.709 0.310262 43.709 0.692124V19.3079C43.709 19.6897 44.227 20 44.8645 20C45.502 20 46.0199 19.6897 46.0199 19.3079V0.70008C46.0332 0.318218 45.502 0 44.8645 0Z" fill="#667085"/>
<path d="M50.7082 4.34375C50.0707 4.34375 49.5527 4.65401 49.5527 5.03587V14.9722C49.5527 15.3541 50.0707 15.6644 50.7082 15.6644C51.3457 15.6644 51.8637 15.3541 51.8637 14.9722V5.04383C51.8637 4.65401 51.3457 4.34375 50.7082 4.34375Z" fill="#667085"/>
<path d="M55.9543 6.91357C55.3168 6.91357 54.7988 7.22384 54.7988 7.6057V12.4028C54.7988 12.7847 55.3168 13.095 55.9543 13.095C56.5785 13.095 57.0965 12.7927 57.1098 12.4108V7.6057C57.1098 7.22384 56.5918 6.91357 55.9543 6.91357Z" fill="#667085"/>
<path d="M39.0207 4.34375C38.3832 4.34375 37.8652 4.65401 37.8652 5.03587V14.9722C37.8652 15.3541 38.3832 15.6644 39.0207 15.6644C39.6582 15.6644 40.1762 15.3541 40.1762 14.9722V5.04383C40.1895 4.65401 39.6715 4.34375 39.0207 4.34375Z" fill="#667085"/>
<path d="M33.801 6.91357C33.1635 6.91357 32.6455 7.22384 32.6455 7.6057V12.4028C32.6455 12.7847 33.1635 13.095 33.801 13.095C34.4252 13.095 34.9432 12.7927 34.9564 12.4108V7.6057C34.9564 7.22384 34.4385 6.91357 33.801 6.91357Z" fill="#667085"/>
<path d="M72.3552 0C71.7177 0 71.1997 0.310262 71.1997 0.692124V19.3079C71.1997 19.6897 71.7177 20 72.3552 20C72.9927 20 73.5106 19.6897 73.5106 19.3079V0.70008C73.5106 0.318218 72.9927 0 72.3552 0Z" fill="#667085"/>
<path d="M88.6647 0C88.0272 0 87.5093 0.310262 87.5093 0.692124V19.3079C87.5093 19.6897 88.0272 20 88.6647 20C89.3022 20 89.8202 19.6897 89.8202 19.3079V0.70008C89.8202 0.318218 89.3022 0 88.6647 0Z" fill="#667085"/>
<path d="M78.1989 4.34375C77.5614 4.34375 77.0435 4.65401 77.0435 5.03587V14.9722C77.0435 15.3541 77.5614 15.6644 78.1989 15.6644C78.8364 15.6644 79.3544 15.3541 79.3544 14.9722V5.04383C79.3544 4.65401 78.8364 4.34375 78.1989 4.34375Z" fill="#667085"/>
<path d="M83.4187 6.91357C82.7812 6.91357 82.2632 7.22384 82.2632 7.6057V12.4028C82.2632 12.7847 82.7812 13.095 83.4187 13.095C84.0562 13.095 84.5741 12.7847 84.5741 12.4028V7.6057C84.5874 7.22384 84.0694 6.91357 83.4187 6.91357Z" fill="#667085"/>
<path d="M66.5114 4.34375C65.8739 4.34375 65.356 4.65401 65.356 5.03587V14.9722C65.356 15.3541 65.8739 15.6644 66.5114 15.6644C67.1489 15.6644 67.6669 15.3541 67.6669 14.9722V5.04383C67.6669 4.65401 67.1489 4.34375 66.5114 4.34375Z" fill="#667085"/>
<path d="M61.2653 6.91357C60.6278 6.91357 60.1099 7.22384 60.1099 7.6057V12.4028C60.1099 12.7847 60.6278 13.095 61.2653 13.095C61.9028 13.095 62.4208 12.7847 62.4208 12.4028V7.6057C62.4341 7.22384 61.9161 6.91357 61.2653 6.91357Z" fill="#667085"/>
<path d="M104.974 0C104.337 0 103.819 0.310262 103.819 0.692124V19.3079C103.819 19.6897 104.337 20 104.974 20C105.612 20 106.13 19.6897 106.13 19.3079V0.70008C106.143 0.318218 105.612 0 104.974 0Z" fill="#667085"/>
<path d="M110.818 4.34375C110.181 4.34375 109.663 4.65401 109.663 5.03587V14.9722C109.663 15.3541 110.181 15.6644 110.818 15.6644C111.456 15.6644 111.974 15.3541 111.974 14.9722V5.04383C111.974 4.65401 111.456 4.34375 110.818 4.34375Z" fill="#667085"/>
<path d="M116.064 6.91357C115.427 6.91357 114.909 7.22384 114.909 7.6057V12.4028C114.909 12.7847 115.427 13.095 116.064 13.095C116.688 13.095 117.206 12.7927 117.22 12.4108V7.6057C117.22 7.22384 116.702 6.91357 116.064 6.91357Z" fill="#667085"/>
<path d="M99.1306 4.34375C98.4931 4.34375 97.9751 4.65401 97.9751 5.03587V14.9722C97.9751 15.3541 98.4931 15.6644 99.1306 15.6644C99.7681 15.6644 100.286 15.3541 100.286 14.9722V5.04383C100.299 4.65401 99.7813 4.34375 99.1306 4.34375Z" fill="#667085"/>
<path d="M93.9108 6.91357C93.2733 6.91357 92.7554 7.22384 92.7554 7.6057V12.4028C92.7554 12.7847 93.2733 13.095 93.9108 13.095C94.5351 13.095 95.053 12.7927 95.0663 12.4108V7.6057C95.0663 7.22384 94.5483 6.91357 93.9108 6.91357Z" fill="#667085"/>
<path d="M132.465 0C131.828 0 131.31 0.310262 131.31 0.692124V19.3079C131.31 19.6897 131.828 20 132.465 20C133.103 20 133.621 19.6897 133.621 19.3079V0.70008C133.621 0.318218 133.103 0 132.465 0Z" fill="#667085"/>
<path d="M148.775 0C148.137 0 147.619 0.310262 147.619 0.692124V19.3079C147.619 19.6897 148.137 20 148.775 20C149.412 20 149.93 19.6897 149.93 19.3079V0.70008C149.93 0.318218 149.412 0 148.775 0Z" fill="#667085"/>
<path d="M138.309 4.34375C137.671 4.34375 137.153 4.65401 137.153 5.03587V14.9722C137.153 15.3541 137.671 15.6644 138.309 15.6644C138.946 15.6644 139.464 15.3541 139.464 14.9722V5.04383C139.464 4.65401 138.946 4.34375 138.309 4.34375Z" fill="#667085"/>
<path d="M143.529 6.91357C142.891 6.91357 142.373 7.22384 142.373 7.6057V12.4028C142.373 12.7847 142.891 13.095 143.529 13.095C144.166 13.095 144.684 12.7847 144.684 12.4028V7.6057C144.697 7.22384 144.179 6.91357 143.529 6.91357Z" fill="#667085"/>
<path d="M126.621 4.34375C125.984 4.34375 125.466 4.65401 125.466 5.03587V14.9722C125.466 15.3541 125.984 15.6644 126.621 15.6644C127.259 15.6644 127.777 15.3541 127.777 14.9722V5.04383C127.777 4.65401 127.259 4.34375 126.621 4.34375Z" fill="#667085"/>
<path d="M121.375 6.91357C120.738 6.91357 120.22 7.22384 120.22 7.6057V12.4028C120.22 12.7847 120.738 13.095 121.375 13.095C122.013 13.095 122.531 12.7847 122.531 12.4028V7.6057C122.544 7.22384 122.026 6.91357 121.375 6.91357Z" fill="#667085"/>
<path d="M165.084 0C164.447 0 163.929 0.310262 163.929 0.692124V19.3079C163.929 19.6897 164.447 20 165.084 20C165.722 20 166.24 19.6897 166.24 19.3079V0.70008C166.253 0.318218 165.722 0 165.084 0Z" fill="#667085"/>
<path d="M170.928 4.34375C170.29 4.34375 169.772 4.65401 169.772 5.03587V14.9722C169.772 15.3541 170.29 15.6644 170.928 15.6644C171.565 15.6644 172.083 15.3541 172.083 14.9722V5.04383C172.083 4.65401 171.565 4.34375 170.928 4.34375Z" fill="#667085"/>
<path d="M176.174 6.91357C175.537 6.91357 175.019 7.22384 175.019 7.6057V12.4028C175.019 12.7847 175.537 13.095 176.174 13.095C176.798 13.095 177.316 12.7927 177.329 12.4108V7.6057C177.329 7.22384 176.812 6.91357 176.174 6.91357Z" fill="#667085"/>
<path d="M159.24 4.34375C158.603 4.34375 158.085 4.65401 158.085 5.03587V14.9722C158.085 15.3541 158.603 15.6644 159.24 15.6644C159.878 15.6644 160.396 15.3541 160.396 14.9722V5.04383C160.409 4.65401 159.891 4.34375 159.24 4.34375Z" fill="#667085"/>
<path d="M154.021 6.91357C153.383 6.91357 152.865 7.22384 152.865 7.6057V12.4028C152.865 12.7847 153.383 13.095 154.021 13.095C154.645 13.095 155.163 12.7927 155.176 12.4108V7.6057C155.176 7.22384 154.658 6.91357 154.021 6.91357Z" fill="#667085"/>
</svg>
