<svg width="16" height="22" viewBox="0 0 16 22" fill="none" xmlns="http://www.w3.org/2000/svg">
<path d="M6.30728 13.3529C6.89793 13.6997 7.5292 13.8748 8.15422 13.8748C8.58236 13.8748 9.00738 13.7935 9.41677 13.6279C10.4731 13.2029 11.27 12.2934 11.6012 11.1278C12.0075 9.6996 11.9294 8.19643 11.8512 6.74325C11.8293 6.30574 11.8043 5.87135 11.795 5.44008C11.7668 4.24941 11.62 2.75561 10.7168 1.79308C10.5918 1.66182 10.4481 1.54307 10.2855 1.44307C9.15113 0.733667 7.28857 0.946175 6.26041 1.58682C4.7916 2.50248 4.57597 4.38692 4.5416 5.72447C4.53534 6.00573 4.51972 6.31824 4.50097 6.64637C4.38847 8.9652 4.23221 12.1341 6.30728 13.3529ZM4.96036 6.67137C4.97599 6.33699 4.99161 6.02135 5.00099 5.73697C5.03224 4.50567 5.22599 2.77436 6.50416 1.97434C7.01356 1.65557 7.77921 1.45557 8.52298 1.45557C9.08238 1.45557 9.62927 1.56807 10.0449 1.83058C10.173 1.91183 10.2855 2.00246 10.3824 2.10559C11.1793 2.95562 11.3106 4.34004 11.3356 5.45258C11.345 5.88697 11.37 6.32761 11.3918 6.77138C11.4668 8.18705 11.545 9.6496 11.1606 11.0059C10.8668 12.0341 10.1699 12.8341 9.24488 13.206C8.36985 13.556 7.40732 13.4716 6.53542 12.9591C4.7041 11.8809 4.85098 8.87145 4.96036 6.67137Z" fill="black" stroke="black" stroke-width="0.187507"/>
<path d="M9.94154 16.5187C10.0978 16.4999 10.2572 16.4843 10.4166 16.4437C11.026 16.2968 11.5791 16.0936 12.0635 15.8343C12.9979 15.3342 13.776 14.5655 14.3136 13.6061C15.0167 12.3498 15.4199 10.9341 15.3855 9.82468C15.3542 8.79339 14.9417 8.18399 14.2542 8.15899C13.1041 8.12149 13.0198 9.48716 12.9823 10.0747C12.9166 11.081 12.6791 11.9591 12.2729 12.681C11.551 13.9717 10.3697 14.5655 8.32898 14.6686C6.82268 14.7436 5.257 13.9373 4.34447 12.6123C3.91945 11.9966 3.66632 11.2841 3.56944 10.4372C3.55382 10.2966 3.55069 10.1184 3.54757 9.9278C3.53507 9.28716 3.51944 8.49025 3.00692 8.12462C2.51316 7.7746 1.82251 7.86211 1.43187 8.32775C0.859973 9.0059 0.959977 10.2653 1.14436 11.2028C1.37249 12.356 1.94126 13.4561 2.79442 14.3811C3.46006 15.1061 4.28197 15.6968 5.1695 16.0936C5.62889 16.2999 6.11328 16.4562 6.60392 16.5593C7.20082 16.6874 7.39145 16.7499 7.3977 17.2656C7.40395 17.6062 7.40083 17.95 7.3977 18.2937C7.39458 18.4937 7.39458 18.6937 7.39458 18.8937C7.39458 19.1406 7.19144 19.3438 6.94456 19.3438H3.71632C3.21318 19.3438 2.80379 19.7156 2.80379 20.1719C2.80379 20.6282 3.21318 21.0001 3.71632 21.0001H12.7885C13.2917 21.0001 13.701 20.6282 13.701 20.1719C13.701 19.7156 13.2917 19.3438 12.7885 19.3438H9.67903C9.43215 19.3438 9.22901 19.1406 9.22901 18.8937V18.275C9.22901 17.8625 9.22589 17.4499 9.22901 17.0374C9.23214 16.6187 9.4134 16.578 9.94154 16.5187ZM8.77275 18.8937C8.77275 19.3938 9.17901 19.8 9.67903 19.8H12.7885C13.0385 19.8 13.2448 19.9657 13.2448 20.1688C13.2448 20.3719 13.0416 20.5375 12.7885 20.5375H3.71632C3.46631 20.5375 3.26006 20.3719 3.26006 20.1688C3.26006 19.9657 3.46319 19.8 3.71632 19.8H6.95394C7.45395 19.8 7.86022 19.3938 7.86022 18.8937C7.86022 18.6969 7.86022 18.4969 7.86334 18.2968C7.86647 17.95 7.86959 17.6031 7.86334 17.2593C7.85084 16.3562 7.26957 16.2343 6.70705 16.1124C6.24454 16.0155 5.79452 15.8686 5.36326 15.6749C4.52885 15.303 3.76007 14.7467 3.13818 14.0686C2.3444 13.2029 1.81313 12.181 1.60062 11.1091C1.36624 9.92468 1.43499 9.03715 1.78813 8.61526C2.02564 8.33087 2.44753 8.27775 2.74754 8.49025C3.07255 8.72151 3.08505 9.39028 3.09443 9.93093C3.09755 10.1309 3.10068 10.3216 3.11943 10.4841C3.22568 11.4091 3.50382 12.1904 3.97258 12.8685C4.97262 14.3217 6.69455 15.203 8.35711 15.1217C10.5759 15.0092 11.8666 14.3467 12.676 12.8998C13.1135 12.1185 13.3729 11.1747 13.4417 10.0997C13.501 9.19028 13.6573 8.58713 14.2386 8.61213C14.7792 8.63401 14.9136 9.28716 14.9292 9.83405C14.9605 10.8653 14.5792 12.1873 13.9167 13.3779C13.4229 14.2592 12.7073 14.9686 11.851 15.4249C11.401 15.6655 10.8822 15.8561 10.3134 15.9936C10.179 16.0249 10.0322 16.0436 9.89154 16.0593C9.42277 16.1124 8.779 16.1843 8.77275 17.0312C8.76962 17.4437 8.76962 17.8593 8.77275 18.2718V18.8937Z" fill="black" stroke="black" stroke-width="0.187507"/>
<path d="M10.3104 4.0588C10.5386 4.64944 10.6198 5.22446 10.6323 5.6401C10.6448 6.05574 10.6105 6.31825 10.648 6.3245C10.673 6.33075 10.7605 6.07449 10.7886 5.64323C10.8167 5.21196 10.7542 4.60257 10.5136 3.98067C10.2698 3.3619 9.90418 2.87126 9.59167 2.57125C9.27916 2.27124 9.04165 2.14311 9.02603 2.16498C9.00415 2.19311 9.20728 2.36186 9.47917 2.6775C9.75105 2.99314 10.0792 3.47128 10.3104 4.0588Z" fill="black" stroke="black" stroke-width="0.187507"/>
</svg>
