<svg width="16" height="17" viewBox="0 0 16 17" fill="none" xmlns="http://www.w3.org/2000/svg">
<path d="M4.55596 4.02282C4.13286 4.239 3.74717 4.60482 3.40972 5.10998C2.93649 5.8186 2.7499 6.69963 2.87027 7.65771C3.02328 8.87742 3.99693 10.0933 5.28557 10.421C9.00389 11.3689 10.787 7.56106 9.42082 5.20378C8.40837 3.45713 6.10742 3.23113 4.55596 4.02282ZM5.37021 10.0886C4.21144 9.79342 3.34543 8.68897 3.21063 7.61483C3.10075 6.74006 3.26825 5.93965 3.69491 5.30048C3.99953 4.84445 4.34167 4.5175 4.71195 4.32834C6.12428 3.60766 8.21251 3.80285 9.12402 5.37575C10.334 7.46312 8.80873 10.9639 5.37021 10.0886Z" fill="#667085"/>
<path d="M14.9904 14.6021C15.1121 14.4514 15.2048 14.2184 15.2566 13.9803C15.3764 13.5985 15.3546 13.1574 15.2014 12.793C14.9204 12.1246 14.3123 11.6498 13.8235 11.2681C10.9538 9.03535 11.2348 9.23669 11.1681 9.20561C11.8971 7.53401 11.7659 5.64828 10.9612 4.25984C9.4407 1.63596 5.98023 1.29851 3.64589 2.49019C3.48042 2.57469 3.31891 2.67555 3.16118 2.79073C3.14699 2.797 3.13272 2.80333 3.11918 2.80945C2.39111 3.13794 1.29677 4.34061 0.873662 5.8242C0.429016 7.38325 0.711065 9.13365 1.6229 10.4741C3.26714 12.8914 6.588 13.6541 9.10121 11.9605C10.3419 13.1428 11.4197 14.1751 12.7678 14.8472C13.1164 15.0209 13.4913 15.1778 13.8803 15.158C14.2387 15.1397 14.765 14.8814 14.9904 14.6021ZM4.82674 11.7677C3.04019 11.3124 1.67225 9.61004 1.45861 7.91058C1.28788 6.55141 1.54895 5.30702 2.21346 4.3121C2.68792 3.60191 3.22235 3.09161 3.802 2.7957C5.99631 1.67482 9.24462 1.98189 10.6644 4.4318C12.5457 7.67758 10.1815 13.1303 4.82674 11.7677ZM14.4746 14.4365C14.2272 14.5519 13.9003 14.5441 13.5782 14.4141C13.2836 14.2953 13.03 14.1039 12.7291 13.8661C11.7309 13.0772 10.7473 12.2456 9.79833 11.3931C10.337 10.8681 10.7573 10.2236 11.0274 9.52158C14.0447 11.8763 14.5757 12.1897 14.8852 12.9261C15.1042 13.4471 14.9894 14.1955 14.4746 14.4365Z" fill="#667085"/>
</svg>
