<svg width="23" height="19" viewBox="0 0 23 19" fill="none" xmlns="http://www.w3.org/2000/svg">
<g id="Group">
<path id="Vector" d="M18.7107 6.44541C18.6969 7.05369 18.6796 7.74147 18.8317 8.1493C18.8455 8.19077 18.8628 8.22879 18.88 8.26335C19.0356 8.57441 19.2706 8.67464 19.4399 8.70574C19.4883 8.71611 19.5367 8.71957 19.5886 8.71957C20.1312 8.71957 20.7325 8.23916 21.0574 7.93156C21.6623 7.36475 22.3708 6.56983 22.4848 5.44658C22.5954 4.34751 22.0805 3.34868 21.6277 2.70583C21.1646 2.03879 20.4699 1.20931 19.8028 1.03651C19.433 0.939734 19.1911 1.05379 19.0563 1.16438C18.7107 1.44433 18.6347 2.02151 18.6277 2.61597C15.5448 2.17013 13.6751 4.63438 11.9262 7.20231C11.7569 6.97766 11.5841 6.75992 11.3974 6.54564C9.15093 3.98116 5.70167 1.08144 2.02086 1.85216C1.53354 1.95239 0.869952 2.30146 0.607283 2.94085C0.469036 3.27956 0.393001 3.82218 0.838846 4.50304C1.29506 5.19773 2.13836 5.15626 2.81577 5.1217C3.10955 5.10787 3.38604 5.09405 3.59341 5.13552C5.32841 5.48459 7.11179 6.49034 8.75347 8.04561C9.25461 8.52256 9.72811 9.09283 10.1878 9.69421C9.79723 10.2057 9.39286 10.6861 8.96775 11.1009C7.34335 12.6838 5.57034 13.7172 3.8388 14.0939C3.63143 14.1388 3.35494 14.1285 3.06116 14.1216C2.38375 14.1008 1.54045 14.0732 1.0946 14.7713C0.655669 15.4591 0.738617 16.0052 0.883776 16.3404C1.15681 16.9729 1.82385 17.3081 2.31117 17.4015C2.69135 17.474 3.06462 17.5086 3.43788 17.5086C6.69014 17.5086 9.64862 14.8923 11.6359 12.5559C11.7431 12.428 11.8467 12.2967 11.947 12.1654C13.5092 14.3808 15.1923 16.4406 17.7119 16.4406C17.9676 16.4406 18.2337 16.413 18.5102 16.3681C18.5206 16.9729 18.6035 17.5604 18.9561 17.8404C19.0563 17.9199 19.2084 17.9959 19.4261 17.9959C19.5091 17.9959 19.6024 17.9855 19.7061 17.9579C20.3696 17.7782 21.0574 16.9349 21.5171 16.2609C21.9595 15.6112 22.4641 14.6054 22.3397 13.5098C22.2152 12.3866 21.4964 11.602 20.8812 11.0456C20.5217 10.7172 19.8305 10.185 19.2568 10.2956C19.0874 10.3267 18.8524 10.4338 18.7003 10.7449C18.683 10.7794 18.6658 10.8175 18.6519 10.8589C18.5033 11.2702 18.5275 11.958 18.5482 12.5663C18.5552 12.7667 18.5621 12.9465 18.5586 13.102C16.205 13.1711 14.9435 11.6158 13.6474 9.68384C14.9953 7.59631 16.2464 5.8544 18.7176 5.88205C18.7211 6.04795 18.7176 6.23804 18.7107 6.44541ZM19.3743 1.55839C19.4157 1.52383 19.4952 1.48235 19.675 1.52728C20.0655 1.62751 20.6427 2.17704 21.2164 2.99615C21.6173 3.56988 22.077 4.4512 21.9837 5.39473C21.8869 6.35209 21.2544 7.05369 20.7118 7.56175C20.2521 7.99377 19.7717 8.25298 19.5298 8.20805C19.4745 8.19769 19.3985 8.17004 19.3328 8.0387C19.3224 8.01796 19.3121 7.99723 19.3051 7.96958C19.1842 7.65507 19.2015 6.98803 19.2153 6.45578C19.2222 6.21384 19.2257 5.99265 19.2187 5.81984C19.2187 5.77491 19.2153 5.72653 19.2153 5.6816C19.2187 5.67123 19.2222 5.66431 19.2222 5.65395C19.2222 5.62975 19.2187 5.60556 19.2118 5.58137C19.1911 4.96962 19.1738 4.35788 19.1634 3.74614C19.16 3.62863 19.1565 3.49384 19.1496 3.34868C19.1254 2.76805 19.0805 1.79686 19.3743 1.55839ZM9.09563 7.68272C7.38828 6.06523 5.5185 5.0111 3.69018 4.64474C3.4206 4.58945 3.113 4.60673 2.78812 4.62055C2.15219 4.65166 1.55773 4.68276 1.2605 4.23C1.00129 3.83255 0.939075 3.46619 1.07387 3.13786C1.25013 2.70929 1.73054 2.4328 2.12454 2.34985C5.56688 1.63097 8.86061 4.41664 11.0173 6.88089C11.2315 7.12627 11.432 7.38203 11.6255 7.6447C11.6152 7.66198 11.6048 7.6758 11.5944 7.69308C11.235 8.22188 10.8721 8.76104 10.4988 9.27601C10.053 8.69883 9.58986 8.15275 9.09563 7.68272ZM19.1254 11.0421C19.1358 11.0179 19.1427 10.9937 19.1531 10.973C19.2187 10.8382 19.2913 10.8105 19.3501 10.8002C19.5955 10.7518 20.0724 11.0041 20.539 11.4292C21.0851 11.9269 21.7279 12.6216 21.8351 13.5755C21.9422 14.5156 21.4929 15.4072 21.0954 15.9879C20.5321 16.8174 19.9618 17.3738 19.5713 17.481C19.3916 17.5293 19.3121 17.4879 19.2706 17.4533C18.9768 17.2183 19.0079 16.2471 19.0287 15.6665C19.0321 15.5213 19.039 15.3865 19.039 15.269C19.0425 14.6365 19.0528 14.004 19.0701 13.3716C19.0701 13.3612 19.077 13.3474 19.0736 13.337C19.0736 13.3335 19.0701 13.3266 19.0701 13.3232C19.0701 13.2782 19.0701 13.2368 19.0736 13.1918C19.077 13.019 19.0701 12.7978 19.0598 12.5559C19.0321 12.0237 19.0114 11.3566 19.1254 11.0421ZM18.5517 13.617C18.5413 14.1665 18.531 14.716 18.5275 15.2655C18.5275 15.3796 18.5206 15.5109 18.5171 15.6492C18.5137 15.7183 18.5137 15.7909 18.5102 15.8635C15.728 16.3646 13.9965 14.2218 12.2649 11.7506C12.6486 11.2287 13.0046 10.6861 13.3467 10.1504C14.6462 12.0617 16.0252 13.6826 18.5517 13.617ZM13.0218 9.72877C12.4758 10.579 11.9089 11.4603 11.2454 12.2379C9.11291 14.7368 5.85374 17.5777 2.40103 16.9141C2.00703 16.8381 1.52662 16.572 1.34345 16.1469C1.20174 15.822 1.2605 15.4522 1.51971 15.0513C1.81003 14.595 2.4114 14.6123 3.04388 14.6331C3.36876 14.6434 3.67636 14.6538 3.94594 14.595C5.7708 14.1976 7.62676 13.1158 9.32028 11.4672C10.3122 10.4995 11.1797 9.21725 12.0161 7.97649C13.8686 5.23229 15.6243 2.64362 18.6381 3.1344C18.6416 3.21389 18.645 3.29338 18.6485 3.37288C18.6554 3.51112 18.6623 3.64246 18.6623 3.75651C18.6727 4.29913 18.6899 4.84175 18.7072 5.38436C15.849 5.35672 14.4665 7.4788 13.0218 9.72877Z" fill="black" stroke="black" stroke-width="0.3"/>
<path id="Vector_2" d="M4.29497 3.77428C3.15097 3.55654 2.21435 3.77083 2.22818 3.82958C2.23509 3.90216 3.15098 3.79848 4.25004 4.0093C5.3491 4.20976 6.16475 4.63832 6.19931 4.57266C6.23733 4.52773 5.44241 3.98511 4.29497 3.77428Z" fill="black" stroke="black" stroke-width="0.3"/>
<path id="Vector_3" d="M4.90331 15.5316C4.89294 15.5904 5.61528 15.6906 6.42748 15.3692C7.24313 15.0547 7.70972 14.4982 7.66133 14.4602C7.61294 14.4084 7.10143 14.8542 6.34107 15.1445C5.58417 15.4452 4.90331 15.459 4.90331 15.5316Z" fill="black" stroke="black" stroke-width="0.3"/>
</g>
</svg>
