<svg width="32" height="32" viewBox="0 0 32 32" fill="none" xmlns="http://www.w3.org/2000/svg">
<path d="M16.0001 28.1502C13.4251 28.1502 10.9688 27.3564 8.8876 25.8439L5.31885 27.2502C5.18135 27.3064 5.03135 27.2752 4.9251 27.1752C4.81885 27.0752 4.78135 26.9252 4.8251 26.7814L6.0876 23.0252C4.6251 20.9627 3.8501 18.5314 3.8501 16.0002C3.8501 14.2939 4.2001 12.6439 4.8876 11.0877C5.5501 9.5877 6.5001 8.2627 7.7001 7.13145C7.8501 6.9877 8.0876 7.0002 8.23135 7.1502C8.3751 7.3002 8.3626 7.5377 8.2126 7.68145C5.9126 9.83145 4.6001 12.8627 4.6001 16.0002C4.6001 18.3814 5.3251 20.6627 6.70635 22.6002L6.8126 22.7502C6.88135 22.8502 6.9001 22.9752 6.8626 23.0877L5.79385 26.2627L8.8001 25.0814C8.91885 25.0377 9.05635 25.0502 9.15635 25.1252L9.31885 25.2439C11.2751 26.6627 13.5813 27.4064 16.0001 27.4064C18.6188 27.4064 21.1751 26.4939 23.2063 24.8314C23.3688 24.7002 23.6001 24.7252 23.7313 24.8814C23.8626 25.0439 23.8376 25.2752 23.6813 25.4064C21.5188 27.1814 18.7938 28.1502 16.0001 28.1502ZM24.2938 24.7314C24.2001 24.7314 24.1001 24.6939 24.0251 24.6189C23.8813 24.4689 23.8813 24.2314 24.0251 24.0877C26.2001 21.9252 27.4001 19.0564 27.4001 16.0002C27.4001 9.7127 22.2876 4.6002 16.0001 4.6002C14.4876 4.6002 13.0188 4.89395 11.6313 5.46895C11.4376 5.5502 11.2188 5.45645 11.1438 5.26895C11.0626 5.0752 11.1563 4.85645 11.3438 4.78145C12.8188 4.16895 14.3876 3.85645 16.0001 3.85645C22.7001 3.85645 28.1501 9.30645 28.1501 16.0064C28.1501 19.2627 26.8751 22.3252 24.5563 24.6252C24.4876 24.6939 24.3876 24.7314 24.2938 24.7314ZM20.0313 22.9252C19.4751 22.9252 18.8563 22.8064 18.1813 22.5689C13.2251 20.8189 9.9126 17.7564 8.84385 13.9502C8.2376 11.7939 8.9251 10.5752 9.6001 9.9377C10.2751 9.3002 11.0626 9.13145 11.3813 9.13145C11.4688 9.13145 11.5376 9.14395 11.6001 9.1627C11.6063 9.1627 11.6063 9.1627 11.6126 9.16895C11.9876 9.3127 12.5751 10.1814 12.9688 10.8877C13.3626 11.5939 13.7938 12.5502 13.7126 12.9377C13.7063 12.9564 13.7063 12.9689 13.7001 12.9877C13.6001 13.2627 13.3438 13.5252 13.0688 13.8064C12.7188 14.1627 12.3626 14.5314 12.3813 14.9189C12.3813 14.9689 12.4563 15.2877 13.6001 16.4564C14.3938 17.2689 15.2813 18.0439 16.0313 18.5814C16.6188 19.0064 17.4126 19.4814 17.8376 19.3627C18.2438 19.2502 18.4626 18.9002 18.6876 18.5252C18.9126 18.1627 19.1438 17.7877 19.5626 17.7127C20.3313 17.5752 22.4501 18.4564 23.1563 19.2064C23.2688 19.3252 23.3188 19.4877 23.2938 19.6502C23.2001 20.2689 22.8438 21.7877 21.6126 22.5252C21.1563 22.7877 20.6313 22.9252 20.0313 22.9252ZM11.3563 9.88145C11.1626 9.89395 10.6126 10.0189 10.1188 10.4814C9.3626 11.1939 9.1751 12.3189 9.56885 13.7439C10.5626 17.3064 13.7126 20.1939 18.4313 21.8627C19.6063 22.2814 20.5501 22.2814 21.2313 21.8752C22.1313 21.3377 22.4376 20.2064 22.5376 19.6377C21.8751 19.0314 20.1126 18.3689 19.6938 18.4377C19.6063 18.4502 19.4251 18.7502 19.3251 18.9064C19.0563 19.3439 18.7251 19.8814 18.0376 20.0752C17.6376 20.1877 16.9938 20.1877 15.5938 19.1814C14.8126 18.6189 13.8938 17.8127 13.0626 16.9689C11.7751 15.6502 11.6501 15.2377 11.6313 14.9502C11.5938 14.2377 12.1126 13.7064 12.5313 13.2752C12.6876 13.1189 12.8876 12.9064 12.9688 12.7752C12.9376 12.6189 12.7876 12.1002 12.3126 11.2502C11.8438 10.4002 11.4751 9.99395 11.3563 9.88145ZM9.3376 6.66895C9.21885 6.66895 9.1001 6.6127 9.03135 6.50645C8.9126 6.3377 8.95635 6.1002 9.1251 5.9877C9.38135 5.8127 9.6501 5.6377 9.91885 5.48145C10.1001 5.3752 10.3251 5.4377 10.4313 5.61895C10.5376 5.8002 10.4751 6.0252 10.2938 6.13145C10.0438 6.2752 9.7876 6.4377 9.5501 6.60645C9.48135 6.6502 9.40635 6.66895 9.3376 6.66895Z" fill="black"/>
</svg>
