<svg width="32" height="32" viewBox="0 0 32 32" fill="none" xmlns="http://www.w3.org/2000/svg">
<g clip-path="url(#clip0_1141_19068)">
<circle cx="16" cy="16" r="16" fill="#FFE300"/>
<path d="M26.004 24.3064C26.0166 23.2031 24.9268 21.7016 24.253 20.779C23.3 19.4734 21.9512 19.2912 21.0256 19.8772C20.178 20.4134 19.7727 21.241 19.461 22.0551C19.4131 22.1796 19.2664 22.2405 19.1383 22.1717C14.6034 19.7292 12.827 14.6549 13.4848 13.8226C13.9578 13.2241 15.1956 13.4198 15.7739 12.9224C16.1401 12.6075 16.3556 12.1431 16.4044 11.6635C16.4478 11.4914 16.4672 11.2948 16.4618 11.0716C16.4748 11.0901 16.4852 11.1102 16.4985 11.1285L16.4615 11.0611C16.4408 10.3164 16.1743 9.54438 15.8426 8.87726C15.2217 7.62652 14.6694 6.47588 13.4171 5.84786C12.5112 5.39565 11.2079 6.47578 10.4109 7.09893C9.87688 7.50668 9.20816 8.17056 8.88748 9.08238C7.96696 10.9856 8.37519 13.082 8.98674 15.111C10.6627 20.6715 15.2565 27.1845 21.1012 27.4514C23.3582 27.9544 25.9837 26.0939 26.004 24.3064ZM13.1717 6.33802C14.2848 6.89605 14.7873 7.98372 15.3521 9.12126C15.5884 9.59679 15.747 10.0349 15.8367 10.4612C16.115 11.783 15.6593 12.0929 14.819 12.4781C13.7486 10.3969 12.5244 8.4333 11.4187 7.01724C11.8388 6.71011 12.7125 6.10612 13.1717 6.33802ZM22.0098 26.9851C21.5309 27.0172 21.0247 26.9102 20.5085 26.6769C16.4223 24.8333 13.0467 21.4144 11.2473 17.2958C10.5567 15.7152 10.0835 14.0171 9.62576 12.375C9.37516 11.4754 9.09102 10.4555 9.32557 9.5126C9.55263 8.59865 10.2219 7.93262 10.7434 7.53486C11.0624 7.28658 10.9572 7.36852 10.9826 7.34865C12.0576 8.72431 13.2497 10.6342 14.2987 12.6655C13.9334 12.7641 13.5602 12.8053 13.225 12.8277C12.7663 12.8585 12.4368 13.2766 12.5114 13.731C13.1218 17.4489 15.5615 20.8678 18.8784 22.654C19.2961 22.8796 19.807 22.684 19.9725 22.2513C20.1364 21.8232 20.3294 21.3941 20.6042 21.0203C22.5766 23.135 23.9334 25.9149 24.1376 26.2497C23.4846 26.6859 22.7529 26.9411 22.0098 26.9851ZM20.9721 20.6105C21.0784 20.5133 21.191 20.4209 21.3185 20.3402C22.0002 19.9081 23.0336 20.0378 23.8104 21.1022C24.3711 21.8699 25.4667 23.3673 25.4561 24.3C25.4496 24.875 25.0336 25.4852 24.5723 25.9103C23.3645 23.6379 22.1853 21.9029 20.9721 20.6105Z" fill="black"/>
<path d="M6.00634 8.13335C5.9655 8.27925 6.0504 8.43051 6.19595 8.47117C6.66452 8.60281 7.09884 8.84896 7.45183 9.18286C7.50463 9.2328 7.57241 9.25778 7.64001 9.25778C7.88701 9.25778 8.00779 8.95416 7.82819 8.78474C7.41117 8.39019 6.898 8.09946 6.34435 7.94392C6.19934 7.90289 6.04737 7.9878 6.00634 8.13335Z" fill="black"/>
<path d="M8.54052 7.69132C8.65967 7.59821 8.68089 7.42626 8.58761 7.30676L7.44587 5.84557C7.35259 5.72642 7.18046 5.70502 7.06131 5.79848C6.94216 5.89159 6.92094 6.06389 7.01422 6.18304L8.15596 7.64423C8.24826 7.76282 8.42089 7.78497 8.54052 7.69132Z" fill="black"/>
<path d="M9.39304 6.38737C9.42228 6.5336 9.56418 6.63181 9.71553 6.60213C9.86393 6.57252 9.96007 6.42804 9.93028 6.27964C9.81613 5.71029 9.63544 5.15378 9.3934 4.62475C9.33043 4.48705 9.1683 4.42676 9.03006 4.4899C8.89254 4.55269 8.83207 4.71536 8.89504 4.85306C9.11978 5.34357 9.28727 5.85976 9.39304 6.38737Z" fill="black"/>
</g>
<defs>
<clipPath id="clip0_1141_19068">
<rect width="32" height="32" fill="white"/>
</clipPath>
</defs>
</svg>
