<svg width="32" height="32" viewBox="0 0 32 32" fill="none" xmlns="http://www.w3.org/2000/svg">
<g clip-path="url(#clip0_1141_19062)">
<circle cx="16" cy="16" r="16" fill="#FFE300"/>
<path d="M16 26.1237C13.8542 26.1237 11.8073 25.4622 10.0729 24.2018L7.09896 25.3737C6.98438 25.4206 6.85938 25.3945 6.77083 25.3112C6.68229 25.2279 6.65104 25.1029 6.6875 24.9831L7.73958 21.8529C6.52083 20.1341 5.875 18.1081 5.875 15.9987C5.875 14.5768 6.16667 13.2018 6.73958 11.9049C7.29167 10.6549 8.08333 9.55078 9.08333 8.60807C9.20833 8.48828 9.40625 8.4987 9.52604 8.6237C9.64583 8.7487 9.63542 8.94661 9.51042 9.06641C7.59375 10.8581 6.5 13.3841 6.5 15.9987C6.5 17.9831 7.10417 19.8841 8.25521 21.4987L8.34375 21.6237C8.40104 21.707 8.41667 21.8112 8.38542 21.9049L7.49479 24.5508L10 23.5664C10.099 23.5299 10.2135 23.5404 10.2969 23.6029L10.4323 23.7018C12.0625 24.8841 13.9844 25.5039 16 25.5039C18.1823 25.5039 20.3125 24.7435 22.0052 23.3581C22.1406 23.2487 22.3333 23.2695 22.4427 23.3997C22.5521 23.5352 22.5312 23.7279 22.401 23.8372C20.599 25.3164 18.3281 26.1237 16 26.1237ZM22.9115 23.2747C22.8333 23.2747 22.75 23.2435 22.6875 23.181C22.5677 23.056 22.5677 22.8581 22.6875 22.7383C24.5 20.9362 25.5 18.5456 25.5 15.9987C25.5 10.7591 21.2396 6.4987 16 6.4987C14.7396 6.4987 13.5156 6.74349 12.3594 7.22266C12.1979 7.29036 12.0156 7.21224 11.9531 7.05599C11.8854 6.89453 11.9635 6.71224 12.1198 6.64974C13.349 6.13932 14.6562 5.87891 16 5.87891C21.5833 5.87891 26.125 10.4206 26.125 16.0039C26.125 18.7175 25.0625 21.2695 23.1302 23.1862C23.0729 23.2435 22.9896 23.2747 22.9115 23.2747ZM19.3594 21.7695C18.8958 21.7695 18.3802 21.6706 17.8177 21.4727C13.6875 20.0143 10.9271 17.4622 10.0365 14.2904C9.53125 12.4935 10.1042 11.4779 10.6667 10.9466C11.2292 10.4154 11.8854 10.2747 12.151 10.2747C12.224 10.2747 12.2813 10.2852 12.3333 10.3008C12.3385 10.3008 12.3385 10.3008 12.3438 10.306C12.6563 10.4258 13.1458 11.1497 13.474 11.7383C13.8021 12.3268 14.1615 13.1237 14.0938 13.4466C14.0885 13.4622 14.0885 13.4727 14.0833 13.4883C14 13.7174 13.7865 13.9362 13.5573 14.1706C13.2656 14.4674 12.9688 14.7747 12.9844 15.0977C12.9844 15.1393 13.0469 15.4049 14 16.3789C14.6615 17.056 15.401 17.7018 16.026 18.1497C16.5156 18.5039 17.1771 18.8997 17.5312 18.8008C17.8698 18.707 18.0521 18.4154 18.2396 18.1029C18.4271 17.8008 18.6198 17.4883 18.9688 17.4258C19.6094 17.3112 21.375 18.0456 21.9635 18.6706C22.0573 18.7695 22.099 18.9049 22.0781 19.0404C22 19.556 21.7031 20.8216 20.6771 21.4362C20.2969 21.6549 19.8594 21.7695 19.3594 21.7695ZM12.1302 10.8997C11.9688 10.9102 11.5104 11.0143 11.099 11.3997C10.4688 11.9935 10.3125 12.931 10.6406 14.1185C11.4688 17.0872 14.0938 19.4935 18.026 20.8841C19.0052 21.2331 19.7917 21.2331 20.3594 20.8945C21.1094 20.4466 21.3646 19.5039 21.4479 19.03C20.8958 18.5247 19.4271 17.9727 19.0781 18.0299C19.0052 18.0404 18.8542 18.2904 18.7708 18.4206C18.5469 18.7852 18.2708 19.2331 17.6979 19.3945C17.3646 19.4883 16.8281 19.4883 15.6615 18.6497C15.0104 18.181 14.2448 17.5091 13.5521 16.806C12.4792 15.707 12.375 15.3633 12.3594 15.1237C12.3281 14.5299 12.7604 14.0872 13.1094 13.7279C13.2396 13.5977 13.4062 13.4206 13.474 13.3112C13.4479 13.181 13.3229 12.7487 12.9271 12.0404C12.5365 11.332 12.2292 10.9935 12.1302 10.8997ZM10.4479 8.22266C10.349 8.22266 10.25 8.17578 10.1927 8.08724C10.0938 7.94661 10.1302 7.7487 10.2708 7.65495C10.4844 7.50911 10.7083 7.36328 10.9323 7.23307C11.0833 7.14453 11.2708 7.19661 11.3594 7.34766C11.4479 7.4987 11.3958 7.6862 11.2448 7.77474C11.0365 7.89453 10.8229 8.02995 10.625 8.17057C10.5677 8.20703 10.5052 8.22266 10.4479 8.22266Z" fill="black"/>
</g>
<defs>
<clipPath id="clip0_1141_19062">
<rect width="32" height="32" fill="white"/>
</clipPath>
</defs>
</svg>
