<svg width="32" height="32" viewBox="0 0 32 32" fill="none" xmlns="http://www.w3.org/2000/svg">
<g clip-path="url(#clip0_1141_19056)">
<circle cx="16" cy="16" r="16" fill="#FFE300"/>
<path d="M5.69486 24.4152L25.58 24.2333C25.8159 24.2311 26.0872 24.2119 26.2276 24.0224C26.3959 23.7954 26.254 23.4478 26.0127 23.3006C25.7821 23.1598 25.4987 23.1516 25.2273 23.1524C25.294 22.5784 24.9248 12.6302 24.8811 8.52981C24.8794 8.37962 24.7577 8.25904 24.6075 8.25869C23.5279 8.25662 6.8824 8.22482 5.74766 8.22266C5.62018 8.22266 5.50251 8.30594 5.48162 8.461C5.19924 8.86277 4.95448 9.50298 4.98106 9.94225C5.25862 14.53 5.18468 18.9408 4.89058 23.5614C4.86101 24.0257 5.22963 24.4195 5.69486 24.4152ZM24.0801 8.80578C21.209 11.3221 18.5431 14.3849 15.7573 16.7968C12.3624 14.4566 9.16968 11.4675 6.44064 8.77212L24.0801 8.80578ZM6.08444 9.79729C8.2397 12.3502 10.6795 14.6394 13.3384 16.6036C13.922 17.0347 14.7372 17.5162 15.4491 17.5756C16.0552 17.6261 18.4088 15.3122 19.4076 14.0973C20.9933 12.5123 22.6344 10.8127 24.3445 9.30401C24.4136 14.0524 24.6262 18.2064 24.6824 22.8549C18.4567 23.0129 12.3196 22.9095 6.07692 23.0668C6.20109 18.9401 6.27663 14.486 6.07561 9.71434L6.08444 9.79729Z" fill="black"/>
</g>
<defs>
<clipPath id="clip0_1141_19056">
<rect width="32" height="32" fill="white"/>
</clipPath>
</defs>
</svg>
