<svg width="89" height="94" viewBox="0 0 89 94" fill="none" xmlns="http://www.w3.org/2000/svg">
<g clip-path="url(#clip0_976_14770)">
<path d="M76.6005 26.589C74.4947 23.2189 71.5839 19.7544 68.0538 17.9165C67.8516 17.7685 67.6498 17.6198 67.4444 17.481C61.0018 13.0941 52.008 12.6221 45.0707 16.3033C38.0299 20.0398 33.2841 27.8777 33.2608 35.806C33.2452 39.4184 34.137 42.9816 34.03 46.5246C31.8061 46.2761 29.8313 46.1358 28.0753 46.1021C29.1434 41.8343 30.6972 36.9168 31.6923 32.707C31.736 32.5217 31.7168 32.3269 31.6377 32.1531C31.5587 31.9793 31.4242 31.8363 31.2554 31.7463C31.0878 31.6514 30.8929 31.6168 30.7033 31.6483C30.5137 31.6799 30.3411 31.7756 30.2145 31.9195L14.8412 48.4979C14.6081 48.7485 14.5158 49.0977 14.7564 49.5035C14.8854 49.9639 15.1005 50.4008 15.4155 50.7621L24.0644 52.5389C21.7885 56.7527 20.601 59.8064 18.5254 64.854C18.2716 65.4694 18.7852 66.1254 19.4426 66.0393C19.6681 66.1152 19.9705 66.1902 20.4801 66.2733C24.08 62.8191 27.747 59.4352 31.4792 56.1234C31.357 57.4451 31.7051 58.9946 32.2282 59.4602L32.2324 60.0875C30.786 61.1442 29.6825 62.5859 30.0307 64.3458C28.4317 65.1225 27.5957 66.8749 27.8681 68.5242C27.3996 68.9642 27.0484 69.5138 26.846 70.1236C26.3673 71.5948 26.9808 72.5725 27.0907 72.9971C27.4546 75.0405 27.7406 77.3088 28.4163 79.2628L28.4198 79.5133C28.4392 80.6585 31.8999 82.4218 33.5449 82.749C35.6691 84.3226 40.3031 84.356 43.1077 81.6941C44.6102 82.0355 46.4079 80.7138 46.7906 79.0214C47.0351 77.9445 47.3095 78.1277 47.7526 77.9699C48.9035 77.5586 49.8285 76.538 50.0576 75.3346C50.1586 74.8031 50.0315 74.1058 49.5039 73.9575C51.0011 73.6158 52.3105 72.2039 52.0846 70.2708C53.2018 70.2184 54.3399 69.9282 54.8473 69.4684C56.9472 67.5657 57.7868 64.7753 60.1853 62.9016C62.48 61.1081 65.2294 59.9723 67.7407 58.5213C74.3463 54.7005 78.6753 47.7326 79.1984 40.0926C79.5174 35.4483 79.0835 30.5632 76.6005 26.589ZM28.5756 71.9905C28.2173 71.1251 28.4707 70.3416 29.0439 69.7977C32.8098 73.1331 33.7958 70.0811 32.3394 69.6804C30.5152 69.1612 29.7951 68.0404 29.5479 67.8822C29.5757 66.0965 31.1727 65.8094 31.4489 65.6096C32.7552 66.8246 34.265 67.8014 35.9092 68.4952C36.1211 68.5838 36.3591 68.5851 36.5712 68.4988C36.7832 68.4126 36.9519 68.2458 37.0402 68.0351C37.1274 67.8244 37.1276 67.5876 37.0406 67.376C36.9535 67.1645 36.7864 66.9954 36.5755 66.9056C34.7362 66.1323 33.0713 64.936 31.7402 63.4505C31.9942 62.0515 33.5843 61.4044 33.8409 60.9832C37.4189 63.6849 42.627 66.282 46.9441 67.9077C46.9388 68.1236 47.0727 69.2342 46.7421 70.1125C46.217 71.5103 45.5102 70.9639 45.0833 71.5942C45.0304 71.7118 44.5971 72.1001 44.8515 72.666C45.2671 73.5905 44.8698 74.8797 43.8512 75.4284C42.2533 75.3311 43.6981 77.5269 41.8719 78.3738C41.7426 78.3323 33.7267 77.2127 28.5756 71.9905ZM25.9804 50.3275C23.0347 49.7226 20.1334 49.1516 17.1551 48.548L29.1676 35.5932C28.1899 39.2146 26.9638 43.248 26.1344 46.7556C26.1043 46.8828 26.1037 47.0154 26.1327 47.1431C26.1616 47.2709 26.2192 47.3905 26.3013 47.493C26.3833 47.5954 26.4876 47.678 26.6062 47.7345C26.7248 47.791 26.8547 47.8199 26.9859 47.819C29.4028 47.8019 32.405 48.0282 35.9275 48.4925C30.5347 53.3273 26.3274 57.2855 21.6847 61.7245C23.1294 58.2324 24.3304 55.5212 26.5619 51.5998C26.629 51.4816 26.667 51.3491 26.6728 51.2131C26.6787 51.0772 26.6521 50.9416 26.5953 50.8176C26.5386 50.6936 26.4533 50.5846 26.3463 50.4995C26.2394 50.4145 26.1139 50.3558 25.9801 50.3282L25.9804 50.3275ZM33.7386 54.1128C35.2712 52.7686 36.8124 51.4341 38.3621 50.1095C38.3945 49.7433 38.4615 49.0697 38.5181 48.4833C38.6268 48.3698 38.7019 48.2285 38.7351 48.0749C38.7683 47.9213 38.7584 47.7614 38.7065 47.6127C38.6545 47.464 38.5625 47.3322 38.4405 47.2319C38.3186 47.1317 38.1715 47.0667 38.0153 47.0442C37.2323 46.9288 36.4826 46.8265 35.7512 46.733C35.8983 42.7977 34.9757 39.4898 34.9903 35.82C35.0116 28.505 39.3914 21.274 45.8888 17.8266C52.2739 14.4384 60.5449 14.8614 66.4748 18.9041C66.7163 19.0684 66.9524 19.2416 67.1802 19.408C72.6445 23.5183 75.8654 30.7025 75.3846 37.7128C75.0624 42.4439 72.8871 47.1774 69.2564 51.0451C63.8559 56.8648 58.4109 57.2022 54.2332 61.5348C51.5655 64.3281 51.6999 66.8903 49.5176 66.9965C45.2063 65.3053 40.5565 63.8817 33.6162 58.5942C33.3179 57.5431 32.7185 56.9342 33.7386 54.1128ZM30.1431 79.1144C30.0658 78.2669 29.8436 78.873 29.1454 74.7715C31.9839 76.9831 35.2411 78.4867 38.6969 79.4295L37.8559 79.7712C34.0224 81.338 34.5857 80.9032 34.1783 81.1163C32.7988 80.9076 31.4458 80.2361 30.1431 79.1144ZM32.8819 24.2444C32.9459 24.0255 32.9207 23.7899 32.8118 23.5886C32.7029 23.3873 32.5191 23.2365 32.3001 23.1689L24.2057 20.7248C23.988 20.6652 23.756 20.6926 23.559 20.8011C23.362 20.9097 23.2157 21.0909 23.1512 21.306C23.0867 21.5211 23.1091 21.7532 23.2136 21.9529C23.3182 22.1525 23.4967 22.3038 23.711 22.3747L31.8057 24.8198C32.2623 24.9578 32.7448 24.7003 32.8819 24.2444ZM29.2496 13.2902L34.0639 18.5438C34.2203 18.7073 34.4344 18.8035 34.6604 18.8119C34.8864 18.8202 35.1063 18.74 35.273 18.5884C35.4398 18.4368 35.54 18.2259 35.5523 18.0008C35.5647 17.7758 35.4881 17.5545 35.339 17.3844L30.5234 12.1301C30.3683 11.961 30.1524 11.86 29.9232 11.8492C29.6941 11.8385 29.4704 11.9189 29.3014 12.0728C29.1325 12.2268 29.0321 12.4416 29.0223 12.67C29.0125 12.8984 29.0945 13.1211 29.2496 13.2902ZM38.7418 14.7016C38.8411 14.9009 39.0134 15.0547 39.223 15.131C39.4326 15.2073 39.6633 15.2003 39.867 15.1113C40.0708 15.0223 40.232 14.8583 40.317 14.6534C40.4021 14.4484 40.4045 14.2183 40.3236 14.0109C39.6779 12.5541 39.2784 11.0016 39.1415 9.41664C39.1317 9.30384 39.0997 9.19397 39.0474 9.09332C38.9951 8.99266 38.9234 8.90318 38.8365 8.82999C38.7496 8.7568 38.6491 8.70133 38.5409 8.66675C38.4326 8.63217 38.3187 8.61915 38.2056 8.62844C38.0925 8.63774 37.9825 8.66915 37.8817 8.72091C37.781 8.77266 37.6915 8.84373 37.6185 8.93006C37.5455 9.0164 37.4903 9.1163 37.4561 9.22407C37.4218 9.33184 37.4093 9.44536 37.4191 9.55816C37.5719 11.3327 38.0188 13.071 38.7415 14.7022L38.7418 14.7016Z" fill="black"/>
<path d="M25.9806 50.3275C23.0349 49.7225 20.1336 49.1516 17.1553 48.5479L29.1677 35.5932C28.1901 39.2146 26.9639 43.248 26.1345 46.7556C26.1045 46.8828 26.1039 47.0153 26.1328 47.1431C26.1617 47.2708 26.2194 47.3905 26.3015 47.4929C26.3835 47.5954 26.4878 47.678 26.6064 47.7345C26.725 47.791 26.8548 47.8199 26.9861 47.819C29.403 47.8018 32.4052 48.0282 35.9277 48.4925C30.5349 53.3272 26.3275 57.2855 21.6849 61.7245C23.1296 58.2323 24.3305 55.5212 26.5621 51.5998C26.6292 51.4816 26.6672 51.3491 26.673 51.2131C26.6788 51.0771 26.6523 50.9416 26.5955 50.8176C26.5388 50.6935 26.4534 50.5845 26.3465 50.4995C26.2395 50.4144 26.114 50.3557 25.9802 50.3282L25.9806 50.3275Z" fill="#FFE300"/>
</g>
<defs>
<clipPath id="clip0_976_14770">
<rect width="61" height="74" fill="white" transform="translate(34.2217) rotate(27.5454)"/>
</clipPath>
</defs>
</svg>
