<svg width="82" height="80" viewBox="0 0 82 80" fill="none" xmlns="http://www.w3.org/2000/svg">
<g clip-path="url(#clip0_976_14756)">
<path d="M2.94767 29.9595C2.95332 30.0105 2.96 30.0614 2.96773 30.1122C3.13673 31.2221 3.80529 32.1797 4.3782 33.1173C4.97419 34.0916 5.56939 35.0654 6.16363 36.0403C8.77996 40.3306 11.3817 44.6299 13.953 48.9468C16.5405 53.2898 19.0978 57.651 21.608 62.0387C24.0911 66.3714 26.5179 70.7358 28.8878 75.1309C29.3462 75.9826 30.3046 76.1346 31.0205 75.4727C31.0832 75.4142 31.1477 75.3532 31.2208 75.2891C31.3415 75.1829 31.2004 74.9841 31.1284 74.8416C24.2546 61.3411 16.3794 46.9037 8.49004 33.9838C7.76339 32.7936 6.75567 31.9349 5.91482 30.8242C5.44941 30.2094 5.11699 29.32 4.60737 28.683C4.39588 28.4182 4.18182 28.1554 3.96523 27.8946C3.88694 27.8002 3.29042 27.2707 3.30424 27.2162C3.0756 28.1157 2.8462 29.0433 2.94767 29.9595ZM60.2334 10.7071C60.1159 10.7474 59.9904 10.7584 59.868 10.739C59.7456 10.7197 59.6301 10.6707 59.5318 10.5963C59.4334 10.5219 59.3552 10.4244 59.3041 10.3126C59.253 10.2007 59.2307 10.0779 59.239 9.95503C59.2601 9.66082 58.9653 9.08085 58.2592 8.44573C57.2223 7.51189 55.5088 6.67714 54.2414 6.8871C54.0475 6.91293 53.8517 6.86305 53.6951 6.74801C53.5385 6.63296 53.4335 6.46176 53.4022 6.27057C53.371 6.07937 53.4159 5.88315 53.5276 5.72336C53.6393 5.56356 53.8089 5.4527 54.0006 5.41419C55.8306 5.10958 57.9681 6.16116 59.2753 7.3371C60.2802 8.24063 60.8007 9.20409 60.7412 10.0491C60.7194 10.3584 60.511 10.6113 60.2334 10.7071ZM39.6375 30.6503C40.6255 31.0924 41.5203 31.9338 42.44 32.5017L40.3226 33.9174C39.5767 34.4152 39.6315 33.6603 39.5913 33.0881C39.5427 32.3876 39.6001 31.3513 39.6375 30.6503Z" fill="black"/>
<path d="M60.0427 9.85143C60.6519 8.79306 61.2252 7.71484 61.7615 6.61861C62.0411 6.04651 62.318 5.41528 62.1796 4.79683C62.0055 4.01817 61.2417 3.53157 60.5219 3.17837C59.7177 2.78262 58.8355 2.43897 57.9421 2.55279C57.0277 2.66999 56.2287 3.26885 55.7513 4.03777C55.3772 4.64054 54.9092 5.71447 55.4212 6.35648C55.9389 7.00556 57.0163 7.00333 57.7041 7.48517C58.5298 8.06414 59.4084 9.0707 60.0427 9.85143ZM32.8694 68.248C32.697 68.745 33.3299 69.0603 33.7763 69.1285C44.425 62.3414 55.8271 55.2975 67.0186 49.4403C67.2025 48.9142 67.3156 48.2697 66.7402 47.605C62.7095 49.8594 57.9081 52.2046 53.8775 54.4596C46.4995 58.5865 39.4207 62.917 32.8694 68.248Z" fill="black"/>
<path d="M30.9934 75.398C30.8208 75.4571 30.6328 75.4523 30.4643 75.3846C30.2957 75.3168 30.158 75.1907 30.0765 75.0295C24.8801 64.7232 20.1366 55.697 15.9787 48.2031C15.9553 48.1621 15.9216 48.1078 15.8916 48.038C11.6179 40.3521 8.20081 34.6625 5.44952 30.6449C5.44205 30.6365 5.43555 30.6271 5.42983 30.6181L5.36329 30.5312L5.366 30.5277C5.26253 30.4386 5.18514 30.3235 5.14184 30.1944C5.09853 30.0653 5.0909 29.9268 5.11973 29.7933C5.24582 29.251 6.01983 29.0504 6.38907 29.4224C6.42318 29.4518 6.45448 29.4843 6.48258 29.5194C6.48298 29.5206 6.54968 29.6042 6.55125 29.6049L6.64714 29.7334C6.66169 29.751 6.67508 29.769 6.68731 29.7873C9.47129 33.8506 12.9219 39.5958 17.2325 47.3504C17.2546 47.388 17.2722 47.4278 17.2862 47.4682C21.3703 54.8144 26.0008 63.6172 31.0669 73.648C41.9508 67.3535 53.4814 62.2555 64.639 57.323L64.7455 57.2759C63.8322 55.6035 62.8993 53.899 61.9495 52.1681C61.9024 52.0822 61.8728 51.9878 61.8625 51.8904C61.8522 51.7929 61.8613 51.6943 61.8894 51.6001C61.9175 51.5059 61.964 51.418 62.0263 51.3414C62.0885 51.2649 62.1652 51.2011 62.2521 51.1538C62.6047 50.9501 63.0739 51.0861 63.2725 51.4479C64.3404 53.3944 65.4063 55.342 66.4703 57.2907C66.5915 57.5112 66.5919 57.7773 66.4722 57.9995C66.4161 58.1017 66.3372 58.1899 66.2415 58.2573C66.1458 58.3247 66.036 58.3696 65.9204 58.3883L65.2446 58.6862C53.9679 63.6726 42.3056 68.8277 31.3591 75.2039L31.146 75.3259C31.0975 75.3556 31.0459 75.3799 30.9934 75.398ZM48.9297 27.3722C48.5366 27.5079 48.11 27.3062 47.9757 26.917L47.9725 26.9078C47.9144 26.7224 47.9317 26.5214 48.0205 26.3475C48.1094 26.1736 48.2628 26.0405 48.4483 25.9765C48.6338 25.9125 48.8367 25.9226 49.0139 26.0047C49.191 26.0867 49.3286 26.2343 49.3972 26.416C49.5317 26.8058 49.3233 27.2363 48.9297 27.3722Z" fill="black"/>
<path d="M33.5498 68.6776C33.3782 68.7369 33.1912 68.7329 33.0231 68.6662C32.8551 68.5995 32.7174 68.4746 32.6355 68.3146L32.6283 68.3016L20.9317 51.2051L11.5842 38.4246L7.97384 33.771C7.68378 33.4052 7.39315 33.0416 7.10196 32.68L6.13005 31.4808C5.98958 31.3083 5.85424 31.1431 5.70404 30.9726C5.59039 30.8419 5.48261 30.713 5.37831 30.581C5.33167 30.5219 5.2872 30.4612 5.24498 30.3989C5.2109 30.3512 5.17836 30.3004 5.13946 30.2596C4.96579 30.0778 4.79427 29.8721 4.62845 29.6715L3.43692 28.2708C3.4224 28.2534 3.40823 28.2357 3.39442 28.2177C3.28232 28.152 3.1895 28.0585 3.12506 27.9462C3.06062 27.834 3.02676 27.7069 3.0268 27.5774C3.02684 27.4479 3.06078 27.3204 3.12529 27.2074C3.18981 27.0945 3.28268 26.9999 3.39483 26.9329C6.75353 24.9266 10.143 22.9718 13.5621 21.0693C17.4918 18.8814 21.4821 16.8033 25.5283 14.8375C29.0069 13.1355 32.7161 11.4302 36.8656 9.62393L38.8466 8.77159C39.2327 8.61766 39.6708 8.7844 39.8325 9.16411C39.8709 9.25427 39.8909 9.35115 39.8915 9.44924C39.8921 9.54732 39.8732 9.64468 39.8359 9.73574C39.7986 9.82681 39.7436 9.9098 39.6741 9.97997C39.6046 10.0501 39.5219 10.1061 39.4308 10.1447L37.4578 10.9937C33.3343 12.7883 29.6455 14.4846 26.1851 16.1771C22.1636 18.1314 18.1975 20.1972 14.2917 22.3722C11.1567 24.116 8.04688 25.9044 4.96327 27.737L5.79359 28.7188C5.93836 28.8925 6.0857 29.0716 6.23579 29.2286C6.32519 29.3231 6.40494 29.4312 6.48257 29.5408L6.56292 29.6507C6.65384 29.7666 6.74707 29.8779 6.84341 29.9888C7.00403 30.1705 7.15098 30.3505 7.30344 30.5369L8.28126 31.7438C8.57481 32.1084 8.86839 32.4749 9.15924 32.843L15.5932 41.2586L27.5167 58.0177L33.5043 66.8949C40.8107 61.5146 48.8847 57.0345 56.7012 52.6974C58.3362 51.79 59.9687 50.8848 61.5893 49.9734C62.8634 49.2557 64.1337 48.5312 65.4 47.8001C60.5826 40.9654 55.3211 33.621 50.2289 26.5116L49.3495 25.2856C49.1098 24.9503 49.1903 24.4837 49.5301 24.243C49.6936 24.129 49.8954 24.0831 50.0918 24.1153C50.2882 24.1475 50.4634 24.2553 50.5796 24.4152L51.457 25.6413C56.6813 32.9345 62.0838 40.4757 66.9535 47.3958C67.0227 47.483 67.0816 47.559 67.1368 47.6472C67.1962 47.7423 67.2331 47.8495 67.2449 47.961C67.2567 48.0725 67.243 48.1854 67.2049 48.2912C67.1667 48.397 67.1051 48.4931 67.0246 48.5724C66.9441 48.6516 66.8467 48.712 66.7398 48.7489C65.3224 49.5722 63.8269 50.4262 62.3257 51.2713C60.7023 52.1838 59.068 53.0915 57.4301 54C49.4258 58.4418 41.1508 63.0334 33.7581 68.5682C33.6937 68.6162 33.6233 68.6522 33.5498 68.6776Z" fill="black"/>
<path d="M45.5877 19.0773C45.2786 19.1839 44.9254 19.0816 44.7279 18.8041C42.6424 15.867 40.5599 12.928 38.4803 9.98685C38.3661 9.82506 38.3217 9.62449 38.3568 9.42928C38.3918 9.23407 38.5035 9.0602 38.6673 8.94593C38.8311 8.83165 39.0335 8.78633 39.2301 8.81993C39.4266 8.85353 39.6011 8.9633 39.7153 9.12509C41.7327 11.9789 43.8283 14.9344 45.9617 17.9389C46.0285 18.0335 46.0722 18.1423 46.0892 18.2569C46.1063 18.3714 46.0963 18.4884 46.06 18.5988C46.0238 18.7091 45.9623 18.8098 45.8803 18.8928C45.7983 18.9759 45.6982 19.039 45.5877 19.0773Z" fill="black"/>
<path d="M39.1224 35.5581C39.0143 35.5952 38.8993 35.6075 38.786 35.5941C38.6727 35.5807 38.5642 35.542 38.4685 35.4808C38.3728 35.4197 38.2924 35.3377 38.2335 35.241C38.1746 35.1443 38.1387 35.0355 38.1284 34.9228C37.9787 33.2181 38.0966 31.6195 38.2331 29.7702C38.2921 28.9635 38.3552 28.1062 38.4001 27.1699C38.4068 27.0286 38.4545 26.8926 38.5359 26.7766L54.8342 3.5453C56.1874 1.61339 59.0164 1.45574 60.8071 2.51975C61.8403 3.13438 62.6177 4.25988 62.8893 5.53089C63.1199 6.61507 62.9394 7.65243 62.3806 8.44817L46.4386 31.1708C46.3958 31.2323 46.3439 31.2873 46.2847 31.3337C44.9317 32.3868 43.0762 33.389 41.4398 34.2736C40.6234 34.7144 39.853 35.1315 39.2715 35.4872C39.2236 35.5167 39.1743 35.5402 39.1224 35.5581ZM39.8932 27.4474C39.8488 28.2552 39.7956 29.0626 39.7338 29.8694C39.6364 31.2077 39.547 32.4087 39.5683 33.5936C39.9339 33.3898 40.3241 33.1796 40.7257 32.9628C42.2732 32.127 44.0221 31.1809 45.2722 30.2286L61.1473 7.59956C61.4641 7.14646 61.5595 6.52484 61.4155 5.84826C61.2321 4.9862 60.6996 4.20331 60.0267 3.8023C58.8457 3.09975 56.9029 3.2042 56.0668 4.39353L39.8936 27.4486L39.8932 27.4474Z" fill="black"/>
<path d="M45.8257 31.6076C45.6904 31.6545 45.5446 31.6622 45.4055 31.6298C45.2664 31.5974 45.1398 31.5263 45.0405 31.4248C44.9412 31.3232 44.8733 31.1955 44.8448 31.0566C44.8163 30.9176 44.8284 30.7733 44.8797 30.6405C44.9251 30.4393 44.6419 29.7171 44.3119 29.3205C44.1132 29.0815 43.4252 28.8543 43.0856 28.914C42.9453 28.9392 42.8009 28.9243 42.6693 28.8711C42.5377 28.8179 42.4243 28.7286 42.3423 28.6135C42.1181 28.3037 41.7902 28.0831 41.4166 27.9909C40.9369 27.8734 40.0151 27.8879 39.7666 28.0247C39.3991 28.2174 38.9427 28.0654 38.7569 27.6972C38.7125 27.6098 38.6859 27.5145 38.6788 27.4166C38.6716 27.3188 38.684 27.2204 38.7152 27.1271C38.7465 27.0338 38.7959 26.9474 38.8607 26.8729C38.9255 26.7983 39.0044 26.7371 39.0929 26.6928C39.8659 26.3058 41.2226 26.4036 41.7834 26.5384C42.3637 26.6797 42.89 26.9836 43.2995 27.4141C44.0998 27.4409 45.028 27.8288 45.4745 28.3642C45.809 28.7663 46.6774 30.1441 46.2848 31.1642C46.2028 31.3805 46.0298 31.5372 45.8257 31.6076Z" fill="black"/>
<path d="M43.7189 28.1475C43.5682 28.2004 43.4047 28.2043 43.2522 28.1589C43.0996 28.1135 42.9659 28.021 42.8703 27.8948C42.7748 27.7687 42.7223 27.6154 42.7205 27.4571C42.7188 27.2988 42.7678 27.1438 42.8605 27.0144C43.8493 25.6283 44.8813 24.2008 45.9319 22.7481C49.5883 17.6938 53.3685 12.4688 56.3767 7.48628C56.4836 7.32449 56.6491 7.20959 56.8387 7.16561C57.0282 7.12163 57.2271 7.15198 57.3938 7.25031C57.5604 7.34864 57.6819 7.50734 57.7328 7.6932C57.7836 7.87905 57.76 8.07767 57.6667 8.24749C54.6261 13.2838 50.8272 18.5359 47.1531 23.6145C46.1042 25.0646 45.0748 26.488 44.0881 27.8709C43.9934 28.005 43.8624 28.098 43.7189 28.1475ZM15.3187 31.6159C15.1424 31.6791 14.9492 31.675 14.7766 31.6044C14.6041 31.5338 14.4647 31.4017 14.3856 31.234C14.3065 31.0663 14.2935 30.875 14.349 30.6975C14.4045 30.5199 14.5246 30.3689 14.6858 30.2738L28.7008 21.7731C28.8716 21.6702 29.0761 21.6384 29.2697 21.6844C29.4632 21.7304 29.6301 21.8506 29.7339 22.0188C29.7852 22.1023 29.8193 22.1952 29.8343 22.292C29.8494 22.3889 29.845 22.4878 29.8214 22.5833C29.7978 22.6787 29.7555 22.7686 29.697 22.848C29.6384 22.9274 29.5647 22.9946 29.4801 23.0459L15.4657 31.5464C15.4189 31.5755 15.3694 31.5984 15.3187 31.6159ZM19.8309 41.9444C19.6536 42.0074 19.4594 42.0023 19.2866 41.9302C19.1137 41.8582 18.9747 41.7243 18.897 41.555C18.8192 41.3857 18.8084 41.1933 18.8665 41.0157C18.9247 40.838 19.0477 40.688 19.2112 40.5952L32.8493 32.6872C33.0213 32.5976 33.2211 32.5769 33.4071 32.6296C33.5932 32.6822 33.7512 32.8041 33.8482 32.97C33.9453 33.1358 33.974 33.3327 33.9283 33.5199C33.8826 33.707 33.7661 33.8699 33.603 33.9747L19.9651 41.8833C19.9217 41.9086 19.8764 41.9287 19.8309 41.9444ZM27.578 51.9048C27.4024 51.9647 27.2112 51.9584 27.0408 51.8871C26.8705 51.8158 26.733 51.6845 26.6546 51.5184C26.5763 51.3523 26.5626 51.163 26.6162 50.9866C26.6698 50.8103 26.7869 50.6594 26.9451 50.5627L48.0582 37.6931C48.1427 37.6417 48.2365 37.6072 48.3342 37.5917C48.4319 37.5761 48.5316 37.5798 48.6277 37.6025C48.7237 37.6251 48.8142 37.6664 48.8939 37.7239C48.9737 37.7814 49.0411 37.8539 49.0925 37.9375C49.1438 38.021 49.178 38.1138 49.193 38.2107C49.2081 38.3075 49.2038 38.4065 49.1804 38.5019C49.1569 38.5973 49.1148 38.6874 49.0563 38.7669C48.9979 38.8463 48.9244 38.9137 48.8399 38.9652L27.7262 51.835C27.6792 51.8634 27.6293 51.8871 27.578 51.9048ZM36.4853 55.1232C36.3059 55.1878 36.1089 55.1826 35.9341 55.1086C35.7593 55.0347 35.6197 54.8975 35.5435 54.7247C35.4673 54.552 35.4602 54.3566 35.5237 54.178C35.5871 53.9995 35.7163 53.851 35.8852 53.7627C38.1532 52.5324 40.3188 51.1238 42.3612 49.5504C42.4394 49.4896 42.5288 49.4447 42.6243 49.4183C42.7199 49.3919 42.8196 49.3845 42.9178 49.3965C43.016 49.4085 43.1107 49.4397 43.1964 49.4883C43.2822 49.5368 43.3573 49.6018 43.4174 49.6795C43.4778 49.7568 43.5222 49.8452 43.5481 49.9398C43.5739 50.0343 43.5806 50.1331 43.5679 50.2304C43.5552 50.3278 43.5233 50.4218 43.474 50.5072C43.4247 50.5925 43.3589 50.6674 43.2805 50.7277C41.1742 52.3512 38.9401 53.8041 36.6001 55.0719C36.5635 55.0925 36.5251 55.1096 36.4853 55.1232Z" fill="black"/>
<path d="M45.9977 29.1936C45.5811 28.361 45.2021 27.94 44.2719 27.6161C45.5452 25.8326 57.3588 9.62217 57.7435 8.03424C57.9267 8.16808 58.103 8.30433 58.2594 8.4455C58.9654 9.08062 59.2602 9.6606 59.2389 9.95423C59.2317 10.0601 59.2486 10.1622 59.2831 10.2562L45.9977 29.1936ZM54.3214 6.88193C54.9945 6.79372 55.78 6.98591 56.5238 7.32564C55.8862 7.90239 56.7207 7.83539 45.9321 22.748C45.6613 23.1225 43.038 26.7451 42.8431 27.054C42.2303 26.6155 41.7069 26.4245 40.6127 26.4216L54.3214 6.88193Z" fill="#FFE300"/>
<path d="M15.4659 31.5465L29.4804 23.046C29.565 22.9947 29.6387 22.9275 29.6972 22.8481C29.7558 22.7687 29.7981 22.6787 29.8216 22.5833C29.8452 22.4879 29.8496 22.3889 29.8346 22.2921C29.8196 22.1952 29.7855 22.1024 29.7342 22.0188C29.6303 21.8507 29.4635 21.7305 29.2699 21.6845C29.0764 21.6384 28.8719 21.6703 28.7011 21.7731L14.686 30.2739C14.5153 30.3775 14.3927 30.544 14.3451 30.7366C14.3215 30.832 14.3171 30.9309 14.332 31.0277C14.347 31.1246 14.381 31.2174 14.4323 31.301C14.4835 31.3846 14.5508 31.4572 14.6305 31.5148C14.7101 31.5723 14.8006 31.6137 14.8965 31.6365C15.0904 31.6825 15.2952 31.6501 15.4659 31.5465ZM19.2121 40.5951C19.1265 40.6446 19.0514 40.7104 18.9913 40.7886C18.9311 40.8668 18.8871 40.9559 18.8616 41.0509C18.8361 41.1458 18.8297 41.2447 18.8427 41.3418C18.8558 41.439 18.888 41.5325 18.9376 41.6171C18.9871 41.7016 19.0529 41.7755 19.1313 41.8346C19.2097 41.8937 19.2992 41.9368 19.3946 41.9615C19.49 41.9861 19.5896 41.9919 19.6875 41.9784C19.7854 41.9649 19.8797 41.9324 19.9652 41.8827L33.6033 33.9748C33.7664 33.87 33.8829 33.7071 33.9286 33.5199C33.9743 33.3328 33.9456 33.1358 33.8485 32.97C33.7514 32.8042 33.5934 32.6823 33.4074 32.6296C33.2213 32.577 33.0216 32.5976 32.8496 32.6873L19.2121 40.5951ZM27.5782 51.9049C27.6296 51.8872 27.6795 51.8635 27.7262 51.8344L48.8399 38.9646C49.0105 38.8608 49.1329 38.6942 49.1803 38.5015C49.2276 38.3089 49.196 38.1059 49.0923 37.9373C48.9887 37.7687 48.8216 37.6483 48.6277 37.6025C48.4338 37.5567 48.229 37.5893 48.0585 37.6932L26.9448 50.563C26.1788 51.029 26.7326 52.1967 27.5782 51.9049ZM42.3615 49.5504C40.3191 51.1238 38.1534 52.5325 35.8855 53.7627C35.7986 53.8098 35.7217 53.8734 35.6594 53.9498C35.597 54.0262 35.5504 54.114 35.5221 54.2081C35.4938 54.3022 35.4844 54.4008 35.4945 54.4982C35.5046 54.5957 35.534 54.6901 35.5809 54.7761C35.6279 54.862 35.6915 54.9379 35.7681 54.9993C35.8447 55.0607 35.9329 55.1064 36.0276 55.1339C36.1222 55.1614 36.2216 55.1701 36.3198 55.1594C36.4181 55.1488 36.5134 55.1191 36.6004 55.072C38.9404 53.8041 41.1745 52.3513 43.2808 50.7277C43.611 50.4742 43.6716 50.0049 43.4169 49.6792C43.3568 49.6017 43.2817 49.5368 43.196 49.4883C43.1103 49.4398 43.0157 49.4087 42.9176 49.3968C42.8195 49.3848 42.7198 49.3922 42.6244 49.4186C42.529 49.4449 42.4396 49.4898 42.3615 49.5504Z" fill="black"/>
</g>
<defs>
<clipPath id="clip0_976_14756">
<rect width="64.7621" height="61.0824" fill="white" transform="translate(0 21.7092) rotate(-19.0407)"/>
</clipPath>
</defs>
</svg>
