<svg width="131" height="132" viewBox="0 0 131 132" fill="none" xmlns="http://www.w3.org/2000/svg">
<path d="M107.755 33.2565C107.783 32.9498 107.93 32.6665 108.166 32.4677C108.401 32.2689 108.705 32.1707 109.012 32.1943L120.34 33.145C120.642 33.1783 120.919 33.328 121.112 33.5623C121.304 33.7966 121.398 34.0969 121.373 34.3993C121.347 34.7017 121.205 34.9822 120.976 35.1811C120.746 35.38 120.449 35.4815 120.146 35.4641L108.817 34.5143C108.665 34.5015 108.517 34.4588 108.381 34.3886C108.245 34.3185 108.124 34.2223 108.026 34.1055C107.927 33.9887 107.852 33.8536 107.806 33.7079C107.759 33.5622 107.742 33.4088 107.755 33.2565ZM117.698 21.2963L109.086 25.5059C108.81 25.6336 108.495 25.6482 108.208 25.5464C107.921 25.4445 107.685 25.2345 107.552 24.9611C107.418 24.6878 107.396 24.373 107.492 24.084C107.588 23.7951 107.792 23.5551 108.063 23.4154L116.677 19.2056C116.814 19.1386 116.963 19.0992 117.116 19.0898C117.268 19.0804 117.421 19.1012 117.566 19.1509C117.71 19.2006 117.844 19.2783 117.958 19.3795C118.073 19.4807 118.166 19.6035 118.233 19.7408C118.3 19.8782 118.34 20.0274 118.349 20.1799C118.358 20.3325 118.338 20.4854 118.288 20.6299C118.238 20.7745 118.161 20.9078 118.059 21.0223C117.958 21.1368 117.835 21.2293 117.698 21.2963ZM105.129 18.3533C104.907 18.5545 104.616 18.6621 104.316 18.6539C104.016 18.6457 103.731 18.5222 103.52 18.3091C103.309 18.0961 103.188 17.8099 103.183 17.5101C103.178 17.2103 103.288 16.9199 103.491 16.6995C105.018 15.1898 106.283 13.4373 107.236 11.5136C107.304 11.3767 107.398 11.2546 107.513 11.1541C107.628 11.0536 107.762 10.9768 107.907 10.928C108.051 10.8792 108.204 10.8594 108.357 10.8698C108.509 10.8801 108.658 10.9203 108.795 10.9882C108.932 11.0561 109.054 11.1503 109.154 11.2653C109.255 11.3804 109.332 11.5142 109.381 11.659C109.429 11.8037 109.449 11.9567 109.439 12.1091C109.428 12.2615 109.388 12.4104 109.32 12.5473C108.254 14.7014 106.838 16.6627 105.129 18.3533Z" fill="black"/>
<path d="M102.375 24.4025C102.339 24.2192 102.266 24.045 102.161 23.8905C102.056 23.7359 101.921 23.6041 101.764 23.5029C101.607 23.4017 101.431 23.3332 101.247 23.3015C101.063 23.2699 100.874 23.2756 100.692 23.3185C99.7778 23.5343 98.895 23.802 98.0267 24.0934C97.3513 19.5823 94.7659 15.6682 93.194 13.6575C93.0252 13.4412 92.7961 13.28 92.5356 13.194C92.275 13.1081 91.9949 13.1015 91.7306 13.1749C87.6849 14.289 84.1142 17.0525 81.9524 20.6492C81.0071 19.4997 80.0625 18.4729 79.1856 17.6873C78.4975 17.0718 77.3549 17.2794 76.9755 18.1851C73.8305 25.685 70.5858 34.036 74.3413 41.8773C75.4502 44.1891 77.1889 46.141 79.3576 47.5087C79.3483 47.7318 79.3191 47.9536 79.2704 48.1715C73.7602 48.5638 68.1231 49.3937 62.6004 50.5947C62.7613 47.9936 63.5579 42.6782 65.0652 40.6223C66.9521 38.055 69.5576 39.7207 68.5386 40.8645C68.4215 40.9945 68.2848 41.0712 68.1868 41.0573C67.8212 41.0153 67.4538 41.1191 67.1642 41.3463C66.8747 41.5734 66.6864 41.9056 66.6402 42.2707C66.421 44.0685 69.0453 44.4602 70.6061 42.7215C73.0236 40.027 70.5108 36.2772 67.0867 36.4753C65.4695 36.587 63.9242 37.4784 62.825 38.9776C60.8289 41.7022 59.8995 47.8581 59.7588 51.2454C58.7427 51.4906 57.7297 51.7486 56.7201 52.0193C55.829 49.5118 55.4459 46.8241 55.6585 44.1693C55.6819 43.8753 55.5906 43.6093 55.4521 43.3725C64.0846 40.3997 67.4123 30.4482 64.0662 21.3833C63.2014 18.0354 61.5933 14.8863 59.2742 12.3288C59.1488 12.1902 58.9968 12.0784 58.8273 11.9999C58.6577 11.9214 58.4741 11.8779 58.2873 11.872C58.1006 11.8661 57.9146 11.8979 57.7404 11.9656C57.5662 12.0332 57.4075 12.1352 57.2736 12.2656C56.6145 12.9153 55.9861 13.5954 55.3904 14.3037C52.4868 10.787 48.2519 8.76266 45.8697 7.85275C45.6137 7.75478 45.3345 7.73469 45.0671 7.795C44.7997 7.85532 44.5561 7.99335 44.3669 8.19173C41.4738 11.2309 39.838 15.44 39.8418 19.6366C38.439 19.1385 37.0997 18.7464 35.9421 18.5242C35.7245 18.4827 35.5001 18.4937 35.2877 18.5565C35.0752 18.6192 34.8808 18.7318 34.7207 18.8849C34.5606 19.038 34.4394 19.2272 34.3672 19.4366C34.295 19.646 34.2739 19.8697 34.3057 20.0889C35.6899 29.6114 37.4461 38.3868 46.0867 42.7413C48.3569 43.7907 50.9162 44.147 52.8868 43.9539C52.6492 46.9351 53.0737 49.9493 54.05 52.7706C50.4422 53.8317 46.953 55.0461 43.6472 56.3881C42.7223 54.3135 41.5107 51.541 42.2143 49.5676C42.6607 48.315 43.5561 48.1566 43.9347 48.5924C43.7649 48.6594 43.6099 48.7592 43.4786 48.8861C43.3473 49.013 43.2424 49.1646 43.1697 49.3321C43.097 49.4996 43.058 49.6797 43.055 49.8623C43.052 50.0449 43.0849 50.2263 43.152 50.3961C43.7667 51.9483 45.9801 51.3195 46.5219 49.3862C47.6165 45.4703 41.3733 43.6441 39.5954 48.6353C38.5657 51.5228 39.8291 54.6458 41.0873 57.4697L40.9662 57.5227C39.255 56.1089 37.5642 54.8316 36.0435 53.8151C39.6622 48.764 37.5789 41.2859 33.3342 36.4703C29.8891 31.5334 24.4204 27.9586 18.4554 27.1237C18.2704 27.0975 18.082 27.1089 17.9015 27.1572C17.721 27.2056 17.5521 27.2899 17.405 27.4051C17.2578 27.5202 17.1355 27.6639 17.0452 27.8276C16.9549 27.9912 16.8987 28.1713 16.8797 28.3572C16.7897 29.2785 16.7427 30.2035 16.7388 31.1292C12.2545 30.2904 7.7083 31.4451 5.29552 32.2719C5.03636 32.3613 4.80932 32.5252 4.64282 32.743C4.47632 32.9608 4.37774 33.2229 4.35943 33.4965C4.08566 37.683 5.52526 41.965 8.21681 45.1862C6.82088 45.7 5.53999 46.256 4.51013 46.8278C4.31622 46.9352 4.15082 47.0875 4.02774 47.2719C3.90466 47.4563 3.82746 47.6674 3.8026 47.8877C3.77774 48.108 3.80592 48.3311 3.88481 48.5382C3.9637 48.7454 4.091 48.9307 4.25608 49.0787C7.17593 51.6978 10.1935 54.4051 13.7296 56.4295C18.8868 59.3844 24.9214 60.5941 30.2313 58.0289C31.6394 57.5374 32.9519 56.8057 34.1104 55.8664C35.3364 56.6626 36.7203 57.6795 38.1527 58.823C31.3245 62.125 25.6485 65.9997 21.9922 70.2051C21.8401 70.3805 21.7343 70.5912 21.6846 70.818C21.6348 71.0447 21.6427 71.2804 21.7074 71.5034C21.7721 71.7263 21.8917 71.9295 22.0552 72.0944C22.2186 72.2593 22.4208 72.3806 22.6432 72.4473C22.7132 72.4912 22.7778 72.5417 22.8555 72.5728C34.8203 77.3952 45.6237 85.1924 54.3229 95.1625C54.0317 95.4726 53.8729 95.8845 53.9386 96.3089C54.3148 98.931 54.6791 101.994 55.7128 104.194C55.8722 104.534 56.1608 104.792 56.5156 104.916C58.4703 105.594 60.4883 106.033 62.5242 106.327C65.6813 111.461 68.2683 116.892 70.1896 122.494C70.3841 123.063 70.7223 123.181 71.7019 123.872C72.2689 124.818 73.7592 125.24 74.7608 125.27C78.3949 125.377 81.3525 122.128 84.9637 122.037C86.4098 122.001 88.1149 122.4 89.1084 121.348C90.1399 120.256 89.5631 118.5 89.0555 117.086C87.2837 112.15 87.135 106.824 87.1856 101.557C89.688 100.636 91.0389 98.0011 90.7034 96.2918C90.5647 95.5855 90.1395 95.1365 89.8554 94.376C89.4062 93.1734 89.8978 91.8527 90.0982 90.5838C90.2988 89.3159 89.9726 87.6961 88.7386 87.3402C101.964 55.52 104.432 57.8528 102.889 52.9341C103.049 52.5261 103.038 52.0587 102.778 51.6668C101.288 49.4242 98.5399 48.8022 96.0483 48.487C94.6188 48.311 93.1844 48.1778 91.747 48.0875C99.0008 46.1655 104.443 38.1446 102.74 28.4696C102.748 27.1063 102.639 25.7432 102.375 24.4025ZM42.6333 20.5477C42.3844 17.0707 43.546 13.4956 45.7619 10.8062C48.0701 11.7862 51.4702 13.6278 53.6441 16.5536C51.8604 19.1372 50.5682 21.9377 49.8096 24.8701C47.7888 23.3138 45.193 21.8734 42.6098 20.7352C42.6132 20.6715 42.6372 20.6137 42.6333 20.5477ZM37.3589 21.7387C41.284 22.9107 46.4608 25.4584 49.2095 27.9899C49.0013 29.631 48.9543 31.2885 49.0692 32.9387C49.0948 33.3066 49.2654 33.6493 49.5435 33.8916C49.8216 34.1338 50.1844 34.2558 50.5524 34.2307C51.3008 34.1671 51.8947 33.5134 51.8425 32.7487C51.4059 26.3965 53.6413 20.2672 58.1648 15.3382C65.0304 24.3568 61.8571 37.1357 55.5312 40.3668C50.5412 42.9235 42.9834 40.2803 39.4766 30.8352C38.4009 27.9388 37.828 24.8226 37.3589 21.7387ZM10.9427 44.0952C8.52479 41.5833 7.12754 38.0963 7.10684 34.6093C9.50411 33.8837 13.2921 33.1204 16.842 33.976C17.1254 37.1025 17.9281 40.0799 19.2245 42.8173C16.6775 42.9222 13.7616 43.4781 11.0473 44.2582C11.0095 44.2049 10.989 44.1437 10.9427 44.0952ZM7.65864 48.3891C11.4233 46.7727 17.0305 45.419 20.7626 45.5977C21.6546 46.9915 22.6806 48.2947 23.8262 49.4887C24.0815 49.7549 24.4321 49.9086 24.8008 49.9163C25.1695 49.9239 25.5261 49.7847 25.7922 49.5294C26.0584 49.2741 26.2121 48.9235 26.2198 48.5548C26.2274 48.1861 26.0882 47.8295 25.8329 47.5634C21.4263 42.9679 19.2182 36.8282 19.5333 30.1466C30.6002 32.6733 36.3276 44.5335 33.5458 51.0511C31.3422 56.2198 23.8486 59.0267 15.1129 54.0166C12.4294 52.4787 9.99546 50.4551 7.65864 48.3891ZM83.878 22.868C85.4568 19.7609 88.2937 17.2968 91.5812 16.1347C93.0534 18.1639 95.0163 21.4929 95.3717 25.1226C92.5113 26.4158 89.9616 28.1499 87.7987 30.2727C86.8692 27.8968 85.3881 25.3246 83.759 23.0173C83.7956 22.9642 83.8471 22.9276 83.877 22.8681L83.878 22.868ZM76.8493 40.6745C73.8825 34.4818 76.1785 27.408 78.7436 21.1726C81.5035 24.2026 84.6277 29.0525 85.6772 32.6365C84.6528 33.936 83.758 35.3328 83.0056 36.8066C82.9224 36.969 82.8721 37.1462 82.8575 37.3281C82.8429 37.51 82.8643 37.6929 82.9205 37.8665C82.9766 38.0401 83.0665 38.2009 83.1848 38.3398C83.3032 38.4786 83.4478 38.5927 83.6103 38.6757C84.2909 39.0284 85.1309 38.7541 85.4804 38.0718C88.3795 32.4016 93.4548 28.3035 99.8731 26.4111C101.109 37.6886 91.8012 46.9868 84.7136 46.5012C81.5271 46.2812 78.44 43.9934 76.8493 40.6745ZM77.8813 51.0455C76.3805 53.355 74.552 55.9324 75.3912 58.922C72.0986 60.7354 69.0021 62.8839 66.1509 65.3333C65.9268 64.6964 65.63 64.0876 65.2663 63.5188C65.2796 63.2439 65.2382 62.9647 65.0811 62.7138C63.5385 60.2546 62.7068 57.049 62.562 53.4816C67.5768 52.3369 72.742 51.4943 77.8814 51.0465L77.8813 51.0455ZM45.506 65.4987C39.6252 65.6915 33.7914 66.6179 28.1402 68.2566C31.4385 65.6575 35.6997 63.1411 40.6114 60.8621C42.3924 62.4043 44.1058 64.021 45.506 65.4987ZM59.7769 54.1524C59.8448 55.4941 60.0214 56.828 60.3048 58.1411C59.3739 57.0699 58.5672 55.8969 57.9 54.6444C58.5228 54.4753 59.1481 54.312 59.7769 54.1524ZM55.1613 55.422C58.4916 62.1074 63.451 63.3718 63.7137 67.315C59.0801 66.2126 54.3442 65.5957 49.5828 65.4743C49.385 65.2377 47.2784 63.3537 44.9195 58.9924C48.1493 57.6825 51.5875 56.4814 55.1623 55.4219L55.1613 55.422ZM27.2189 71.4202C35.0871 68.9148 41.8119 68.0057 52.1922 69.569C60.8326 70.8697 67.1641 71.6047 75.4634 74.3379C75.5278 74.2809 75.5675 74.2285 75.6221 74.1735C77.0344 73.9878 77.2779 72.1341 76.0309 71.5584C73.078 70.1988 70.0276 69.0618 66.9052 68.1569C68.3086 67.7328 77.9351 56.5792 98.3375 54.9581C91.8667 66.4516 86.7895 77.8771 84.5207 90.6514C76.8595 95.5653 67.0991 97.3064 58.1949 95.3899C49.7163 85.0497 39.0758 76.8141 27.2189 71.4202ZM56.9914 97.9829C66.7974 100.271 77.6546 98.4037 86.1162 92.9441C86.0638 94.408 86.3386 95.8651 86.9206 97.2094C78.8322 103.655 67.6299 105.598 58.0055 102.484C57.5151 101.195 57.22 99.5164 56.9914 97.9829ZM65.9326 106.641C72.3023 106.906 78.0893 105.561 83.4003 102.786C83.3323 108.05 83.8241 113.138 84.9404 117.932C83.7346 119.183 80.5823 118.944 78.7799 119.388C78.8991 117.204 78.4933 114.989 77.5422 113.02C77.4628 112.855 77.3518 112.708 77.2155 112.587C77.0793 112.465 76.9204 112.372 76.748 112.312C76.5757 112.252 76.3932 112.226 76.2109 112.237C76.0287 112.247 75.8503 112.293 75.6859 112.373C75.5215 112.452 75.3744 112.563 75.2529 112.699C75.1315 112.836 75.038 112.994 74.978 113.167C74.9179 113.339 74.8923 113.522 74.9028 113.704C74.9133 113.886 74.9595 114.065 75.0389 114.229C75.9568 116.13 76.2637 118.323 75.9023 120.404C75.8636 120.629 75.8953 120.845 75.96 121.048C74.6131 122.621 74.9972 122.793 72.6669 121.153C70.918 116.148 68.6396 111.29 65.9326 106.641ZM99.2187 52.1496C91.5351 52.6426 84.4251 54.4409 77.9677 57.5581C77.887 55.3464 80.028 53.1968 81.2304 50.814C84.85 50.6205 96.0203 50.4778 99.2187 52.1496Z" fill="black"/>
<path d="M54.9755 83.238C52.0829 80.2389 49.0076 77.4217 45.7671 74.8025C45.48 74.5708 45.1127 74.4626 44.7459 74.5018C44.3791 74.5409 44.0429 74.7241 43.8112 75.0112C43.5795 75.2982 43.4713 75.6655 43.5104 76.0323C43.5495 76.3991 43.7328 76.7354 44.0198 76.9671C47.1707 79.5128 50.1611 82.251 52.9741 85.1658C53.0992 85.3033 53.2506 85.4143 53.4193 85.4922C53.588 85.5702 53.7707 85.6135 53.9565 85.6196C54.1422 85.6258 54.3273 85.5946 54.5008 85.5279C54.6743 85.4612 54.8327 85.3604 54.9666 85.2315C55.1005 85.1025 55.2071 84.9481 55.2802 84.7772C55.3533 84.6063 55.3914 84.4225 55.3923 84.2366C55.3931 84.0507 55.3566 83.8666 55.2851 83.6951C55.2135 83.5235 55.1082 83.3681 54.9755 83.238Z" fill="black"/>
<path d="M42.6332 20.5469C42.3844 17.0708 43.546 13.4958 45.7619 10.8064C48.0701 11.7864 51.4703 13.628 53.6441 16.5537C51.8604 19.1374 50.5682 21.9379 49.8096 24.8702C47.7888 23.314 45.193 21.8735 42.6098 20.7354C42.6132 20.6717 42.6371 20.6128 42.6332 20.5469Z" fill="#FFE300"/>
<path d="M37.3599 21.7378C41.284 22.9109 46.4608 25.4587 49.2095 27.9901C49.0013 29.6312 48.9543 31.2887 49.0692 32.9389C49.0948 33.3068 49.2654 33.6495 49.5435 33.8918C49.8216 34.134 50.1845 34.256 50.5524 34.2309C51.3009 34.1673 51.8948 33.5136 51.8425 32.7489C51.406 26.3967 53.6414 20.2674 58.1648 15.3384C65.0304 24.357 61.8571 37.1359 55.5313 40.367C50.5412 42.9237 42.9834 40.2805 39.4767 30.8354C38.4009 27.939 37.829 24.8227 37.36 21.7388L37.3599 21.7378Z" fill="#FFE300"/>
</svg>
