<svg width="63" height="75" viewBox="0 0 63 75" fill="none" xmlns="http://www.w3.org/2000/svg">
<path d="M0.13357 10.6056C-0.147175 11.106 0.0292162 11.742 0.526074 12.0241C2.5539 13.1755 4.48074 14.5275 6.25206 16.0423C6.44663 16.2077 6.68429 16.2891 6.9206 16.2891C7.87637 16.2891 8.32629 15.0829 7.59048 14.4529C5.71885 12.8541 3.68429 11.4261 1.54268 10.2096C1.0465 9.92891 0.415661 10.1052 0.13357 10.6056Z" fill="black"/>
<path d="M11.3923 11.9168C11.9013 11.6565 12.1046 11.0286 11.8454 10.516L7.93921 2.7644C7.68069 2.25043 7.05793 2.04973 6.54895 2.30603C6.03998 2.56641 5.83598 3.19293 6.09451 3.70554L10.0014 11.4598C10.2576 11.9684 10.8764 12.1778 11.3923 11.9168Z" fill="black"/>
<path d="M15.9199 0.00838856C15.3551 0.0911117 14.9639 0.619997 15.0461 1.18957L15.9529 7.44126C16.0283 7.9593 16.47 8.33223 16.9749 8.33223C17.6121 8.33223 18.0896 7.76439 17.9996 7.14021L17.0927 0.888508C17.0099 0.318939 16.4855 -0.0621294 15.9199 0.00838856Z" fill="black"/>
<path d="M57.9717 24.5755C54.9651 18.545 50.0189 14.0693 43.6005 12.0356C37.2756 10.0333 30.4055 10.6536 24.2597 13.0171C24.0728 12.7815 23.8001 12.6009 23.4418 12.5617C20.0068 12.1141 16.8521 13.8651 14.2193 15.9145C11.5554 17.9797 8.99271 20.296 6.76498 22.8323C2.27056 27.9519 0.0506123 34.2179 0.190819 41.0571C0.323237 47.5901 2.21603 54.2095 5.25385 59.9651C8.20599 65.5637 12.6303 70.2357 18.6047 72.4579C21.8684 73.675 25.3736 74.154 28.832 74.3424C32.2905 74.5309 39.4332 73.3609 43.3902 71.6413C52.418 67.7231 54.8326 63.3415 56.8579 60.4205C59.662 56.3924 62.0923 49.8437 62.2636 43.2557C62.435 36.8327 60.8226 30.3075 57.9717 24.5755Z" fill="black"/>
<path d="M44.0991 68.6737C38.4363 71.6182 30.5457 72.5448 24.4311 71.5319C21.3076 71.0136 18.2464 70.0714 15.5513 68.3439C13.199 66.8441 11.1893 64.8026 9.56917 62.5333C6.18083 57.7827 4.05435 52.0428 3.03396 46.3107C1.96683 40.2724 2.38745 33.7787 5.54211 28.4078C7.13891 25.6988 10.2936 20.9404 18.4879 15.8915C17.8725 16.7709 18.9085 18.2314 20.0535 17.5797C25.6385 14.4231 32.0646 12.5936 38.4986 13.3238C44.4496 13.9991 50.1591 16.9986 53.6799 21.9455C57.1072 26.751 59.1168 32.8521 59.7322 38.7099C60.3397 44.4969 59.2882 49.7264 56.8579 55.0816C54.3887 60.5624 51.1951 64.991 44.0991 68.6737Z" fill="#FFE300"/>
<path d="M37.6729 33.7317C37.6885 32.8209 38.3506 31.91 39.0204 31.3368C39.776 30.6929 40.7808 30.4888 41.7311 30.4809C42.549 30.4731 43.4525 30.7008 44.0757 31.1876C44.8313 31.7844 44.987 32.9073 45.174 33.7945C45.3064 34.4149 46.0308 34.7761 46.615 34.619C47.2537 34.4384 47.5575 33.7945 47.4329 33.1664C47.1525 31.7922 46.7474 30.3474 45.618 29.4287C44.4807 28.4943 42.9229 28.0625 41.4974 28.0939C39.9006 28.1253 38.5297 28.6121 37.3146 29.7193C36.2085 30.7244 35.3673 32.2006 35.3361 33.7239C35.3127 35.2472 37.6495 35.2472 37.6729 33.7317Z" fill="black"/>
<path d="M48.8197 38.4977C49.0222 42.0154 48.0096 45.7217 46.7867 48.7369C45.2912 52.4117 42.8999 55.2856 40.9759 56.3378C38.1796 57.8689 35.3443 59.3844 28.3806 58.1752C24.8209 57.5549 20.2253 54.8616 17.8106 52.1683C14.9052 48.9253 13.0903 44.7166 12.6541 40.3665C12.5061 38.8746 10.1693 38.8589 10.3173 40.3665C11.1819 49.0274 16.6578 56.5105 24.6885 59.7692C26.776 60.6093 29.5023 60.9391 31.7612 60.9391C35.4455 60.9391 37.9069 60.5387 39.9867 59.4943C44.5512 57.2251 46.5297 54.2805 47.9006 51.4694C49.4818 48.2186 51.4213 42.997 51.1643 38.4898C51.0708 36.9901 48.734 36.9822 48.8197 38.4977Z" fill="black"/>
<path d="M24.5155 33.4931C24.5003 32.559 23.8544 31.6249 23.201 31.037C22.464 30.3766 21.4838 30.1673 20.5569 30.1592C19.7591 30.1512 18.8777 30.3847 18.2698 30.884C17.5328 31.496 17.3809 32.6476 17.1985 33.5576C17.0694 34.1937 16.3627 34.5642 15.7929 34.4031C15.1698 34.2179 14.8735 33.5576 14.9951 32.9133C15.2686 31.5041 15.6637 30.0223 16.7654 29.0801C17.8747 28.1218 19.3944 27.6789 20.7848 27.7111C22.3424 27.7433 23.6797 28.2426 24.865 29.3781C25.9439 30.4089 26.7645 31.9228 26.7949 33.4851C26.8253 35.0474 24.5459 35.0474 24.5155 33.4931Z" fill="black"/>
</svg>
